ScienceGothic-BlkExpCtr.ufo
<glyph name="exclam" format="2">
  <advance width="1336"/>
  <unicode hex="0021"/>
  <outline>
    <contour>
      <point x="383" y="135" type="line" smooth="yes"/>
      <point x="383" y="44"/>
      <point x="433" y="-6"/>
      <point x="524" y="-6" type="qcurve" smooth="yes"/>
      <point x="812" y="-6" type="line" smooth="yes"/>
      <point x="902" y="-6"/>
      <point x="953" y="45"/>
      <point x="953" y="135" type="qcurve" smooth="yes"/>
      <point x="953" y="224" type="line" smooth="yes"/>
      <point x="953" y="314"/>
      <point x="902" y="364"/>
      <point x="811" y="364" type="qcurve" smooth="yes"/>
      <point x="524" y="364" type="line" smooth="yes"/>
      <point x="434" y="364"/>
      <point x="383" y="314"/>
      <point x="383" y="226" type="qcurve" smooth="yes"/>
    </contour>
    <contour>
      <point x="650" y="462" type="line"/>
      <point x="686" y="462" type="line"/>
      <point x="976" y="1400" type="line"/>
      <point x="360" y="1400" type="line"/>
    </contour>
  </outline>
</glyph>
<glyph name="quotedbl" format="2">
  <advance width="2220"/>
  <unicode hex="0022"/>
  <outline>
    <contour>
      <point x="360" y="1234" type="line"/>
      <point x="500" y="835" type="line"/>
      <point x="790" y="835" type="line"/>
      <point x="930" y="1234" type="line"/>
      <point x="930" y="1383" type="line" smooth="yes"/>
      <point x="930" y="1470"/>
      <point x="904" y="1500"/>
      <point x="831" y="1500" type="qcurve" smooth="yes"/>
      <point x="459" y="1500" type="line" smooth="yes"/>
      <point x="386" y="1500"/>
      <point x="360" y="1470"/>
      <point x="360" y="1383" type="qcurve" smooth="yes"/>
    </contour>
    <contour>
      <point x="1290" y="1234" type="line"/>
      <point x="1430" y="835" type="line"/>
      <point x="1720" y="835" type="line"/>
      <point x="1860" y="1234" type="line"/>
      <point x="1860" y="1383" type="line" smooth="yes"/>
      <point x="1860" y="1470"/>
      <point x="1834" y="1500"/>
      <point x="1761" y="1500" type="qcurve" smooth="yes"/>
      <point x="1389" y="1500" type="line" smooth="yes"/>
      <point x="1316" y="1500"/>
      <point x="1290" y="1470"/>
      <point x="1290" y="1383" type="qcurve" smooth="yes"/>
    </contour>
  </outline>
</glyph>
<glyph name="numbersign" format="2">
  <advance width="1962"/>
  <unicode hex="0023"/>
  <outline>
    <contour>
      <point x="176" y="224" type="line"/>
      <point x="1641" y="224" type="line"/>
      <point x="1700" y="636" type="line"/>
      <point x="235" y="636" type="line"/>
    </contour>
    <contour>
      <point x="252" y="765" type="line"/>
      <point x="1717" y="765" type="line"/>
      <point x="1776" y="1177" type="line"/>
      <point x="311" y="1177" type="line"/>
    </contour>
    <contour>
      <point x="577" y="0" type="line"/>
      <point x="613" y="0" type="line"/>
      <point x="811" y="1400" type="line"/>
      <point x="775" y="1400" type="line"/>
    </contour>
    <contour>
      <point x="1142" y="0" type="line"/>
      <point x="1178" y="0" type="line"/>
      <point x="1376" y="1400" type="line"/>
      <point x="1340" y="1400" type="line"/>
    </contour>
  </outline>
  <guideline angle="0" x="0" y="334"/>
  <guideline angle="0" x="0" y="875"/>
</glyph>
<glyph name="ampersand" format="2">
  <advance width="2864"/>
  <unicode hex="0026"/>
  <outline>
    <contour>
      <point x="369" y="-10" type="qcurve" smooth="yes"/>
      <point x="1010" y="-10" type="line" smooth="yes"/>
      <point x="1078" y="-10"/>
      <point x="1179" y="-1"/>
      <point x="1270" y="23"/>
      <point x="1365" y="67"/>
      <point x="1427" y="101" type="qcurve" smooth="yes"/>
      <point x="1664" y="233" type="line"/>
      <point x="2018" y="0" type="line"/>
      <point x="2864" y="0" type="line"/>
      <point x="2096" y="500" type="line"/>
      <point x="2592" y="776" type="line"/>
      <point x="2557" y="798" type="line"/>
      <point x="2065" y="524" type="line"/>
      <point x="1238" y="1054" type="line"/>
      <point x="1238" y="1054"/>
      <point x="1238" y="1054"/>
      <point x="1238" y="1054" type="qcurve"/>
      <point x="1238" y="1378" type="line"/>
      <point x="1238" y="1378"/>
      <point x="1238" y="1378"/>
      <point x="1238" y="1378" type="qcurve"/>
      <point x="1785" y="1378" type="line"/>
      <point x="1785" y="1378"/>
      <point x="1785" y="1378"/>
      <point x="1785" y="1378" type="qcurve"/>
      <point x="1785" y="958" type="line"/>
      <point x="2250" y="1043" type="line"/>
      <point x="2250" y="1119" type="line" smooth="yes"/>
      <point x="2250" y="1265"/>
      <point x="2077" y="1414"/>
      <point x="1909" y="1414" type="qcurve" smooth="yes"/>
      <point x="1053" y="1414" type="line" smooth="yes"/>
      <point x="888" y="1414"/>
      <point x="719" y="1259"/>
      <point x="719" y="1109" type="qcurve" smooth="yes"/>
      <point x="719" y="968" type="line" smooth="yes"/>
      <point x="719" y="946"/>
      <point x="726" y="907"/>
      <point x="738" y="873"/>
      <point x="755" y="844"/>
      <point x="766" y="832" type="qcurve"/>
      <point x="295" y="567" type="line" smooth="yes"/>
      <point x="195" y="510"/>
      <point x="100" y="373"/>
      <point x="100" y="276" type="qcurve" smooth="yes"/>
      <point x="100" y="217" type="line" smooth="yes"/>
      <point x="100" y="161"/>
      <point x="135" y="76"/>
      <point x="202" y="19"/>
      <point x="303" y="-10"/>
    </contour>
    <contour>
      <point x="655" y="26" type="line"/>
      <point x="655" y="26"/>
      <point x="655" y="26"/>
      <point x="655" y="26" type="qcurve"/>
      <point x="655" y="728" type="line"/>
      <point x="655" y="728"/>
      <point x="655" y="728"/>
      <point x="655" y="728" type="qcurve"/>
      <point x="788" y="803" type="line"/>
      <point x="1632" y="257" type="line"/>
      <point x="1387" y="120" type="line" smooth="yes"/>
      <point x="1290" y="66"/>
      <point x="1144" y="26"/>
      <point x="1026" y="26" type="qcurve" smooth="yes"/>
    </contour>
  </outline>
</glyph>
<glyph name="quotesingle" format="2">
  <advance width="1290"/>
  <unicode hex="0027"/>
  <outline>
    <contour>
      <point x="360" y="1184" type="line"/>
      <point x="500" y="785" type="line"/>
      <point x="790" y="785" type="line"/>
      <point x="930" y="1184" type="line"/>
      <point x="930" y="1333" type="line" smooth="yes"/>
      <point x="930" y="1419.78"/>
      <point x="904.196" y="1450"/>
      <point x="831" y="1450" type="qcurve" smooth="yes"/>
      <point x="459" y="1450" type="line" smooth="yes"/>
      <point x="385.804" y="1450"/>
      <point x="360" y="1419.78"/>
      <point x="360" y="1333" type="qcurve" smooth="yes"/>
    </contour>
  </outline>
</glyph>
<glyph name="parenleft" format="2">
  <advance width="1000"/>
  <unicode hex="0028"/>
  <outline>
    <contour>
      <point x="880" y="-256" type="line"/>
      <point x="812" y="-206"/>
      <point x="739" y="-125"/>
      <point x="705" y="41"/>
      <point x="699" y="347"/>
      <point x="699" y="622" type="qcurve" smooth="yes"/>
      <point x="699" y="897"/>
      <point x="705" y="1203"/>
      <point x="739" y="1369"/>
      <point x="812" y="1450"/>
      <point x="880" y="1500" type="qcurve"/>
      <point x="832" y="1500" type="line"/>
      <point x="707" y="1426"/>
      <point x="502" y="1242"/>
      <point x="357" y="1021"/>
      <point x="277" y="766"/>
      <point x="277" y="622" type="qcurve" smooth="yes"/>
      <point x="277" y="331"/>
      <point x="581" y="-107"/>
      <point x="832" y="-256" type="qcurve"/>
    </contour>
  </outline>
</glyph>
<glyph name="parenright" format="2">
  <advance width="1000"/>
  <unicode hex="0029"/>
  <outline>
    <contour>
      <point x="277" y="1500" type="line"/>
      <point x="344.875" y="1449.75"/>
      <point x="418.406" y="1369.25"/>
      <point x="452.344" y="1202.75"/>
      <point x="458" y="897.25"/>
      <point x="458" y="622" type="qcurve" smooth="yes"/>
      <point x="458" y="346.75"/>
      <point x="452.344" y="41.25"/>
      <point x="418.406" y="-125.25"/>
      <point x="344.875" y="-205.75"/>
      <point x="277" y="-256" type="qcurve"/>
      <point x="325" y="-256" type="line"/>
      <point x="449.875" y="-182.125"/>
      <point x="654.531" y="2.4375"/>
      <point x="800.219" y="222.562"/>
      <point x="880" y="477.625"/>
      <point x="880" y="622" type="qcurve" smooth="yes"/>
      <point x="880" y="912.521"/>
      <point x="576.282" y="1350.59"/>
      <point x="325" y="1500" type="qcurve"/>
    </contour>
  </outline>
</glyph>
<glyph name="asterisk" format="2">
  <advance width="1626"/>
  <unicode hex="002A"/>
  <outline>
    <contour>
      <point x="709" y="782" type="line"/>
      <point x="917" y="782" type="line"/>
      <point x="831" y="1100" type="line"/>
      <point x="1170" y="828" type="line"/>
      <point x="1266" y="984" type="line"/>
      <point x="848" y="1127" type="line"/>
      <point x="1266" y="1268" type="line"/>
      <point x="1172" y="1422" type="line"/>
      <point x="831" y="1151" type="line"/>
      <point x="917" y="1472" type="line"/>
      <point x="709" y="1472" type="line"/>
      <point x="795" y="1151" type="line"/>
      <point x="456" y="1420" type="line"/>
      <point x="360" y="1264" type="line"/>
      <point x="780" y="1127" type="line"/>
      <point x="360" y="986" type="line"/>
      <point x="454" y="832" type="line"/>
      <point x="795" y="1101" type="line"/>
    </contour>
  </outline>
</glyph>
<glyph name="comma" format="2">
  <advance width="1290"/>
  <unicode hex="002C"/>
  <outline>
    <contour>
      <point x="624" y="-346" type="line"/>
      <point x="886" y="0" type="line"/>
      <point x="911.656" y="31.6932"/>
      <point x="930" y="90.4418"/>
      <point x="930" y="141" type="qcurve" smooth="yes"/>
      <point x="930" y="385" type="line" smooth="yes"/>
      <point x="930" y="474.043"/>
      <point x="879.552" y="524"/>
      <point x="789" y="524" type="qcurve" smooth="yes"/>
      <point x="501" y="524" type="line" smooth="yes"/>
      <point x="411" y="524"/>
      <point x="360" y="473.5"/>
      <point x="360" y="385" type="qcurve" smooth="yes"/>
      <point x="360" y="141" type="line" smooth="yes"/>
      <point x="360" y="50.448"/>
      <point x="410.448" y="0"/>
      <point x="501" y="0" type="qcurve" smooth="yes"/>
      <point x="778" y="0" type="line"/>
      <point x="597" y="-340" type="line"/>
    </contour>
  </outline>
</glyph>
<glyph name="period" format="2">
  <advance width="1290"/>
  <unicode hex="002E"/>
  <outline>
    <contour>
      <point x="360" y="135" type="line" smooth="yes"/>
      <point x="360" y="44.448"/>
      <point x="410.448" y="-6"/>
      <point x="501" y="-6" type="qcurve" smooth="yes"/>
      <point x="789" y="-6" type="line" smooth="yes"/>
      <point x="879" y="-6"/>
      <point x="930" y="45"/>
      <point x="930" y="135" type="qcurve" smooth="yes"/>
      <point x="930" y="384" type="line" smooth="yes"/>
      <point x="930" y="473.797"/>
      <point x="878.552" y="524"/>
      <point x="788" y="524" type="qcurve" smooth="yes"/>
      <point x="501" y="524" type="line" smooth="yes"/>
      <point x="411" y="524"/>
      <point x="360" y="473.75"/>
      <point x="360" y="386" type="qcurve" smooth="yes"/>
    </contour>
  </outline>
</glyph>
<glyph name="slash" format="2">
  <advance width="1896"/>
  <unicode hex="002F"/>
  <outline>
    <contour>
      <point x="1237" y="1430" type="line"/>
      <point x="180" y="-100" type="line"/>
      <point x="659" y="-100" type="line"/>
      <point x="1716" y="1430" type="line"/>
    </contour>
  </outline>
</glyph>
<glyph name="zero" format="2">
  <advance width="3112"/>
  <unicode hex="0030"/>
  <outline>
    <contour>
      <point x="812" y="0" type="qcurve" smooth="yes"/>
      <point x="2298" y="0" type="line" smooth="yes"/>
      <point x="2497" y="0"/>
      <point x="2712" y="140"/>
      <point x="2712" y="348" type="qcurve" smooth="yes"/>
      <point x="2712" y="1068" type="line" smooth="yes"/>
      <point x="2712" y="1269"/>
      <point x="2487" y="1402"/>
      <point x="2298" y="1402" type="qcurve" smooth="yes"/>
      <point x="812" y="1402" type="line" smooth="yes"/>
      <point x="623" y="1402"/>
      <point x="400" y="1269"/>
      <point x="400" y="1068" type="qcurve" smooth="yes"/>
      <point x="400" y="348" type="line" smooth="yes"/>
      <point x="400" y="141"/>
      <point x="613" y="0"/>
    </contour>
    <contour>
      <point x="972" y="36" type="line"/>
      <point x="972" y="36"/>
      <point x="972" y="36"/>
      <point x="972" y="36" type="qcurve"/>
      <point x="972" y="1366" type="line"/>
      <point x="972" y="1366"/>
      <point x="972" y="1366"/>
      <point x="972" y="1366" type="qcurve"/>
      <point x="2140" y="1366" type="line"/>
      <point x="2140" y="1366"/>
      <point x="2140" y="1366"/>
      <point x="2140" y="1366" type="qcurve"/>
      <point x="2140" y="36" type="line"/>
      <point x="2140" y="36"/>
      <point x="2140" y="36"/>
      <point x="2140" y="36" type="qcurve"/>
    </contour>
  </outline>
</glyph>
<glyph name="three" format="2">
  <advance width="3032"/>
  <unicode hex="0033"/>
  <outline>
    <contour>
      <point x="400" y="418" type="line"/>
      <point x="400" y="320" type="line" smooth="yes"/>
      <point x="400" y="129.5"/>
      <point x="606.5" y="0"/>
      <point x="788" y="0" type="qcurve" smooth="yes"/>
      <point x="2224" y="0" type="line" smooth="yes"/>
      <point x="2315.5" y="0"/>
      <point x="2465.88" y="31.6875"/>
      <point x="2573.12" y="107.812"/>
      <point x="2632" y="234.75"/>
      <point x="2632" y="330" type="qcurve" smooth="yes"/>
      <point x="2632" y="408" type="line" smooth="yes"/>
      <point x="2632" y="574.012"/>
      <point x="2517.61" y="710.945"/>
      <point x="2418" y="720" type="qcurve"/>
      <point x="2523.64" y="739.62"/>
      <point x="2624" y="878.172"/>
      <point x="2624" y="1014" type="qcurve" smooth="yes"/>
      <point x="2624" y="1096" type="line" smooth="yes"/>
      <point x="2624" y="1172.5"/>
      <point x="2576.44" y="1286.62"/>
      <point x="2480.06" y="1362.38"/>
      <point x="2334.25" y="1400"/>
      <point x="2236" y="1400" type="qcurve" smooth="yes"/>
      <point x="800" y="1400" type="line" smooth="yes"/>
      <point x="701.75" y="1400"/>
      <point x="555.938" y="1361.12"/>
      <point x="459.562" y="1283.88"/>
      <point x="412" y="1168.5"/>
      <point x="412" y="1092" type="qcurve" smooth="yes"/>
      <point x="412" y="964" type="line"/>
      <point x="884" y="880" type="line"/>
      <point x="884" y="1364" type="line"/>
      <point x="884" y="1364"/>
      <point x="884" y="1364"/>
      <point x="884" y="1364" type="qcurve"/>
      <point x="1990" y="1364" type="line" smooth="yes"/>
      <point x="2062.44" y="1364"/>
      <point x="2152" y="1294.4"/>
      <point x="2152" y="1228" type="qcurve" smooth="yes"/>
      <point x="2152" y="858" type="line" smooth="yes"/>
      <point x="2152" y="791.595"/>
      <point x="2059.42" y="726"/>
      <point x="1990" y="726" type="qcurve" smooth="yes"/>
      <point x="1326" y="726" type="line"/>
      <point x="1326" y="690" type="line"/>
      <point x="1998" y="690" type="line" smooth="yes"/>
      <point x="2067.42" y="690"/>
      <point x="2160" y="631.46"/>
      <point x="2160" y="556" type="qcurve" smooth="yes"/>
      <point x="2160" y="174" type="line" smooth="yes"/>
      <point x="2160" y="98.54"/>
      <point x="2071.42" y="36"/>
      <point x="2002" y="36" type="qcurve" smooth="yes"/>
      <point x="872" y="36" type="line"/>
      <point x="872" y="36"/>
      <point x="872" y="36"/>
      <point x="872" y="36" type="qcurve"/>
      <point x="872" y="502" type="line"/>
    </contour>
  </outline>
</glyph>
<glyph name="four" format="2">
  <advance width="2820"/>
  <unicode hex="0034"/>
  <outline>
    <contour>
      <point x="60" y="404" type="line"/>
      <point x="1631" y="404" type="line"/>
      <point x="1631" y="0" type="line"/>
      <point x="2203" y="0" type="line"/>
      <point x="2203" y="404" type="line"/>
      <point x="2610" y="404" type="line"/>
      <point x="2610" y="440" type="line"/>
      <point x="2203" y="440" type="line"/>
      <point x="2203" y="1400" type="line"/>
      <point x="1853" y="1400" type="line"/>
      <point x="60" y="440" type="line"/>
    </contour>
    <contour>
      <point x="137" y="440" type="line"/>
      <point x="1631" y="1240" type="line"/>
      <point x="1631" y="440" type="line"/>
    </contour>
  </outline>
</glyph>
<glyph name="five" format="2">
  <advance width="2784"/>
  <unicode hex="0035"/>
  <outline>
    <contour>
      <point x="1330" y="-12" type="qcurve" smooth="yes"/>
      <point x="1620.25" y="-12"/>
      <point x="2044.06" y="34.375"/>
      <point x="2320.44" y="135.625"/>
      <point x="2454" y="296"/>
      <point x="2454" y="410" type="qcurve" smooth="yes"/>
      <point x="2454" y="524"/>
      <point x="2338.97" y="673.75"/>
      <point x="2071.78" y="762.25"/>
      <point x="1633.88" y="798"/>
      <point x="1311" y="798" type="qcurve" smooth="yes"/>
      <point x="1148.25" y="798"/>
      <point x="880.531" y="778.062"/>
      <point x="654.219" y="740.938"/>
      <point x="461.125" y="688"/>
      <point x="373" y="655" type="qcurve"/>
      <point x="401" y="970" type="line"/>
      <point x="2186" y="970" type="line"/>
      <point x="2278" y="1400" type="line"/>
      <point x="406" y="1400" type="line"/>
      <point x="330" y="598" type="line"/>
      <point x="424.5" y="639.25"/>
      <point x="639.75" y="700.812"/>
      <point x="881.25" y="741.688"/>
      <point x="1149" y="762"/>
      <point x="1296" y="762" type="qcurve" smooth="yes"/>
      <point x="1458" y="762"/>
      <point x="1681" y="733"/>
      <point x="1819" y="655"/>
      <point x="1880" y="518"/>
      <point x="1880" y="410" type="qcurve" smooth="yes"/>
      <point x="1880" y="302.75"/>
      <point x="1812.49" y="155.625"/>
      <point x="1663.91" y="64.875"/>
      <point x="1427.5" y="25"/>
      <point x="1258.6" y="25" type="qcurve" smooth="yes"/>
      <point x="1156.75" y="25"/>
      <point x="902.85" y="37.3438"/>
      <point x="649.05" y="57.4062"/>
      <point x="420.5" y="82.875"/>
      <point x="344" y="96" type="qcurve"/>
      <point x="358" y="56" type="line"/>
      <point x="430.75" y="44.75"/>
      <point x="653.688" y="20.6875"/>
      <point x="915.812" y="0.8125"/>
      <point x="1198" y="-12"/>
    </contour>
  </outline>
</glyph>
<glyph name="eight" format="2">
  <advance width="3122"/>
  <unicode hex="0038"/>
  <outline>
    <contour>
      <point x="881" y="224" type="qcurve" smooth="yes"/>
      <point x="881" y="501" type="line" smooth="yes"/>
      <point x="881" y="554"/>
      <point x="903" y="625"/>
      <point x="948" y="670"/>
      <point x="1015" y="689"/>
      <point x="1059" y="689" type="qcurve" smooth="yes"/>
      <point x="2063" y="689" type="line" smooth="yes"/>
      <point x="2107" y="689"/>
      <point x="2174" y="670"/>
      <point x="2219" y="625"/>
      <point x="2241" y="554"/>
      <point x="2241" y="501" type="qcurve" smooth="yes"/>
      <point x="2241" y="224" type="line" smooth="yes"/>
      <point x="2241" y="118"/>
      <point x="2152" y="36"/>
      <point x="2063" y="36" type="qcurve" smooth="yes"/>
      <point x="1059" y="36" type="line" smooth="yes"/>
      <point x="970" y="36"/>
      <point x="881" y="118"/>
    </contour>
    <contour>
      <point x="2228" y="1178" type="qcurve" smooth="yes"/>
      <point x="2228" y="911" type="line" smooth="yes"/>
      <point x="2228" y="807"/>
      <point x="2139" y="725"/>
      <point x="2050" y="725" type="qcurve" smooth="yes"/>
      <point x="1072" y="725" type="line" smooth="yes"/>
      <point x="983" y="725"/>
      <point x="894" y="807"/>
      <point x="894" y="911" type="qcurve" smooth="yes"/>
      <point x="894" y="1178" type="line" smooth="yes"/>
      <point x="894" y="1282"/>
      <point x="983" y="1364"/>
      <point x="1072" y="1364" type="qcurve" smooth="yes"/>
      <point x="2050" y="1364" type="line" smooth="yes"/>
      <point x="2139" y="1364"/>
      <point x="2228" y="1282"/>
    </contour>
    <contour>
      <point x="360" y="353" type="line" smooth="yes"/>
      <point x="360" y="252"/>
      <point x="425" y="116"/>
      <point x="539" y="34"/>
      <point x="695" y="0"/>
      <point x="785" y="0" type="qcurve" smooth="yes"/>
      <point x="2336" y="0" type="line" smooth="yes"/>
      <point x="2519" y="0"/>
      <point x="2762" y="152"/>
      <point x="2762" y="354" type="qcurve" smooth="yes"/>
      <point x="2762" y="396" type="line" smooth="yes"/>
      <point x="2762" y="566"/>
      <point x="2639" y="696"/>
      <point x="2566" y="712" type="qcurve"/>
      <point x="2634" y="729"/>
      <point x="2752" y="868"/>
      <point x="2752" y="977" type="qcurve" smooth="yes"/>
      <point x="2752" y="1062" type="line" smooth="yes"/>
      <point x="2752" y="1218"/>
      <point x="2553" y="1400"/>
      <point x="2351" y="1400" type="qcurve" smooth="yes"/>
      <point x="772" y="1400" type="line" smooth="yes"/>
      <point x="570" y="1400"/>
      <point x="370" y="1218"/>
      <point x="370" y="1061" type="qcurve" smooth="yes"/>
      <point x="370" y="977" type="line" smooth="yes"/>
      <point x="370" y="868"/>
      <point x="486" y="729"/>
      <point x="557" y="712" type="qcurve"/>
      <point x="483" y="695"/>
      <point x="360" y="563"/>
      <point x="360" y="392" type="qcurve" smooth="yes"/>
    </contour>
  </outline>
</glyph>
<glyph name="colon" format="2">
  <advance width="1290"/>
  <unicode hex="003A"/>
  <outline>
    <contour>
      <point x="360" y="135" type="line" smooth="yes"/>
      <point x="360" y="90"/>
      <point x="370" y="35"/>
      <point x="401" y="4"/>
      <point x="456" y="-6"/>
      <point x="501" y="-6" type="qcurve" smooth="yes"/>
      <point x="789" y="-6" type="line" smooth="yes"/>
      <point x="834" y="-6"/>
      <point x="889" y="4"/>
      <point x="920" y="35"/>
      <point x="930" y="90"/>
      <point x="930" y="135" type="qcurve" smooth="yes"/>
      <point x="930" y="314" type="line" smooth="yes"/>
      <point x="930" y="359"/>
      <point x="919" y="414"/>
      <point x="889" y="444"/>
      <point x="833" y="454"/>
      <point x="788" y="454" type="qcurve" smooth="yes"/>
      <point x="501" y="454" type="line" smooth="yes"/>
      <point x="456" y="454"/>
      <point x="401" y="444"/>
      <point x="370" y="414"/>
      <point x="360" y="360"/>
      <point x="360" y="316" type="qcurve" smooth="yes"/>
    </contour>
    <contour>
      <point x="360" y="715" type="line" smooth="yes"/>
      <point x="360" y="670"/>
      <point x="370" y="615"/>
      <point x="401" y="584"/>
      <point x="456" y="574"/>
      <point x="501" y="574" type="qcurve" smooth="yes"/>
      <point x="789" y="574" type="line" smooth="yes"/>
      <point x="834" y="574"/>
      <point x="889" y="584"/>
      <point x="920" y="615"/>
      <point x="930" y="670"/>
      <point x="930" y="715" type="qcurve" smooth="yes"/>
      <point x="930" y="894" type="line" smooth="yes"/>
      <point x="930" y="939"/>
      <point x="919" y="994"/>
      <point x="889" y="1024"/>
      <point x="833" y="1034"/>
      <point x="788" y="1034" type="qcurve" smooth="yes"/>
      <point x="501" y="1034" type="line" smooth="yes"/>
      <point x="456" y="1034"/>
      <point x="401" y="1024"/>
      <point x="370" y="994"/>
      <point x="360" y="940"/>
      <point x="360" y="896" type="qcurve" smooth="yes"/>
    </contour>
  </outline>
</glyph>
<glyph name="semicolon" format="2">
  <advance width="1290"/>
  <unicode hex="003B"/>
  <outline>
    <contour>
      <point x="597" y="-336" type="line"/>
      <point x="624" y="-342" type="line"/>
      <point x="910" y="36" type="line"/>
      <point x="789" y="25" type="line"/>
    </contour>
    <contour>
      <point x="360" y="145" type="line" smooth="yes"/>
      <point x="360" y="54"/>
      <point x="410" y="4"/>
      <point x="501" y="4" type="qcurve" smooth="yes"/>
      <point x="789" y="4" type="line" smooth="yes"/>
      <point x="879" y="4"/>
      <point x="930" y="55"/>
      <point x="930" y="145" type="qcurve" smooth="yes"/>
      <point x="930" y="315" type="line" smooth="yes"/>
      <point x="930" y="404"/>
      <point x="880" y="454"/>
      <point x="789" y="454" type="qcurve" smooth="yes"/>
      <point x="501" y="454" type="line" smooth="yes"/>
      <point x="411" y="454"/>
      <point x="360" y="404"/>
      <point x="360" y="315" type="qcurve" smooth="yes"/>
    </contour>
    <contour>
      <point x="360" y="715" type="line" smooth="yes"/>
      <point x="360" y="624"/>
      <point x="410" y="574"/>
      <point x="501" y="574" type="qcurve" smooth="yes"/>
      <point x="789" y="574" type="line" smooth="yes"/>
      <point x="879" y="574"/>
      <point x="930" y="625"/>
      <point x="930" y="715" type="qcurve" smooth="yes"/>
      <point x="930" y="894" type="line" smooth="yes"/>
      <point x="930" y="984"/>
      <point x="879" y="1034"/>
      <point x="788" y="1034" type="qcurve" smooth="yes"/>
      <point x="501" y="1034" type="line" smooth="yes"/>
      <point x="411" y="1034"/>
      <point x="360" y="984"/>
      <point x="360" y="896" type="qcurve" smooth="yes"/>
    </contour>
  </outline>
</glyph>
<glyph name="equal" format="2">
  <advance width="2086"/>
  <unicode hex="003D"/>
  <outline>
    <contour>
      <point x="236" y="789" type="line"/>
      <point x="1850" y="789" type="line"/>
      <point x="1850" y="825" type="line"/>
      <point x="236" y="825" type="line"/>
    </contour>
    <contour>
      <point x="236" y="349" type="line"/>
      <point x="1850" y="349" type="line"/>
      <point x="1850" y="385" type="line"/>
      <point x="236" y="385" type="line"/>
    </contour>
  </outline>
</glyph>
<glyph name="greater" format="2">
  <advance width="2086"/>
  <unicode hex="003E"/>
  <outline>
    <contour>
      <point x="236" y="1168" type="line"/>
      <point x="236" y="1128" type="line"/>
      <point x="1790" y="583" type="line"/>
      <point x="236" y="39" type="line"/>
      <point x="236" y="0" type="line"/>
      <point x="1850" y="566" type="line"/>
      <point x="1850" y="602" type="line"/>
    </contour>
  </outline>
</glyph>
<glyph name="question" format="2">
  <advance width="2325"/>
  <unicode hex="003F"/>
  <outline>
    <contour>
      <point x="1045" y="462" type="line"/>
      <point x="1085" y="462" type="line"/>
      <point x="1085" y="560" type="line" smooth="yes"/>
      <point x="1085" y="621.123"/>
      <point x="1156.33" y="687.491"/>
      <point x="1225" y="689" type="qcurve" smooth="yes"/>
      <point x="1731" y="698" type="line" smooth="yes"/>
      <point x="1880.41" y="701.018"/>
      <point x="2005" y="876.528"/>
      <point x="2005" y="995" type="qcurve" smooth="yes"/>
      <point x="2005" y="1105" type="line" smooth="yes"/>
      <point x="2005" y="1264.98"/>
      <point x="1831.5" y="1400"/>
      <point x="1627" y="1400" type="qcurve" smooth="yes"/>
      <point x="581" y="1400" type="line" smooth="yes"/>
      <point x="376.503" y="1400"/>
      <point x="200" y="1262.22"/>
      <point x="200" y="1103" type="qcurve" smooth="yes"/>
      <point x="200" y="988" type="line"/>
      <point x="735" y="914" type="line"/>
      <point x="735" y="1364" type="line"/>
      <point x="735" y="1364"/>
      <point x="735" y="1364"/>
      <point x="735" y="1364" type="qcurve"/>
      <point x="1480" y="1364" type="line"/>
      <point x="1480" y="1364"/>
      <point x="1480" y="1364"/>
      <point x="1480" y="1364" type="qcurve"/>
      <point x="1480" y="729" type="line"/>
      <point x="1480" y="729"/>
      <point x="1480" y="729"/>
      <point x="1480" y="729" type="qcurve"/>
      <point x="1225" y="725" type="line" smooth="yes"/>
      <point x="1129.17" y="723.491"/>
      <point x="1045" y="629.442"/>
      <point x="1045" y="557" type="qcurve" smooth="yes"/>
    </contour>
    <contour>
      <point x="780" y="135" type="line" smooth="yes"/>
      <point x="780" y="44.448"/>
      <point x="830.448" y="-6"/>
      <point x="921" y="-6" type="qcurve" smooth="yes"/>
      <point x="1209" y="-6" type="line" smooth="yes"/>
      <point x="1299" y="-6"/>
      <point x="1350" y="45"/>
      <point x="1350" y="135" type="qcurve" smooth="yes"/>
      <point x="1350" y="224" type="line" smooth="yes"/>
      <point x="1350" y="313.797"/>
      <point x="1298.55" y="364"/>
      <point x="1208" y="364" type="qcurve" smooth="yes"/>
      <point x="921" y="364" type="line" smooth="yes"/>
      <point x="831" y="364"/>
      <point x="780" y="313.75"/>
      <point x="780" y="226" type="qcurve" smooth="yes"/>
    </contour>
  </outline>
</glyph>
<glyph name="at" format="2">
  <advance width="3346"/>
  <unicode hex="0040"/>
  <outline>
    <contour>
      <point x="370" y="193" type="line" smooth="yes"/>
      <point x="370" y="13"/>
      <point x="556.75" y="-100"/>
      <point x="721" y="-100" type="qcurve" smooth="yes"/>
      <point x="2678" y="-100" type="line"/>
      <point x="2678" y="-64" type="line"/>
      <point x="826" y="-64" type="line" smooth="yes"/>
      <point x="733.939" y="-64"/>
      <point x="679" y="-1.0674"/>
      <point x="679" y="51" type="qcurve" smooth="yes"/>
      <point x="679" y="1000" type="line" smooth="yes"/>
      <point x="679" y="1064.9"/>
      <point x="759.595" y="1104"/>
      <point x="826" y="1104" type="qcurve" smooth="yes"/>
      <point x="2508" y="1104" type="line" smooth="yes"/>
      <point x="2600.82" y="1104"/>
      <point x="2667" y="1046.03"/>
      <point x="2667" y="1000" type="qcurve" smooth="yes"/>
      <point x="2667" y="265" type="line" smooth="yes"/>
      <point x="2667" y="221.988"/>
      <point x="2648.2" y="182"/>
      <point x="2615" y="182" type="qcurve" smooth="yes"/>
      <point x="2409" y="182" type="line" smooth="yes"/>
      <point x="2382.75" y="182"/>
      <point x="2360" y="204.5"/>
      <point x="2360" y="227" type="qcurve" smooth="yes"/>
      <point x="2360" y="878" type="line"/>
      <point x="2006" y="878" type="line"/>
      <point x="2006" y="860" type="line"/>
      <point x="1995.44" y="871.319"/>
      <point x="1965.56" y="878"/>
      <point x="1955" y="878" type="qcurve" smooth="yes"/>
      <point x="1173" y="878" type="line" smooth="yes"/>
      <point x="1060.56" y="878"/>
      <point x="958" y="792.061"/>
      <point x="958" y="700" type="qcurve" smooth="yes"/>
      <point x="958" y="339" type="line" smooth="yes"/>
      <point x="958" y="241.657"/>
      <point x="1059.81" y="154"/>
      <point x="1173" y="154" type="qcurve" smooth="yes"/>
      <point x="1922" y="154" type="line" smooth="yes"/>
      <point x="1965.77" y="154"/>
      <point x="2018.93" y="186.08"/>
      <point x="2031" y="214" type="qcurve"/>
      <point x="2054.39" y="189.853"/>
      <point x="2132.93" y="154"/>
      <point x="2185" y="154" type="qcurve" smooth="yes"/>
      <point x="2687" y="154" type="line" smooth="yes"/>
      <point x="2819.81" y="154"/>
      <point x="2976" y="267.534"/>
      <point x="2976" y="426" type="qcurve" smooth="yes"/>
      <point x="2976" y="858" type="line" smooth="yes"/>
      <point x="2976" y="946.125"/>
      <point x="2923.91" y="1056.28"/>
      <point x="2830.34" y="1117.97"/>
      <point x="2700.62" y="1140"/>
      <point x="2623" y="1140" type="qcurve" smooth="yes"/>
      <point x="721" y="1140" type="line" smooth="yes"/>
      <point x="565" y="1140"/>
      <point x="370" y="1034.25"/>
      <point x="370" y="858" type="qcurve" smooth="yes"/>
    </contour>
    <contour>
      <point x="1325" y="186" type="qcurve"/>
      <point x="1325" y="845" type="line"/>
      <point x="1325" y="845"/>
      <point x="1325" y="845"/>
      <point x="1325" y="845" type="qcurve"/>
      <point x="2006" y="845" type="line"/>
      <point x="2006" y="276" type="line" smooth="yes"/>
      <point x="2006" y="231.479"/>
      <point x="1963.77" y="186"/>
      <point x="1920" y="186" type="qcurve" smooth="yes"/>
      <point x="1325" y="186" type="line"/>
      <point x="1325" y="186"/>
      <point x="1325" y="186"/>
    </contour>
  </outline>
</glyph>
<glyph name="B" format="2">
  <advance width="3454"/>
  <unicode hex="0042"/>
  <anchor x="1727" y="1550" name="top"/>
  <anchor x="1727" y="-150" name="bottom"/>
  <outline>
    <contour>
      <point x="400" y="0" type="line"/>
      <point x="2720" y="0" type="line" smooth="yes"/>
      <point x="2830" y="0"/>
      <point x="2987" y="39"/>
      <point x="3087" y="122"/>
      <point x="3134" y="251"/>
      <point x="3134" y="342" type="qcurve" smooth="yes"/>
      <point x="3134" y="382" type="line" smooth="yes"/>
      <point x="3134" y="454"/>
      <point x="3103" y="570"/>
      <point x="3040" y="655"/>
      <point x="2948" y="710"/>
      <point x="2886" y="722" type="qcurve"/>
      <point x="2941" y="737"/>
      <point x="3022" y="791"/>
      <point x="3076" y="868"/>
      <point x="3102" y="970"/>
      <point x="3102" y="1034" type="qcurve" smooth="yes"/>
      <point x="3102" y="1074" type="line" smooth="yes"/>
      <point x="3102" y="1160"/>
      <point x="3054" y="1283"/>
      <point x="2954" y="1363"/>
      <point x="2797" y="1400"/>
      <point x="2688" y="1400" type="qcurve" smooth="yes"/>
      <point x="400" y="1400" type="line"/>
    </contour>
    <contour>
      <point x="972" y="36" type="line"/>
      <point x="972" y="700" type="line"/>
      <point x="2329" y="700" type="line" smooth="yes"/>
      <point x="2443" y="700"/>
      <point x="2561" y="590"/>
      <point x="2561" y="500" type="qcurve" smooth="yes"/>
      <point x="2561" y="236" type="line" smooth="yes"/>
      <point x="2561" y="191"/>
      <point x="2531" y="117"/>
      <point x="2473" y="65"/>
      <point x="2386" y="36"/>
      <point x="2329" y="36" type="qcurve" smooth="yes"/>
    </contour>
    <contour>
      <point x="972" y="736" type="line"/>
      <point x="972" y="1364" type="line"/>
      <point x="2297" y="1364" type="line" smooth="yes"/>
      <point x="2354" y="1364"/>
      <point x="2441" y="1335"/>
      <point x="2499" y="1283"/>
      <point x="2529" y="1209"/>
      <point x="2529" y="1164" type="qcurve" smooth="yes"/>
      <point x="2529" y="936" type="line" smooth="yes"/>
      <point x="2529" y="891"/>
      <point x="2499" y="817"/>
      <point x="2441" y="765"/>
      <point x="2354" y="736"/>
      <point x="2297" y="736" type="qcurve" smooth="yes"/>
    </contour>
  </outline>
</glyph>
<glyph name="D" format="2">
  <advance width="3214"/>
  <unicode hex="0044"/>
  <anchor x="1446" y="1550" name="top"/>
  <anchor x="1446" y="-150" name="bottom"/>
  <outline>
    <contour>
      <point x="972" y="36" type="line"/>
      <point x="972" y="1364" type="line"/>
      <point x="1763" y="1364" type="line" smooth="yes"/>
      <point x="1920.12" y="1364"/>
      <point x="2145.34" y="1295.66"/>
      <point x="2289.91" y="1142.09"/>
      <point x="2358" y="894.875"/>
      <point x="2358" y="716" type="qcurve" smooth="yes"/>
      <point x="2358" y="534.125"/>
      <point x="2291.31" y="276.156"/>
      <point x="2147.69" y="112.094"/>
      <point x="1922" y="36"/>
      <point x="1763" y="36" type="qcurve" smooth="yes"/>
    </contour>
    <contour>
      <point x="400" y="0" type="line"/>
      <point x="1996" y="0" type="line" smooth="yes"/>
      <point x="2224" y="0"/>
      <point x="2574.12" y="77.5625"/>
      <point x="2811.88" y="245.938"/>
      <point x="2934" y="511.75"/>
      <point x="2934" y="700" type="qcurve" smooth="yes"/>
      <point x="2934" y="877"/>
      <point x="2826.5" y="1140"/>
      <point x="2598.5" y="1314"/>
      <point x="2243.5" y="1400"/>
      <point x="1996" y="1400" type="qcurve" smooth="yes"/>
      <point x="400" y="1400" type="line"/>
    </contour>
  </outline>
  <guideline angle="90" x="945290" y="0"/>
</glyph>
<glyph name="F" format="2">
  <advance width="2694"/>
  <unicode hex="0046"/>
  <outline>
    <contour>
      <point x="400" y="0" type="line"/>
      <point x="972" y="0" type="line"/>
      <point x="972" y="698" type="line"/>
      <point x="2030" y="698" type="line"/>
      <point x="2030" y="734" type="line"/>
      <point x="972" y="734" type="line"/>
      <point x="972" y="1364" type="line"/>
      <point x="2684" y="1364" type="line"/>
      <point x="2684" y="1400" type="line"/>
      <point x="400" y="1400" type="line"/>
    </contour>
  </outline>
</glyph>
<glyph name="I" format="2">
  <advance width="1372" height="1448"/>
  <unicode hex="0049"/>
  <anchor x="686" y="1550" name="top"/>
  <anchor x="686" y="-150" name="bottom"/>
  <anchor x="440" y="0" name="ogonek"/>
  <outline>
    <contour>
      <point x="400" y="0" type="line"/>
      <point x="400" y="1400" type="line"/>
      <point x="972" y="1400" type="line"/>
      <point x="972" y="0" type="line"/>
    </contour>
  </outline>
</glyph>
<glyph name="L" format="2">
  <advance width="2750"/>
  <unicode hex="004C"/>
  <anchor x="686" y="1550" name="top"/>
  <anchor x="1362" y="-150" name="bottom"/>
  <anchor x="300" y="700" name="left"/>
  <anchor x="1962" y="1400" name="right"/>
  <anchor x="2061" y="700" name="eldot"/>
  <outline>
    <contour>
      <point x="400" y="0" type="line"/>
      <point x="2740" y="0" type="line"/>
      <point x="2740" y="36" type="line"/>
      <point x="972" y="36" type="line"/>
      <point x="972" y="1400" type="line"/>
      <point x="400" y="1400" type="line"/>
    </contour>
  </outline>
</glyph>
<glyph name="Q" format="2">
  <advance width="3404"/>
  <unicode hex="0051"/>
  <anchor x="1702" y="1550" name="top"/>
  <anchor x="1702" y="-428" name="bottom"/>
  <outline>
    <contour>
      <point x="370" y="1066" type="qcurve" smooth="yes"/>
      <point x="370" y="346" type="line" smooth="yes"/>
      <point x="370" y="139"/>
      <point x="583" y="0"/>
      <point x="782" y="0" type="qcurve" smooth="yes"/>
      <point x="2620" y="0" type="line" smooth="yes"/>
      <point x="2819" y="0"/>
      <point x="3034" y="138"/>
      <point x="3034" y="346" type="qcurve" smooth="yes"/>
      <point x="3034" y="1066" type="line" smooth="yes"/>
      <point x="3034" y="1267"/>
      <point x="2809" y="1400"/>
      <point x="2620" y="1400" type="qcurve" smooth="yes"/>
      <point x="782" y="1400" type="line" smooth="yes"/>
      <point x="593" y="1400"/>
      <point x="370" y="1267"/>
    </contour>
    <contour>
      <point x="942" y="1364" type="line"/>
      <point x="942" y="1364"/>
      <point x="942" y="1364"/>
      <point x="942" y="1364" type="qcurve"/>
      <point x="2462" y="1364" type="line"/>
      <point x="2462" y="1364"/>
      <point x="2462" y="1364"/>
      <point x="2462" y="1364" type="qcurve"/>
      <point x="2462" y="36" type="line"/>
      <point x="2462" y="36"/>
      <point x="2462" y="36"/>
      <point x="2462" y="36" type="qcurve"/>
      <point x="942" y="36" type="line"/>
      <point x="942" y="36"/>
      <point x="942" y="36"/>
      <point x="942" y="36" type="qcurve"/>
    </contour>
    <contour>
      <point x="2022" y="-282" type="line"/>
      <point x="2530" y="-282" type="line"/>
      <point x="1893" y="689" type="line"/>
      <point x="1560" y="494" type="line"/>
    </contour>
  </outline>
</glyph>
<glyph name="V" format="2">
  <advance width="2636"/>
  <unicode hex="0056"/>
  <anchor x="1443" y="1550" name="top"/>
  <anchor x="1343" y="-150" name="bottom"/>
  <outline>
    <contour>
      <point x="1200" y="0" type="line"/>
      <point x="1486" y="0" type="line"/>
      <point x="2630" y="1400" type="line"/>
      <point x="2582" y="1400" type="line"/>
      <point x="1672" y="284" type="line"/>
      <point x="744" y="1400" type="line"/>
      <point x="6" y="1400" type="line"/>
    </contour>
  </outline>
</glyph>
<glyph name="X" format="2">
  <advance width="2814"/>
  <unicode hex="0058"/>
  <anchor x="1407" y="1550" name="top"/>
  <anchor x="1407" y="-150" name="bottom"/>
  <outline>
    <contour>
      <point x="92" y="0" type="line"/>
      <point x="163" y="0" type="line"/>
      <point x="1165" y="582" type="line"/>
      <point x="1947" y="0" type="line"/>
      <point x="2808" y="0" type="line"/>
      <point x="1624" y="841" type="line"/>
      <point x="2551" y="1400" type="line"/>
      <point x="2482" y="1400" type="line"/>
      <point x="1591" y="863" type="line"/>
      <point x="862" y="1400" type="line"/>
      <point x="6" y="1400" type="line"/>
      <point x="1132" y="604" type="line"/>
    </contour>
  </outline>
</glyph>
<glyph name="Z" format="2">
  <advance width="2576"/>
  <unicode hex="005A"/>
  <anchor x="1348" y="1550" name="top"/>
  <anchor x="1281" y="-150" name="bottom"/>
  <outline>
    <contour>
      <point x="60" y="0" type="line"/>
      <point x="2501" y="0" type="line"/>
      <point x="2501" y="36" type="line"/>
      <point x="918" y="36" type="line"/>
      <point x="921" y="28" type="line"/>
      <point x="2489" y="1382" type="line"/>
      <point x="2489" y="1400" type="line"/>
      <point x="154" y="1400" type="line"/>
      <point x="152" y="1364" type="line"/>
      <point x="1631" y="1364" type="line"/>
      <point x="1628" y="1372" type="line"/>
      <point x="60" y="18" type="line"/>
    </contour>
  </outline>
</glyph>
<glyph name="bracketright" format="2">
  <advance width="1492"/>
  <unicode hex="005D"/>
  <outline>
    <contour>
      <point x="1292" y="1448" type="line"/>
      <point x="400" y="1448" type="line"/>
      <point x="400" y="1416" type="line"/>
      <point x="852" y="1416" type="line"/>
      <point x="852" y="-224" type="line"/>
      <point x="400" y="-224" type="line"/>
      <point x="400" y="-256" type="line"/>
      <point x="1292" y="-256" type="line"/>
    </contour>
  </outline>
</glyph>
<glyph name="underscore" format="2">
  <advance width="1060"/>
  <unicode hex="005F"/>
  <outline>
    <contour>
      <point x="0" y="-225" type="line"/>
      <point x="1060" y="-225" type="line"/>
      <point x="1060" y="-189" type="line"/>
      <point x="0" y="-189" type="line"/>
    </contour>
  </outline>
</glyph>
<glyph name="a" format="2">
  <advance width="2494"/>
  <unicode hex="0061"/>
  <anchor x="1243" y="1174" name="top"/>
  <anchor x="1236" y="-150" name="bottom"/>
  <anchor x="1700" y="0" name="ogonek"/>
  <outline>
    <contour>
      <point x="582" y="0" type="qcurve" smooth="yes"/>
      <point x="1586" y="0" type="line" smooth="yes"/>
      <point x="1613" y="0"/>
      <point x="1651" y="14"/>
      <point x="1662" y="28" type="qcurve"/>
      <point x="1662" y="0" type="line"/>
      <point x="2186" y="0" type="line"/>
      <point x="2186" y="754" type="line" smooth="yes"/>
      <point x="2186" y="923"/>
      <point x="2023" y="1030"/>
      <point x="1890" y="1030" type="qcurve" smooth="yes"/>
      <point x="616" y="1030" type="line" smooth="yes"/>
      <point x="483" y="1030"/>
      <point x="320" y="923"/>
      <point x="320" y="758" type="qcurve" smooth="yes"/>
      <point x="320" y="756" type="line"/>
      <point x="844" y="661" type="line"/>
      <point x="844" y="998" type="line"/>
      <point x="844" y="998"/>
      <point x="844" y="998"/>
      <point x="844" y="998" type="qcurve"/>
      <point x="1662" y="998" type="line"/>
      <point x="1662" y="998"/>
      <point x="1662" y="998"/>
      <point x="1662" y="998" type="qcurve"/>
      <point x="1662" y="566" type="line"/>
      <point x="582" y="566" type="line" smooth="yes"/>
      <point x="459" y="566"/>
      <point x="286" y="468"/>
      <point x="286" y="322" type="qcurve" smooth="yes"/>
      <point x="286" y="254" type="line" smooth="yes"/>
      <point x="286" y="105"/>
      <point x="458" y="0"/>
    </contour>
    <contour>
      <point x="820" y="32" type="qcurve"/>
      <point x="820" y="534" type="line"/>
      <point x="820" y="534"/>
      <point x="820" y="534"/>
      <point x="820" y="534" type="qcurve"/>
      <point x="1662" y="534" type="line"/>
      <point x="1662" y="32" type="line"/>
      <point x="820" y="32" type="line"/>
      <point x="820" y="32"/>
      <point x="820" y="32"/>
    </contour>
  </outline>
  <guideline angle="90" color="1,0,0,1" x="1682" y="0"/>
</glyph>
<glyph name="b" format="2">
  <advance width="2636"/>
  <unicode hex="0062"/>
  <anchor x="1330" y="1598" name="top"/>
  <anchor x="1330" y="-150" name="bottom"/>
  <outline>
    <contour>
      <point x="320" y="0" type="line"/>
      <point x="844" y="0" type="line"/>
      <point x="844" y="28" type="line"/>
      <point x="855" y="14"/>
      <point x="893" y="0"/>
      <point x="920" y="0" type="qcurve" smooth="yes"/>
      <point x="2034" y="0" type="line" smooth="yes"/>
      <point x="2177" y="0"/>
      <point x="2340" y="109"/>
      <point x="2340" y="264" type="qcurve" smooth="yes"/>
      <point x="2340" y="770" type="line" smooth="yes"/>
      <point x="2340" y="922"/>
      <point x="2171" y="1024"/>
      <point x="2034" y="1024" type="qcurve" smooth="yes"/>
      <point x="920" y="1024" type="line" smooth="yes"/>
      <point x="888" y="1024"/>
      <point x="850" y="1012"/>
      <point x="844" y="1000" type="qcurve"/>
      <point x="844" y="1472" type="line"/>
      <point x="320" y="1472" type="line"/>
    </contour>
    <contour>
      <point x="844" y="32" type="line"/>
      <point x="844" y="992" type="line"/>
      <point x="1816" y="992" type="line"/>
      <point x="1816" y="992"/>
      <point x="1816" y="992"/>
      <point x="1816" y="992" type="qcurve"/>
      <point x="1816" y="32" type="line"/>
      <point x="1816" y="32"/>
      <point x="1816" y="32"/>
      <point x="1816" y="32" type="qcurve"/>
    </contour>
  </outline>
  <guideline angle="0" x="0" y="988"/>
  <guideline angle="0" x="0" y="36"/>
</glyph>
<glyph name="c" format="2">
  <advance width="2428"/>
  <unicode hex="0063"/>
  <anchor x="1252" y="1174" name="top"/>
  <anchor x="1252" y="-150" name="bottom"/>
  <outline>
    <contour>
      <point x="296" y="270" type="line" smooth="yes"/>
      <point x="296" y="124"/>
      <point x="442" y="0"/>
      <point x="620" y="0" type="qcurve" smooth="yes"/>
      <point x="1882" y="0" type="line" smooth="yes"/>
      <point x="2060" y="0"/>
      <point x="2206" y="124"/>
      <point x="2206" y="270" type="qcurve" smooth="yes"/>
      <point x="2206" y="366" type="line"/>
      <point x="1682" y="474" type="line"/>
      <point x="1682" y="32" type="line"/>
      <point x="1682" y="32"/>
      <point x="1682" y="32"/>
      <point x="1682" y="32" type="qcurve"/>
      <point x="820" y="32" type="line"/>
      <point x="820" y="32"/>
      <point x="820" y="32"/>
      <point x="820" y="32" type="qcurve"/>
      <point x="820" y="992" type="line"/>
      <point x="820" y="992"/>
      <point x="820" y="992"/>
      <point x="820" y="992" type="qcurve"/>
      <point x="1678" y="992" type="line"/>
      <point x="1678" y="992"/>
      <point x="1678" y="992"/>
      <point x="1678" y="992" type="qcurve"/>
      <point x="1678" y="552" type="line"/>
      <point x="2202" y="650" type="line"/>
      <point x="2202" y="768" type="line" smooth="yes"/>
      <point x="2202" y="907"/>
      <point x="2055" y="1024"/>
      <point x="1880" y="1024" type="qcurve" smooth="yes"/>
      <point x="622" y="1024" type="line" smooth="yes"/>
      <point x="447" y="1024"/>
      <point x="296" y="904"/>
      <point x="296" y="764" type="qcurve" smooth="yes"/>
    </contour>
  </outline>
</glyph>
<glyph name="d" format="2">
  <advance width="2636"/>
  <unicode hex="0064"/>
  <anchor x="1306" y="1598" name="top"/>
  <anchor x="1306" y="-150" name="bottom"/>
  <anchor x="2316" y="1472" name="right"/>
  <outline>
    <contour>
      <point x="296" y="264" type="line" smooth="yes"/>
      <point x="296" y="125"/>
      <point x="441" y="0"/>
      <point x="602" y="0" type="qcurve" smooth="yes"/>
      <point x="1716" y="0" type="line" smooth="yes"/>
      <point x="1743" y="0"/>
      <point x="1781" y="14"/>
      <point x="1792" y="28" type="qcurve"/>
      <point x="1792" y="0" type="line"/>
      <point x="2316" y="0" type="line"/>
      <point x="2316" y="1472" type="line"/>
      <point x="1792" y="1472" type="line"/>
      <point x="1792" y="1000" type="line"/>
      <point x="1786" y="1012"/>
      <point x="1748" y="1024"/>
      <point x="1716" y="1024" type="qcurve" smooth="yes"/>
      <point x="602" y="1024" type="line" smooth="yes"/>
      <point x="442" y="1024"/>
      <point x="296" y="901"/>
      <point x="296" y="770" type="qcurve" smooth="yes"/>
    </contour>
    <contour>
      <point x="1792" y="992" type="line"/>
      <point x="1792" y="32" type="line"/>
      <point x="820" y="32" type="line"/>
      <point x="820" y="32"/>
      <point x="820" y="32"/>
      <point x="820" y="32" type="qcurve"/>
      <point x="820" y="992" type="line"/>
      <point x="820" y="992"/>
      <point x="820" y="992"/>
      <point x="820" y="992" type="qcurve"/>
    </contour>
  </outline>
</glyph>
<glyph name="g" format="2">
  <advance width="2624"/>
  <unicode hex="0067"/>
  <anchor x="1312" y="1174" name="top"/>
  <anchor x="1312" y="-554" name="bottom"/>
  <outline>
    <contour>
      <point x="820" y="32" type="qcurve"/>
      <point x="820" y="992" type="line"/>
      <point x="820" y="992"/>
      <point x="820" y="992"/>
      <point x="820" y="992" type="qcurve"/>
      <point x="1792" y="992" type="line"/>
      <point x="1792" y="32" type="line"/>
      <point x="820" y="32" type="line"/>
      <point x="820" y="32"/>
      <point x="820" y="32"/>
    </contour>
    <contour>
      <point x="456" y="-404" type="line"/>
      <point x="2056" y="-404" type="line" smooth="yes"/>
      <point x="2114.5" y="-404"/>
      <point x="2210.38" y="-357.25"/>
      <point x="2278.62" y="-271.75"/>
      <point x="2316" y="-151.5"/>
      <point x="2316" y="-78" type="qcurve" smooth="yes"/>
      <point x="2316" y="1024" type="line"/>
      <point x="1792" y="1024" type="line"/>
      <point x="1792" y="1000" type="line"/>
      <point x="1785.96" y="1012.07"/>
      <point x="1747.69" y="1024"/>
      <point x="1716" y="1024" type="qcurve" smooth="yes"/>
      <point x="602" y="1024" type="line" smooth="yes"/>
      <point x="442.025" y="1024"/>
      <point x="296" y="901.3"/>
      <point x="296" y="770" type="qcurve" smooth="yes"/>
      <point x="296" y="264" type="line" smooth="yes"/>
      <point x="296" y="125.154"/>
      <point x="440.516" y="0"/>
      <point x="602" y="0" type="qcurve" smooth="yes"/>
      <point x="1716" y="0" type="line" smooth="yes"/>
      <point x="1743.17" y="0"/>
      <point x="1781.44" y="14.4172"/>
      <point x="1792" y="28" type="qcurve"/>
      <point x="1792" y="-372" type="line"/>
      <point x="1792" y="-372"/>
      <point x="1792" y="-372"/>
      <point x="1792" y="-372" type="qcurve"/>
      <point x="446" y="-372" type="line"/>
    </contour>
  </outline>
  <guideline angle="0" x="0" y="988"/>
  <guideline angle="0" x="0" y="36"/>
</glyph>
<glyph name="j" format="2">
  <advance width="1164"/>
  <unicode hex="006A"/>
  <anchor x="596" y="1174" name="top"/>
  <outline>
    <contour>
      <point x="-658" y="-396" type="line"/>
      <point x="-648" y="-428" type="line"/>
      <point x="598" y="-428" type="line" smooth="yes"/>
      <point x="657" y="-428"/>
      <point x="752" y="-381"/>
      <point x="821" y="-296"/>
      <point x="858" y="-176"/>
      <point x="858" y="-102" type="qcurve" smooth="yes"/>
      <point x="858" y="1024" type="line"/>
      <point x="334" y="1024" type="line"/>
      <point x="334" y="-396" type="line"/>
      <point x="334" y="-396"/>
      <point x="334" y="-396"/>
      <point x="334" y="-396" type="qcurve"/>
    </contour>
    <contour>
      <point x="320" y="1232" type="line" smooth="yes"/>
      <point x="320" y="1151"/>
      <point x="349" y="1122"/>
      <point x="430" y="1122" type="qcurve" smooth="yes"/>
      <point x="762" y="1122" type="line" smooth="yes"/>
      <point x="843" y="1122"/>
      <point x="872" y="1151"/>
      <point x="872" y="1232" type="qcurve" smooth="yes"/>
      <point x="872" y="1364" type="line" smooth="yes"/>
      <point x="872" y="1444"/>
      <point x="843" y="1472"/>
      <point x="762" y="1472" type="qcurve" smooth="yes"/>
      <point x="430" y="1472" type="line" smooth="yes"/>
      <point x="349" y="1472"/>
      <point x="320" y="1444"/>
      <point x="320" y="1364" type="qcurve" smooth="yes"/>
    </contour>
  </outline>
</glyph>
<glyph name="m" format="2">
  <advance width="3408" height="1448"/>
  <unicode hex="006D"/>
  <anchor x="1704" y="1174" name="top"/>
  <anchor x="1704" y="-150" name="bottom"/>
  <anchor x="220" y="512" name="left"/>
  <outline>
    <contour>
      <point x="320" y="0" type="line"/>
      <point x="844" y="0" type="line"/>
      <point x="844" y="992" type="line"/>
      <point x="1448" y="992" type="line"/>
      <point x="1448" y="0" type="line"/>
      <point x="1972" y="0" type="line"/>
      <point x="1972" y="992" type="line"/>
      <point x="2576" y="992" type="line"/>
      <point x="2576" y="992"/>
      <point x="2576" y="992"/>
      <point x="2576" y="992" type="qcurve"/>
      <point x="2576" y="0" type="line"/>
      <point x="3100" y="0" type="line"/>
      <point x="3100" y="724" type="line" smooth="yes"/>
      <point x="3100" y="801"/>
      <point x="3059" y="914"/>
      <point x="2970" y="988"/>
      <point x="2832" y="1024"/>
      <point x="2734" y="1024" type="qcurve" smooth="yes"/>
      <point x="1964" y="1024" type="line" smooth="yes"/>
      <point x="1951" y="1024"/>
      <point x="1928" y="1020"/>
      <point x="1909" y="1013"/>
      <point x="1894" y="1003"/>
      <point x="1889" y="997" type="qcurve"/>
      <point x="1869" y="1004"/>
      <point x="1824" y="1014"/>
      <point x="1775" y="1021"/>
      <point x="1720" y="1024"/>
      <point x="1690" y="1024" type="qcurve" smooth="yes"/>
      <point x="920" y="1024" type="line" smooth="yes"/>
      <point x="893" y="1024"/>
      <point x="855" y="1010"/>
      <point x="844" y="996" type="qcurve"/>
      <point x="844" y="1024" type="line"/>
      <point x="320" y="1024" type="line"/>
    </contour>
  </outline>
</glyph>
<glyph name="o" format="2">
  <advance width="2528" height="1448"/>
  <unicode hex="006F"/>
  <anchor x="1264" y="1174" name="top"/>
  <anchor x="1264" y="-150" name="bottom"/>
  <anchor x="2232" y="770" name="horn"/>
  <anchor x="1283" y="0" name="ogonek"/>
  <outline>
    <contour>
      <point x="296" y="264" type="line"/>
      <point x="296" y="770" type="line" smooth="yes"/>
      <point x="296" y="835"/>
      <point x="332" y="931"/>
      <point x="407" y="994"/>
      <point x="523" y="1024"/>
      <point x="602" y="1024" type="qcurve" smooth="yes"/>
      <point x="1926" y="1024" type="line" smooth="yes"/>
      <point x="2085" y="1024"/>
      <point x="2232" y="901"/>
      <point x="2232" y="770" type="qcurve" smooth="yes"/>
      <point x="2232" y="264" type="line" smooth="yes"/>
      <point x="2232" y="195"/>
      <point x="2197" y="95"/>
      <point x="2123" y="31"/>
      <point x="2007" y="0"/>
      <point x="1926" y="0" type="qcurve" smooth="yes"/>
      <point x="602" y="0" type="line" smooth="yes"/>
      <point x="522" y="0"/>
      <point x="406" y="31"/>
      <point x="331" y="95"/>
      <point x="296" y="195"/>
      <point x="296" y="264" type="qcurve"/>
    </contour>
    <contour>
      <point x="820" y="32" type="line"/>
      <point x="820" y="32"/>
      <point x="820" y="32"/>
      <point x="820" y="32" type="qcurve"/>
      <point x="1708" y="32" type="line"/>
      <point x="1708" y="32"/>
      <point x="1708" y="32"/>
      <point x="1708" y="32" type="qcurve"/>
      <point x="1708" y="992" type="line"/>
      <point x="1708" y="992"/>
      <point x="1708" y="992"/>
      <point x="1708" y="992" type="qcurve"/>
      <point x="820" y="992" type="line"/>
      <point x="820" y="992"/>
      <point x="820" y="992"/>
      <point x="820" y="992" type="qcurve"/>
    </contour>
  </outline>
</glyph>
<glyph name="q" format="2">
  <advance width="2636"/>
  <unicode hex="0071"/>
  <anchor x="1306" y="1598" name="top"/>
  <anchor x="1306" y="-150" name="bottom"/>
  <outline>
    <contour>
      <point x="296" y="264" type="line" smooth="yes"/>
      <point x="296" y="125.154"/>
      <point x="440.516" y="0"/>
      <point x="602" y="0" type="qcurve" smooth="yes"/>
      <point x="1716" y="0" type="line" smooth="yes"/>
      <point x="1743.17" y="0"/>
      <point x="1781.44" y="14.4172"/>
      <point x="1792" y="28" type="qcurve"/>
      <point x="1792" y="-428" type="line"/>
      <point x="2316" y="-428" type="line"/>
      <point x="2316" y="1024" type="line"/>
      <point x="1792" y="1024" type="line"/>
      <point x="1792" y="1000" type="line"/>
      <point x="1785.96" y="1012.07"/>
      <point x="1747.69" y="1024"/>
      <point x="1716" y="1024" type="qcurve" smooth="yes"/>
      <point x="602" y="1024" type="line" smooth="yes"/>
      <point x="442.025" y="1024"/>
      <point x="296" y="901.3"/>
      <point x="296" y="770" type="qcurve" smooth="yes"/>
    </contour>
    <contour>
      <point x="820" y="32" type="qcurve"/>
      <point x="820" y="992" type="line"/>
      <point x="820" y="992"/>
      <point x="820" y="992"/>
      <point x="820" y="992" type="qcurve"/>
      <point x="1792" y="992" type="line"/>
      <point x="1792" y="32" type="line"/>
      <point x="820" y="32" type="line"/>
      <point x="820" y="32"/>
      <point x="820" y="32"/>
    </contour>
  </outline>
  <guideline angle="0" x="0" y="988"/>
  <guideline angle="0" x="0" y="36"/>
</glyph>
<glyph name="u" format="2">
  <advance width="2459"/>
  <unicode hex="0075"/>
  <anchor x="1230" y="1174" name="top"/>
  <anchor x="1230" y="-150" name="bottom"/>
  <anchor x="1249" y="0" name="ogonek"/>
  <anchor x="2151" y="1024" name="horn"/>
  <outline>
    <contour>
      <point x="308" y="204" type="line" smooth="yes"/>
      <point x="308" y="77.2272"/>
      <point x="437.301" y="0"/>
      <point x="552" y="0" type="qcurve" smooth="yes"/>
      <point x="1905" y="0" type="line" smooth="yes"/>
      <point x="2019.7" y="0"/>
      <point x="2151" y="77.2272"/>
      <point x="2151" y="204" type="qcurve" smooth="yes"/>
      <point x="2151" y="1024" type="line"/>
      <point x="1627" y="1024" type="line"/>
      <point x="1627" y="32" type="line"/>
      <point x="1627" y="32"/>
      <point x="1627" y="32"/>
      <point x="1627" y="32" type="qcurve"/>
      <point x="832" y="32" type="line"/>
      <point x="832" y="32"/>
      <point x="832" y="32"/>
      <point x="832" y="32" type="qcurve"/>
      <point x="832" y="1024" type="line"/>
      <point x="308" y="1024" type="line"/>
    </contour>
  </outline>
</glyph>
<glyph name="w" format="2">
  <advance width="2849"/>
  <unicode hex="0077"/>
  <anchor x="1711" y="1174" name="top"/>
  <anchor x="1432" y="-150" name="bottom"/>
  <outline>
    <contour>
      <point x="611" y="0" type="line"/>
      <point x="971" y="0" type="line"/>
      <point x="1442" y="819" type="line"/>
      <point x="1892" y="0" type="line"/>
      <point x="2252" y="0" type="line"/>
      <point x="2849" y="1024" type="line"/>
      <point x="2809" y="1024" type="line"/>
      <point x="2342" y="218" type="line"/>
      <point x="1899" y="1024" type="line"/>
      <point x="1525" y="1024" type="line"/>
      <point x="1059" y="217" type="line"/>
      <point x="590" y="1024" type="line"/>
      <point x="0" y="1024" type="line"/>
    </contour>
  </outline>
</glyph>
<glyph name="braceleft" format="2">
  <advance width="1250"/>
  <unicode hex="007B"/>
  <outline>
    <contour>
      <point x="409" y="18" type="line" smooth="yes"/>
      <point x="409" y="-110.282"/>
      <point x="571.172" y="-256"/>
      <point x="707" y="-256" type="qcurve" smooth="yes"/>
      <point x="1240" y="-256" type="line"/>
      <point x="1240" y="-224" type="line"/>
      <point x="971" y="-224" type="line" smooth="yes"/>
      <point x="905.35" y="-224"/>
      <point x="849" y="-170.104"/>
      <point x="849" y="-112" type="qcurve" smooth="yes"/>
      <point x="849" y="317" type="line" smooth="yes"/>
      <point x="849" y="428.681"/>
      <point x="745.589" y="569.834"/>
      <point x="649" y="597" type="qcurve"/>
      <point x="745.589" y="624.166"/>
      <point x="849" y="765.319"/>
      <point x="849" y="877" type="qcurve" smooth="yes"/>
      <point x="849" y="1304" type="line" smooth="yes"/>
      <point x="849" y="1362.1"/>
      <point x="905.35" y="1416"/>
      <point x="971" y="1416" type="qcurve" smooth="yes"/>
      <point x="1240" y="1416" type="line"/>
      <point x="1240" y="1448" type="line"/>
      <point x="707" y="1448" type="line" smooth="yes"/>
      <point x="571.172" y="1448"/>
      <point x="409" y="1299.83"/>
      <point x="409" y="1164" type="qcurve" smooth="yes"/>
      <point x="409" y="791" type="line" smooth="yes"/>
      <point x="409" y="709.503"/>
      <point x="308.791" y="613"/>
      <point x="179" y="613" type="qcurve"/>
      <point x="179" y="581" type="line"/>
      <point x="308.791" y="581"/>
      <point x="409" y="485.251"/>
      <point x="409" y="403" type="qcurve" smooth="yes"/>
    </contour>
  </outline>
</glyph>
<glyph name="bar" format="2">
  <advance width="1200"/>
  <unicode hex="007C"/>
  <outline>
    <contour>
      <point x="400" y="1520" type="line"/>
      <point x="400" y="-480" type="line"/>
      <point x="800" y="-480" type="line"/>
      <point x="800" y="1520" type="line"/>
    </contour>
  </outline>
</glyph>
<glyph name="braceright" format="2">
  <advance width="1250"/>
  <unicode hex="007D"/>
  <outline>
    <contour>
      <point x="1010" y="1174" type="line" smooth="yes"/>
      <point x="1010" y="1302.28"/>
      <point x="847.828" y="1448"/>
      <point x="712" y="1448" type="qcurve" smooth="yes"/>
      <point x="179" y="1448" type="line"/>
      <point x="179" y="1416" type="line"/>
      <point x="448" y="1416" type="line" smooth="yes"/>
      <point x="513.65" y="1416"/>
      <point x="570" y="1362.1"/>
      <point x="570" y="1304" type="qcurve" smooth="yes"/>
      <point x="570" y="875" type="line" smooth="yes"/>
      <point x="570" y="763.319"/>
      <point x="673.411" y="622.166"/>
      <point x="770" y="595" type="qcurve"/>
      <point x="673.411" y="567.834"/>
      <point x="570" y="426.681"/>
      <point x="570" y="315" type="qcurve" smooth="yes"/>
      <point x="570" y="-112" type="line" smooth="yes"/>
      <point x="570" y="-170.104"/>
      <point x="513.65" y="-224"/>
      <point x="448" y="-224" type="qcurve" smooth="yes"/>
      <point x="179" y="-224" type="line"/>
      <point x="179" y="-256" type="line"/>
      <point x="712" y="-256" type="line" smooth="yes"/>
      <point x="847.828" y="-256"/>
      <point x="1010" y="-107.828"/>
      <point x="1010" y="28" type="qcurve" smooth="yes"/>
      <point x="1010" y="401" type="line" smooth="yes"/>
      <point x="1010" y="482.497"/>
      <point x="1110.21" y="579"/>
      <point x="1240" y="579" type="qcurve"/>
      <point x="1240" y="611" type="line"/>
      <point x="1110.21" y="611"/>
      <point x="1010" y="706.749"/>
      <point x="1010" y="789" type="qcurve" smooth="yes"/>
    </contour>
  </outline>
</glyph>
<glyph name="asciitilde" format="2">
  <advance width="2086"/>
  <unicode hex="007E"/>
  <outline>
    <contour>
      <point x="356" y="373" type="qcurve"/>
      <point x="391" y="367" type="line"/>
      <point x="397" y="403"/>
      <point x="421" y="482"/>
      <point x="466" y="547"/>
      <point x="538" y="590"/>
      <point x="593" y="590" type="qcurve" smooth="yes"/>
      <point x="668" y="590"/>
      <point x="852" y="513"/>
      <point x="1050" y="422"/>
      <point x="1253" y="345"/>
      <point x="1348" y="345" type="qcurve" smooth="yes"/>
      <point x="1467" y="345"/>
      <point x="1606" y="432"/>
      <point x="1683" y="566"/>
      <point x="1717" y="727"/>
      <point x="1730" y="802" type="qcurve"/>
      <point x="1695" y="808" type="line"/>
      <point x="1689" y="772"/>
      <point x="1665" y="693"/>
      <point x="1619" y="628"/>
      <point x="1547" y="585"/>
      <point x="1492" y="585" type="qcurve" smooth="yes"/>
      <point x="1417" y="585"/>
      <point x="1234" y="662"/>
      <point x="1036" y="753"/>
      <point x="833" y="830"/>
      <point x="738" y="830" type="qcurve" smooth="yes"/>
      <point x="619" y="830"/>
      <point x="480" y="743"/>
      <point x="403" y="609"/>
      <point x="370" y="448"/>
    </contour>
  </outline>
</glyph>
<glyph name="cent" format="2">
  <advance width="2428"/>
  <unicode hex="00A2"/>
  <outline>
    <contour>
      <point x="1079" y="-100" type="line"/>
      <point x="1421" y="-100" type="line"/>
      <point x="1421" y="150" type="line"/>
      <point x="1882" y="150" type="line" smooth="yes"/>
      <point x="2060" y="150"/>
      <point x="2206" y="274"/>
      <point x="2206" y="420" type="qcurve" smooth="yes"/>
      <point x="2206" y="516" type="line"/>
      <point x="1682" y="624" type="line"/>
      <point x="1682" y="182" type="line"/>
      <point x="1682" y="182"/>
      <point x="1682" y="182"/>
      <point x="1682" y="182" type="qcurve"/>
      <point x="1421" y="182" type="line"/>
      <point x="1421" y="1142" type="line"/>
      <point x="1678" y="1142" type="line"/>
      <point x="1678" y="1142"/>
      <point x="1678" y="1142"/>
      <point x="1678" y="1142" type="qcurve"/>
      <point x="1678" y="702" type="line"/>
      <point x="2202" y="800" type="line"/>
      <point x="2202" y="918" type="line" smooth="yes"/>
      <point x="2202" y="1057"/>
      <point x="2055" y="1174"/>
      <point x="1880" y="1174" type="qcurve" smooth="yes"/>
      <point x="1421" y="1174" type="line"/>
      <point x="1421" y="1400" type="line"/>
      <point x="1079" y="1400" type="line"/>
      <point x="1079" y="1174" type="line"/>
      <point x="622" y="1174" type="line" smooth="yes"/>
      <point x="447" y="1174"/>
      <point x="296" y="1054"/>
      <point x="296" y="914" type="qcurve" smooth="yes"/>
      <point x="296" y="420" type="line" smooth="yes"/>
      <point x="296" y="274"/>
      <point x="442" y="150"/>
      <point x="620" y="150" type="qcurve" smooth="yes"/>
      <point x="1079" y="150" type="line"/>
    </contour>
    <contour>
      <point x="1079" y="1142" type="line"/>
      <point x="1079" y="182" type="line"/>
      <point x="820" y="182" type="line"/>
      <point x="820" y="182"/>
      <point x="820" y="182"/>
      <point x="820" y="182" type="qcurve"/>
      <point x="820" y="1142" type="line"/>
      <point x="820" y="1142"/>
      <point x="820" y="1142"/>
      <point x="820" y="1142" type="qcurve"/>
    </contour>
  </outline>
</glyph>
<glyph name="sterling" format="2">
  <advance width="2944"/>
  <unicode hex="00A3"/>
  <outline>
    <contour>
      <point x="25" y="0" type="line"/>
      <point x="2210" y="0" type="line" smooth="yes"/>
      <point x="2409" y="0"/>
      <point x="2624" y="138"/>
      <point x="2624" y="346" type="qcurve" smooth="yes"/>
      <point x="2624" y="388" type="line"/>
      <point x="2052" y="500" type="line"/>
      <point x="2052" y="136" type="line" smooth="yes"/>
      <point x="2052" y="83"/>
      <point x="2005" y="36"/>
      <point x="1952" y="36" type="qcurve" smooth="yes"/>
      <point x="816" y="36" type="line"/>
      <point x="896" y="68"/>
      <point x="984" y="209"/>
      <point x="984" y="334" type="qcurve" smooth="yes"/>
      <point x="984" y="630" type="line"/>
      <point x="1595" y="630" type="line"/>
      <point x="1605" y="666" type="line"/>
      <point x="984" y="666" type="line"/>
      <point x="984" y="1278" type="line" smooth="yes"/>
      <point x="984" y="1331"/>
      <point x="1031" y="1378"/>
      <point x="1084" y="1378" type="qcurve" smooth="yes"/>
      <point x="1946" y="1378" type="line" smooth="yes"/>
      <point x="1999" y="1378"/>
      <point x="2046" y="1331"/>
      <point x="2046" y="1278" type="qcurve" smooth="yes"/>
      <point x="2046" y="846" type="line"/>
      <point x="2618" y="952" type="line"/>
      <point x="2618" y="1080" type="line" smooth="yes"/>
      <point x="2618" y="1281"/>
      <point x="2393" y="1414"/>
      <point x="2204" y="1414" type="qcurve" smooth="yes"/>
      <point x="824" y="1414" type="line" smooth="yes"/>
      <point x="635" y="1414"/>
      <point x="412" y="1281"/>
      <point x="412" y="1080" type="qcurve" smooth="yes"/>
      <point x="412" y="666" type="line"/>
      <point x="196" y="666" type="line"/>
      <point x="196" y="630" type="line"/>
      <point x="412" y="630" type="line"/>
      <point x="412" y="136" type="line" smooth="yes"/>
      <point x="412" y="83"/>
      <point x="365" y="36"/>
      <point x="312" y="36" type="qcurve" smooth="yes"/>
      <point x="25" y="36" type="line"/>
    </contour>
  </outline>
  <guideline angle="90" x="782" y="0"/>
</glyph>
<glyph name="currency" format="2">
  <advance width="2894"/>
  <unicode hex="00A4"/>
  <outline>
    <contour>
      <point x="218" y="67" type="line"/>
      <point x="434" y="230" type="line"/>
      <point x="471" y="209"/>
      <point x="572" y="188"/>
      <point x="638" y="188" type="qcurve" smooth="yes"/>
      <point x="2262" y="188" type="line" smooth="yes"/>
      <point x="2327" y="188"/>
      <point x="2427" y="208"/>
      <point x="2463" y="228" type="qcurve"/>
      <point x="2676" y="67" type="line"/>
      <point x="2698" y="94" type="line"/>
      <point x="2493" y="249" type="line"/>
      <point x="2532" y="281"/>
      <point x="2568" y="381"/>
      <point x="2568" y="452" type="qcurve" smooth="yes"/>
      <point x="2568" y="958" type="line" smooth="yes"/>
      <point x="2568" y="1024"/>
      <point x="2531" y="1120"/>
      <point x="2493" y="1151" type="qcurve"/>
      <point x="2698" y="1305" type="line"/>
      <point x="2676" y="1333" type="line"/>
      <point x="2462" y="1172" type="line"/>
      <point x="2426" y="1192"/>
      <point x="2326" y="1212"/>
      <point x="2262" y="1212" type="qcurve" smooth="yes"/>
      <point x="638" y="1212" type="line" smooth="yes"/>
      <point x="572" y="1212"/>
      <point x="471" y="1191"/>
      <point x="434" y="1170" type="qcurve"/>
      <point x="218" y="1333" type="line"/>
      <point x="196" y="1305" type="line"/>
      <point x="404" y="1149" type="line"/>
      <point x="367" y="1117"/>
      <point x="332" y="1023"/>
      <point x="332" y="958" type="qcurve" smooth="yes"/>
      <point x="332" y="452" type="line" smooth="yes"/>
      <point x="332" y="383"/>
      <point x="367" y="283"/>
      <point x="404" y="251" type="qcurve"/>
      <point x="196" y="94" type="line"/>
    </contour>
    <contour>
      <point x="856" y="220" type="line"/>
      <point x="856" y="220"/>
      <point x="856" y="220"/>
      <point x="856" y="220" type="qcurve"/>
      <point x="856" y="1180" type="line"/>
      <point x="856" y="1180"/>
      <point x="856" y="1180"/>
      <point x="856" y="1180" type="qcurve"/>
      <point x="2044" y="1180" type="line"/>
      <point x="2044" y="1180"/>
      <point x="2044" y="1180"/>
      <point x="2044" y="1180" type="qcurve"/>
      <point x="2044" y="220" type="line"/>
      <point x="2044" y="220"/>
      <point x="2044" y="220"/>
      <point x="2044" y="220" type="qcurve"/>
    </contour>
  </outline>
</glyph>
<glyph name="section" format="2">
  <advance width="2702"/>
  <unicode hex="00A7"/>
  <outline>
    <contour>
      <point x="728" y="-150" type="qcurve" smooth="yes"/>
      <point x="1962" y="-150" type="line" smooth="yes"/>
      <point x="2093.3" y="-150"/>
      <point x="2240" y="-61.8832"/>
      <point x="2240" y="83" type="qcurve" smooth="yes"/>
      <point x="2240" y="159" type="line" smooth="yes"/>
      <point x="2240" y="236.724"/>
      <point x="2192.01" y="326.362"/>
      <point x="2149" y="349" type="qcurve"/>
      <point x="2203" y="349"/>
      <point x="2298.06" y="367.812"/>
      <point x="2368.94" y="419.188"/>
      <point x="2410" y="510"/>
      <point x="2410" y="582" type="qcurve" smooth="yes"/>
      <point x="2410" y="685" type="line" smooth="yes"/>
      <point x="2410" y="826.865"/>
      <point x="2257.26" y="907"/>
      <point x="2132" y="907" type="qcurve" smooth="yes"/>
      <point x="938" y="907" type="line"/>
      <point x="938" y="907"/>
      <point x="938" y="907"/>
      <point x="938" y="907" type="qcurve"/>
      <point x="938" y="1368" type="line"/>
      <point x="938" y="1368"/>
      <point x="938" y="1368"/>
      <point x="938" y="1368" type="qcurve"/>
      <point x="1762" y="1368" type="line"/>
      <point x="1762" y="1368"/>
      <point x="1762" y="1368"/>
      <point x="1762" y="1368" type="qcurve"/>
      <point x="1762" y="1060" type="line"/>
      <point x="2226" y="1132" type="line"/>
      <point x="2226" y="1168" type="line" smooth="yes"/>
      <point x="2226" y="1306.85"/>
      <point x="2073.26" y="1400"/>
      <point x="1948" y="1400" type="qcurve" smooth="yes"/>
      <point x="756" y="1400" type="line" smooth="yes"/>
      <point x="630.736" y="1400"/>
      <point x="474" y="1314.36"/>
      <point x="474" y="1174" type="qcurve" smooth="yes"/>
      <point x="474" y="1133" type="line" smooth="yes"/>
      <point x="474" y="1043.96"/>
      <point x="531.669" y="934.92"/>
      <point x="586" y="907" type="qcurve"/>
      <point x="533.875" y="907"/>
      <point x="432.719" y="895.156"/>
      <point x="353.031" y="849.594"/>
      <point x="304" y="759.375"/>
      <point x="304" y="681" type="qcurve" smooth="yes"/>
      <point x="304" y="607" type="line" smooth="yes"/>
      <point x="304" y="463.626"/>
      <point x="450.209" y="349"/>
      <point x="580" y="349" type="qcurve" smooth="yes"/>
      <point x="1776" y="349" type="line"/>
      <point x="1776" y="349"/>
      <point x="1776" y="349"/>
      <point x="1776" y="349" type="qcurve"/>
      <point x="1776" y="-118" type="line"/>
      <point x="1776" y="-118"/>
      <point x="1776" y="-118"/>
      <point x="1776" y="-118" type="qcurve"/>
      <point x="916" y="-118" type="line"/>
      <point x="916" y="-118"/>
      <point x="916" y="-118"/>
      <point x="916" y="-118" type="qcurve"/>
      <point x="916" y="196" type="line"/>
      <point x="452" y="124" type="line"/>
      <point x="452" y="92" type="line" smooth="yes"/>
      <point x="452" y="-52.8832"/>
      <point x="598.209" y="-150"/>
    </contour>
    <contour>
      <point x="768" y="381" type="line"/>
      <point x="768" y="381"/>
      <point x="768" y="381"/>
      <point x="768" y="381" type="qcurve"/>
      <point x="768" y="875" type="line"/>
      <point x="768" y="875"/>
      <point x="768" y="875"/>
      <point x="768" y="875" type="qcurve"/>
      <point x="1946" y="875" type="line"/>
      <point x="1946" y="875"/>
      <point x="1946" y="875"/>
      <point x="1946" y="875" type="qcurve"/>
      <point x="1946" y="381" type="line"/>
      <point x="1946" y="381"/>
      <point x="1946" y="381"/>
      <point x="1946" y="381" type="qcurve"/>
    </contour>
  </outline>
</glyph>
<glyph name="dieresis" format="2">
  <advance width="972"/>
  <unicode hex="00A8"/>
  <outline>
    <contour>
      <point x="120" y="1110" type="qcurve" smooth="yes"/>
      <point x="272" y="1110" type="line" smooth="yes"/>
      <point x="353" y="1110"/>
      <point x="382" y="1139"/>
      <point x="382" y="1220" type="qcurve" smooth="yes"/>
      <point x="382" y="1342" type="line" smooth="yes"/>
      <point x="382" y="1422"/>
      <point x="353" y="1450"/>
      <point x="272" y="1450" type="qcurve" smooth="yes"/>
      <point x="120" y="1450" type="line" smooth="yes"/>
      <point x="39" y="1450"/>
      <point x="10" y="1422"/>
      <point x="10" y="1342" type="qcurve" smooth="yes"/>
      <point x="10" y="1220" type="line" smooth="yes"/>
      <point x="10" y="1139"/>
      <point x="39" y="1110"/>
    </contour>
    <contour>
      <point x="700" y="1110" type="qcurve" smooth="yes"/>
      <point x="852" y="1110" type="line" smooth="yes"/>
      <point x="933" y="1110"/>
      <point x="962" y="1139"/>
      <point x="962" y="1220" type="qcurve" smooth="yes"/>
      <point x="962" y="1342" type="line" smooth="yes"/>
      <point x="962" y="1422"/>
      <point x="933" y="1450"/>
      <point x="852" y="1450" type="qcurve" smooth="yes"/>
      <point x="700" y="1450" type="line" smooth="yes"/>
      <point x="619" y="1450"/>
      <point x="590" y="1422"/>
      <point x="590" y="1342" type="qcurve" smooth="yes"/>
      <point x="590" y="1220" type="line" smooth="yes"/>
      <point x="590" y="1139"/>
      <point x="619" y="1110"/>
    </contour>
  </outline>
</glyph>
<glyph name="copyright" format="2">
  <advance width="3389"/>
  <unicode hex="00A9"/>
  <outline>
    <contour>
      <point x="774" y="548" type="line" smooth="yes"/>
      <point x="774" y="402"/>
      <point x="920" y="278"/>
      <point x="1098" y="278" type="qcurve" smooth="yes"/>
      <point x="2264" y="278" type="line" smooth="yes"/>
      <point x="2442" y="278"/>
      <point x="2588" y="402"/>
      <point x="2588" y="548" type="qcurve" smooth="yes"/>
      <point x="2588" y="575" type="line"/>
      <point x="2154" y="662" type="line"/>
      <point x="2154" y="310" type="line"/>
      <point x="2154" y="310"/>
      <point x="2154" y="310"/>
      <point x="2154" y="310" type="qcurve"/>
      <point x="1208" y="310" type="line"/>
      <point x="1208" y="310"/>
      <point x="1208" y="310"/>
      <point x="1208" y="310" type="qcurve"/>
      <point x="1208" y="1090" type="line"/>
      <point x="1208" y="1090"/>
      <point x="1208" y="1090"/>
      <point x="1208" y="1090" type="qcurve"/>
      <point x="2150" y="1090" type="line"/>
      <point x="2150" y="1090"/>
      <point x="2150" y="1090"/>
      <point x="2150" y="1090" type="qcurve"/>
      <point x="2150" y="745" type="line"/>
      <point x="2584" y="832" type="line"/>
      <point x="2584" y="866" type="line" smooth="yes"/>
      <point x="2584" y="1005"/>
      <point x="2437" y="1122"/>
      <point x="2262" y="1122" type="qcurve" smooth="yes"/>
      <point x="1100" y="1122" type="line" smooth="yes"/>
      <point x="925" y="1122"/>
      <point x="774" y="1002"/>
      <point x="774" y="862" type="qcurve" smooth="yes"/>
    </contour>
    <contour>
      <point x="370" y="994" type="qcurve" smooth="yes"/>
      <point x="370" y="418" type="line" smooth="yes"/>
      <point x="370" y="210"/>
      <point x="584" y="72"/>
      <point x="782" y="72" type="qcurve" smooth="yes"/>
      <point x="2568" y="72" type="line" smooth="yes"/>
      <point x="2767" y="72"/>
      <point x="2982" y="210"/>
      <point x="2982" y="418" type="qcurve" smooth="yes"/>
      <point x="2982" y="994" type="line" smooth="yes"/>
      <point x="2982" y="1201"/>
      <point x="2766" y="1328"/>
      <point x="2568" y="1328" type="qcurve" smooth="yes"/>
      <point x="782" y="1328" type="line" smooth="yes"/>
      <point x="585" y="1328"/>
      <point x="370" y="1194"/>
    </contour>
    <contour>
      <point x="564" y="1138" type="line" smooth="yes"/>
      <point x="564" y="1234"/>
      <point x="677" y="1296"/>
      <point x="782" y="1296" type="qcurve" smooth="yes"/>
      <point x="2568" y="1296" type="line" smooth="yes"/>
      <point x="2674" y="1296"/>
      <point x="2788" y="1234"/>
      <point x="2788" y="1139" type="qcurve" smooth="yes"/>
      <point x="2788" y="278" type="line" smooth="yes"/>
      <point x="2788" y="172"/>
      <point x="2674" y="104"/>
      <point x="2568" y="104" type="qcurve" smooth="yes"/>
      <point x="782" y="104" type="line" smooth="yes"/>
      <point x="676" y="104"/>
      <point x="564" y="173"/>
      <point x="564" y="279" type="qcurve" smooth="yes"/>
    </contour>
  </outline>
</glyph>
<glyph name="ordfeminine" format="2">
  <advance width="1686"/>
  <unicode hex="00AA"/>
  <outline>
    <contour>
      <point x="407" y="788" type="qcurve" smooth="yes"/>
      <point x="1015" y="788" type="line" smooth="yes"/>
      <point x="1052.73" y="788"/>
      <point x="1099.91" y="800.908"/>
      <point x="1115" y="816" type="qcurve"/>
      <point x="1115" y="795" type="line"/>
      <point x="1455" y="795" type="line"/>
      <point x="1455" y="1292" type="line" smooth="yes"/>
      <point x="1455" y="1402.17"/>
      <point x="1348.02" y="1472"/>
      <point x="1262" y="1472" type="qcurve" smooth="yes"/>
      <point x="423" y="1472" type="line" smooth="yes"/>
      <point x="335.466" y="1472"/>
      <point x="229" y="1400.34"/>
      <point x="229" y="1303" type="qcurve" smooth="yes"/>
      <point x="229" y="1290" type="line"/>
      <point x="569" y="1228" type="line"/>
      <point x="569" y="1440" type="line"/>
      <point x="569" y="1440"/>
      <point x="569" y="1440"/>
      <point x="569" y="1440" type="qcurve"/>
      <point x="1115" y="1440" type="line"/>
      <point x="1115" y="1440"/>
      <point x="1115" y="1440"/>
      <point x="1115" y="1440" type="qcurve"/>
      <point x="1115" y="1151" type="line"/>
      <point x="407" y="1151" type="line" smooth="yes"/>
      <point x="326.258" y="1151"/>
      <point x="214" y="1087.83"/>
      <point x="214" y="992" type="qcurve" smooth="yes"/>
      <point x="214" y="954" type="line" smooth="yes"/>
      <point x="214" y="856.657"/>
      <point x="325.503" y="788"/>
    </contour>
    <contour>
      <point x="554" y="820" type="qcurve"/>
      <point x="554" y="1119" type="line"/>
      <point x="554" y="1119"/>
      <point x="554" y="1119"/>
      <point x="554" y="1119" type="qcurve"/>
      <point x="1115" y="1119" type="line"/>
      <point x="1115" y="820" type="line"/>
      <point x="554" y="820" type="line"/>
      <point x="554" y="820"/>
      <point x="554" y="820"/>
    </contour>
  </outline>
  <guideline angle="0" x="0" y="36"/>
  <guideline angle="0" x="0" y="36"/>
</glyph>
<glyph name="guillemotleft" format="2">
  <advance width="1575"/>
  <unicode hex="00AB"/>
  <outline>
    <contour>
      <point x="788" y="130" type="line"/>
      <point x="829" y="130" type="line"/>
      <point x="469" y="512" type="line"/>
      <point x="829" y="894" type="line"/>
      <point x="788" y="894" type="line"/>
      <point x="128" y="512" type="line"/>
    </contour>
    <contour>
      <point x="1401" y="130" type="line"/>
      <point x="1442" y="130" type="line"/>
      <point x="1082" y="512" type="line"/>
      <point x="1442" y="894" type="line"/>
      <point x="1401" y="894" type="line"/>
      <point x="741" y="512" type="line"/>
    </contour>
  </outline>
</glyph>
<glyph name="registered" format="2">
  <advance width="1265"/>
  <unicode hex="00AE"/>
  <outline>
    <contour>
      <point x="148" y="1057" type="line"/>
      <point x="148" y="1410" type="line" smooth="yes"/>
      <point x="148" y="1479"/>
      <point x="223" y="1552"/>
      <point x="292" y="1552" type="qcurve" smooth="yes"/>
      <point x="972" y="1552" type="line" smooth="yes"/>
      <point x="1041" y="1552"/>
      <point x="1117" y="1479"/>
      <point x="1117" y="1410" type="qcurve" smooth="yes"/>
      <point x="1117" y="1057" type="line" smooth="yes"/>
      <point x="1117" y="988"/>
      <point x="1041" y="914"/>
      <point x="972" y="914" type="qcurve" smooth="yes"/>
      <point x="292" y="914" type="line" smooth="yes"/>
      <point x="223" y="914"/>
      <point x="148" y="988"/>
      <point x="148" y="1057" type="qcurve"/>
    </contour>
    <contour>
      <point x="235" y="1395" type="line"/>
      <point x="235" y="1072" type="line" smooth="yes"/>
      <point x="235" y="1032"/>
      <point x="273" y="990"/>
      <point x="312" y="990" type="qcurve" smooth="yes"/>
      <point x="966" y="990" type="line" smooth="yes"/>
      <point x="1006" y="990"/>
      <point x="1030" y="1032"/>
      <point x="1030" y="1072" type="qcurve" smooth="yes"/>
      <point x="1030" y="1395" type="line" smooth="yes"/>
      <point x="1030" y="1435"/>
      <point x="992" y="1476"/>
      <point x="952" y="1476" type="qcurve" smooth="yes"/>
      <point x="312" y="1476" type="line" smooth="yes"/>
      <point x="273" y="1476"/>
      <point x="235" y="1435"/>
      <point x="235" y="1395" type="qcurve"/>
    </contour>
    <contour>
      <point x="315" y="1400" type="line"/>
      <point x="859" y="1400" type="line" smooth="yes"/>
      <point x="903" y="1400"/>
      <point x="957" y="1370"/>
      <point x="957" y="1322" type="qcurve" smooth="yes"/>
      <point x="957" y="1269" type="line" smooth="yes"/>
      <point x="957" y="1245"/>
      <point x="943" y="1214"/>
      <point x="917" y="1196"/>
      <point x="881" y="1189"/>
      <point x="859" y="1189" type="qcurve" smooth="yes"/>
      <point x="738" y="1189" type="line"/>
      <point x="974" y="1060" type="line"/>
      <point x="783" y="1060" type="line"/>
      <point x="568" y="1189" type="line"/>
      <point x="442" y="1189" type="line"/>
      <point x="442" y="1060" type="line"/>
      <point x="315" y="1060" type="line"/>
    </contour>
    <contour>
      <point x="442" y="1221" type="line"/>
      <point x="813" y="1221" type="line" smooth="yes"/>
      <point x="822" y="1221"/>
      <point x="829" y="1229"/>
      <point x="829" y="1237" type="qcurve" smooth="yes"/>
      <point x="829" y="1352" type="line" smooth="yes"/>
      <point x="829" y="1360"/>
      <point x="822" y="1368"/>
      <point x="813" y="1368" type="qcurve" smooth="yes"/>
      <point x="442" y="1368" type="line"/>
    </contour>
  </outline>
</glyph>
<glyph name="degree" format="2">
  <advance width="1068"/>
  <unicode hex="00B0"/>
  <outline>
    <contour>
      <point x="148" y="1159" type="line"/>
      <point x="148" y="1364" type="line" smooth="yes"/>
      <point x="148" y="1450"/>
      <point x="243" y="1530"/>
      <point x="347" y="1530" type="qcurve" smooth="yes"/>
      <point x="720" y="1530" type="line" smooth="yes"/>
      <point x="825" y="1530"/>
      <point x="920" y="1450"/>
      <point x="920" y="1364" type="qcurve" smooth="yes"/>
      <point x="920" y="1159" type="line" smooth="yes"/>
      <point x="920" y="1069"/>
      <point x="827" y="986"/>
      <point x="720" y="986" type="qcurve" smooth="yes"/>
      <point x="347" y="986" type="line" smooth="yes"/>
      <point x="241" y="986"/>
      <point x="148" y="1068"/>
      <point x="148" y="1159" type="qcurve"/>
    </contour>
    <contour>
      <point x="373" y="1018" type="line"/>
      <point x="373" y="1018"/>
      <point x="373" y="1018"/>
      <point x="373" y="1018" type="qcurve"/>
      <point x="695" y="1018" type="line"/>
      <point x="695" y="1018"/>
      <point x="695" y="1018"/>
      <point x="695" y="1018" type="qcurve"/>
      <point x="695" y="1498" type="line"/>
      <point x="695" y="1498"/>
      <point x="695" y="1498"/>
      <point x="695" y="1498" type="qcurve"/>
      <point x="373" y="1498" type="line"/>
      <point x="373" y="1498"/>
      <point x="373" y="1498"/>
      <point x="373" y="1498" type="qcurve"/>
    </contour>
  </outline>
</glyph>
<glyph name="plusminus" format="2">
  <advance width="2086"/>
  <unicode hex="00B1"/>
  <outline>
    <contour>
      <point x="1023" y="248" type="line"/>
      <point x="1063" y="248" type="line"/>
      <point x="1063" y="690" type="line"/>
      <point x="1826" y="690" type="line"/>
      <point x="1826" y="726" type="line"/>
      <point x="1063" y="726" type="line"/>
      <point x="1063" y="1168" type="line"/>
      <point x="1023" y="1168" type="line"/>
      <point x="1023" y="726" type="line"/>
      <point x="260" y="726" type="line"/>
      <point x="260" y="690" type="line"/>
      <point x="1023" y="690" type="line"/>
    </contour>
    <contour>
      <point x="260" y="0" type="line"/>
      <point x="1826" y="0" type="line"/>
      <point x="1826" y="36" type="line"/>
      <point x="260" y="36" type="line"/>
    </contour>
  </outline>
</glyph>
<glyph name="twosuperior" format="2">
  <advance width="1865"/>
  <unicode hex="00B2"/>
  <outline>
    <contour>
      <point x="320" y="950" type="line"/>
      <point x="1383" y="950" type="line" smooth="yes"/>
      <point x="1487.89" y="950"/>
      <point x="1609" y="1022.77"/>
      <point x="1609" y="1142" type="qcurve" smooth="yes"/>
      <point x="1609" y="1172" type="line"/>
      <point x="1327" y="1226" type="line"/>
      <point x="1327" y="980" type="line"/>
      <point x="1327" y="980"/>
      <point x="1327" y="980"/>
      <point x="1327" y="980" type="qcurve"/>
      <point x="600" y="980" type="line"/>
      <point x="600" y="1246" type="line" smooth="yes"/>
      <point x="600" y="1261.85"/>
      <point x="612.644" y="1286.49"/>
      <point x="630" y="1288" type="qcurve" smooth="yes"/>
      <point x="1388" y="1362" type="line" smooth="yes"/>
      <point x="1518.55" y="1374.83"/>
      <point x="1604" y="1483.05"/>
      <point x="1604" y="1557" type="qcurve" smooth="yes"/>
      <point x="1604" y="1567" type="line" smooth="yes"/>
      <point x="1604" y="1666.61"/>
      <point x="1479.61" y="1742"/>
      <point x="1380" y="1742" type="qcurve" smooth="yes"/>
      <point x="550" y="1742" type="line" smooth="yes"/>
      <point x="449.638" y="1742"/>
      <point x="329" y="1674.21"/>
      <point x="329" y="1558" type="qcurve" smooth="yes"/>
      <point x="329" y="1514" type="line"/>
      <point x="611" y="1461" type="line"/>
      <point x="611" y="1712" type="line"/>
      <point x="611" y="1712"/>
      <point x="611" y="1712"/>
      <point x="611" y="1712" type="qcurve"/>
      <point x="1322" y="1712" type="line"/>
      <point x="1322" y="1712"/>
      <point x="1322" y="1712"/>
      <point x="1322" y="1712" type="qcurve"/>
      <point x="1322" y="1416" type="line" smooth="yes"/>
      <point x="1322" y="1397.13"/>
      <point x="1311.83" y="1383.75"/>
      <point x="1299" y="1383" type="qcurve"/>
      <point x="566" y="1312" type="line" smooth="yes"/>
      <point x="426.399" y="1298.42"/>
      <point x="320" y="1155.44"/>
      <point x="320" y="1043" type="qcurve" smooth="yes"/>
    </contour>
  </outline>
</glyph>
<glyph name="paragraph" format="2">
  <advance width="2688"/>
  <unicode hex="00B6"/>
  <outline>
    <contour>
      <point x="2288" y="0" type="line"/>
      <point x="2288" y="1400" type="line"/>
      <point x="684" y="1400" type="line" smooth="yes"/>
      <point x="495" y="1400"/>
      <point x="270" y="1267"/>
      <point x="270" y="1066" type="qcurve" smooth="yes"/>
      <point x="270" y="676" type="line" smooth="yes"/>
      <point x="270" y="576"/>
      <point x="329" y="449"/>
      <point x="437" y="377"/>
      <point x="590" y="350"/>
      <point x="684" y="350" type="qcurve" smooth="yes"/>
      <point x="1616" y="350" type="line"/>
      <point x="1616" y="0" type="line"/>
      <point x="1808" y="0" type="line"/>
      <point x="1808" y="1364" type="line"/>
      <point x="2096" y="1364" type="line"/>
      <point x="2096" y="0" type="line"/>
    </contour>
  </outline>
  <guideline angle="90" color="0.4,0.4,0.4,1" name="halfwidth" x="1344" y="0"/>
</glyph>
<glyph name="periodcentered" format="2">
  <advance width="1250"/>
  <unicode hex="00B7"/>
  <outline>
    <contour>
      <point x="360" y="504" type="line" smooth="yes"/>
      <point x="360" y="413"/>
      <point x="410" y="363"/>
      <point x="501" y="363" type="qcurve" smooth="yes"/>
      <point x="749" y="363" type="line" smooth="yes"/>
      <point x="839" y="363"/>
      <point x="890" y="414"/>
      <point x="890" y="504" type="qcurve" smooth="yes"/>
      <point x="890" y="713" type="line" smooth="yes"/>
      <point x="890" y="803"/>
      <point x="839" y="853"/>
      <point x="748" y="853" type="qcurve" smooth="yes"/>
      <point x="501" y="853" type="line" smooth="yes"/>
      <point x="411" y="853"/>
      <point x="360" y="803"/>
      <point x="360" y="715" type="qcurve" smooth="yes"/>
    </contour>
  </outline>
</glyph>
<glyph name="cedilla" format="2">
  <advance width="513"/>
  <unicode hex="00B8"/>
  <outline>
    <contour>
      <point x="204" y="-438" type="qcurve" smooth="yes"/>
      <point x="238" y="-438"/>
      <point x="340" y="-426"/>
      <point x="435" y="-386"/>
      <point x="503" y="-312"/>
      <point x="503" y="-250" type="qcurve" smooth="yes"/>
      <point x="503" y="-197"/>
      <point x="451" y="-131"/>
      <point x="371" y="-94"/>
      <point x="274" y="-80"/>
      <point x="228" y="-78" type="qcurve"/>
      <point x="263" y="0" type="line"/>
      <point x="141" y="0" type="line"/>
      <point x="90" y="-113" type="line"/>
      <point x="107" y="-107"/>
      <point x="139" y="-102"/>
      <point x="153" y="-102" type="qcurve" smooth="yes"/>
      <point x="205" y="-102"/>
      <point x="275" y="-167"/>
      <point x="275" y="-253" type="qcurve" smooth="yes"/>
      <point x="275" y="-338"/>
      <point x="205" y="-405"/>
      <point x="151" y="-405" type="qcurve" smooth="yes"/>
      <point x="116" y="-405"/>
      <point x="55" y="-380"/>
      <point x="35" y="-360" type="qcurve"/>
      <point x="10" y="-385" type="line"/>
      <point x="45" y="-409"/>
      <point x="124" y="-438"/>
    </contour>
  </outline>
</glyph>
<glyph name="ordmasculine" format="2">
  <advance width="1709"/>
  <unicode hex="00BA"/>
  <outline>
    <contour>
      <point x="222" y="961" type="line" smooth="yes"/>
      <point x="222" y="870"/>
      <point x="316" y="788"/>
      <point x="422" y="788" type="qcurve" smooth="yes"/>
      <point x="1287" y="788" type="line" smooth="yes"/>
      <point x="1393" y="788"/>
      <point x="1487" y="870"/>
      <point x="1487" y="961" type="qcurve" smooth="yes"/>
      <point x="1487" y="1306" type="line" smooth="yes"/>
      <point x="1487" y="1392"/>
      <point x="1392" y="1472"/>
      <point x="1287" y="1472" type="qcurve" smooth="yes"/>
      <point x="422" y="1472" type="line" smooth="yes"/>
      <point x="317" y="1472"/>
      <point x="222" y="1392"/>
      <point x="222" y="1306" type="qcurve" smooth="yes"/>
    </contour>
    <contour>
      <point x="562" y="820" type="qcurve"/>
      <point x="562" y="1440" type="line"/>
      <point x="562" y="1440"/>
      <point x="562" y="1440"/>
      <point x="562" y="1440" type="qcurve"/>
      <point x="1147" y="1440" type="line"/>
      <point x="1147" y="1440"/>
      <point x="1147" y="1440"/>
      <point x="1147" y="1440" type="qcurve"/>
      <point x="1147" y="820" type="line"/>
      <point x="1147" y="820"/>
      <point x="1147" y="820"/>
      <point x="1147" y="820" type="qcurve"/>
      <point x="562" y="820" type="line"/>
      <point x="562" y="820"/>
      <point x="562" y="820"/>
    </contour>
  </outline>
</glyph>
<glyph name="guillemotright" format="2">
  <advance width="1447"/>
  <unicode hex="00BB"/>
  <outline>
    <contour>
      <point x="654" y="894" type="line"/>
      <point x="613" y="894" type="line"/>
      <point x="973" y="512" type="line"/>
      <point x="613" y="130" type="line"/>
      <point x="654" y="130" type="line"/>
      <point x="1314" y="512" type="line"/>
    </contour>
    <contour>
      <point x="41" y="894" type="line"/>
      <point x="0" y="894" type="line"/>
      <point x="360" y="512" type="line"/>
      <point x="0" y="130" type="line"/>
      <point x="41" y="130" type="line"/>
      <point x="701" y="512" type="line"/>
    </contour>
  </outline>
</glyph>
<glyph name="onequarter" format="2">
  <advance width="2752"/>
  <unicode hex="00BC"/>
  <outline>
    <contour>
      <point x="364" y="614" type="line"/>
      <point x="658" y="614" type="line"/>
      <point x="658" y="1411" type="line"/>
      <point x="96" y="1348" type="line"/>
      <point x="96" y="1318" type="line"/>
      <point x="364" y="1347" type="line"/>
    </contour>
    <contour>
      <point x="308" y="0" type="line"/>
      <point x="351" y="0" type="line"/>
      <point x="1751" y="1400" type="line"/>
      <point x="1708" y="1400" type="line"/>
    </contour>
    <contour>
      <point x="1089" y="216" type="line"/>
      <point x="2004" y="216" type="line"/>
      <point x="2004" y="0" type="line"/>
      <point x="2298" y="0" type="line"/>
      <point x="2298" y="216" type="line"/>
      <point x="2544" y="216" type="line"/>
      <point x="2544" y="246" type="line"/>
      <point x="2298" y="246" type="line"/>
      <point x="2298" y="784" type="line"/>
      <point x="2125" y="784" type="line"/>
      <point x="1089" y="246" type="line"/>
    </contour>
    <contour>
      <point x="1154" y="246" type="line"/>
      <point x="2004" y="687" type="line"/>
      <point x="2004" y="246" type="line"/>
    </contour>
  </outline>
  <guideline angle="90" color="0.4,0.4,0.4,1" name="halfwidth" x="1376" y="0"/>
</glyph>
<glyph name="onehalf" format="2">
  <advance width="2946"/>
  <unicode hex="00BD"/>
  <outline>
    <contour>
      <point x="364" y="614" type="line"/>
      <point x="658" y="614" type="line"/>
      <point x="658" y="1411" type="line"/>
      <point x="96" y="1348" type="line"/>
      <point x="96" y="1318" type="line"/>
      <point x="364" y="1347" type="line"/>
    </contour>
    <contour>
      <point x="1708" y="1400" type="line"/>
      <point x="308" y="0" type="line"/>
      <point x="351" y="0" type="line"/>
      <point x="1751" y="1400" type="line"/>
    </contour>
    <contour>
      <point x="1401" y="0" type="line"/>
      <point x="2464" y="0" type="line" smooth="yes"/>
      <point x="2569" y="0"/>
      <point x="2690" y="73"/>
      <point x="2690" y="192" type="qcurve" smooth="yes"/>
      <point x="2690" y="222" type="line"/>
      <point x="2408" y="276" type="line"/>
      <point x="2408" y="30" type="line"/>
      <point x="2408" y="30"/>
      <point x="2408" y="30"/>
      <point x="2408" y="30" type="qcurve"/>
      <point x="1681" y="30" type="line"/>
      <point x="1681" y="296" type="line" smooth="yes"/>
      <point x="1681" y="312"/>
      <point x="1694" y="336"/>
      <point x="1711" y="338" type="qcurve" smooth="yes"/>
      <point x="2469" y="412" type="line" smooth="yes"/>
      <point x="2600" y="425"/>
      <point x="2685" y="533"/>
      <point x="2685" y="607" type="qcurve" smooth="yes"/>
      <point x="2685" y="617" type="line" smooth="yes"/>
      <point x="2685" y="717"/>
      <point x="2561" y="792"/>
      <point x="2461" y="792" type="qcurve" smooth="yes"/>
      <point x="1631" y="792" type="line" smooth="yes"/>
      <point x="1531" y="792"/>
      <point x="1410" y="724"/>
      <point x="1410" y="608" type="qcurve" smooth="yes"/>
      <point x="1410" y="564" type="line"/>
      <point x="1692" y="511" type="line"/>
      <point x="1692" y="762" type="line"/>
      <point x="1692" y="762"/>
      <point x="1692" y="762"/>
      <point x="1692" y="762" type="qcurve"/>
      <point x="2403" y="762" type="line"/>
      <point x="2403" y="762"/>
      <point x="2403" y="762"/>
      <point x="2403" y="762" type="qcurve"/>
      <point x="2403" y="466" type="line" smooth="yes"/>
      <point x="2403" y="447"/>
      <point x="2393" y="434"/>
      <point x="2380" y="433" type="qcurve"/>
      <point x="1647" y="362" type="line" smooth="yes"/>
      <point x="1507" y="348"/>
      <point x="1401" y="205"/>
      <point x="1401" y="93" type="qcurve" smooth="yes"/>
    </contour>
  </outline>
  <guideline angle="90" color="0.4,0.4,0.4,1" name="halfwidth" x="1473" y="0"/>
</glyph>
<glyph name="threequarters" format="2">
  <advance width="3523"/>
  <unicode hex="00BE"/>
  <outline>
    <contour>
      <point x="320" y="848" type="line"/>
      <point x="320" y="793" type="line" smooth="yes"/>
      <point x="320" y="685.847"/>
      <point x="434.884" y="614"/>
      <point x="536" y="614" type="qcurve" smooth="yes"/>
      <point x="1361" y="614" type="line" smooth="yes"/>
      <point x="1462.87" y="614"/>
      <point x="1589" y="691.847"/>
      <point x="1589" y="799" type="qcurve" smooth="yes"/>
      <point x="1589" y="842" type="line" smooth="yes"/>
      <point x="1589" y="935.57"/>
      <point x="1519.35" y="1011.72"/>
      <point x="1462" y="1017" type="qcurve"/>
      <point x="1524.63" y="1028.32"/>
      <point x="1584" y="1105.79"/>
      <point x="1584" y="1182" type="qcurve" smooth="yes"/>
      <point x="1584" y="1228" type="line" smooth="yes"/>
      <point x="1584" y="1314.02"/>
      <point x="1475.93" y="1398"/>
      <point x="1365" y="1398" type="qcurve" smooth="yes"/>
      <point x="543" y="1398" type="line" smooth="yes"/>
      <point x="488.625" y="1398"/>
      <point x="407.531" y="1376.31"/>
      <point x="353.719" y="1333.19"/>
      <point x="327" y="1268.75"/>
      <point x="327" y="1226" type="qcurve" smooth="yes"/>
      <point x="327" y="1154" type="line"/>
      <point x="575" y="1107" type="line"/>
      <point x="575" y="1378" type="line"/>
      <point x="575" y="1378"/>
      <point x="575" y="1378"/>
      <point x="575" y="1378" type="qcurve"/>
      <point x="1249" y="1378" type="line" smooth="yes"/>
      <point x="1285.98" y="1378"/>
      <point x="1336" y="1336.71"/>
      <point x="1336" y="1302" type="qcurve" smooth="yes"/>
      <point x="1336" y="1094" type="line" smooth="yes"/>
      <point x="1336" y="1060.04"/>
      <point x="1285.22" y="1021"/>
      <point x="1249" y="1021" type="qcurve" smooth="yes"/>
      <point x="840" y="1021" type="line"/>
      <point x="840" y="1000" type="line"/>
      <point x="1254" y="1000" type="line" smooth="yes"/>
      <point x="1290.98" y="1000"/>
      <point x="1341" y="959.712"/>
      <point x="1341" y="925" type="qcurve" smooth="yes"/>
      <point x="1341" y="711" type="line" smooth="yes"/>
      <point x="1341" y="675.534"/>
      <point x="1290.98" y="634"/>
      <point x="1254" y="634" type="qcurve" smooth="yes"/>
      <point x="568" y="634" type="line"/>
      <point x="568" y="634"/>
      <point x="568" y="634"/>
      <point x="568" y="634" type="qcurve"/>
      <point x="568" y="895" type="line"/>
    </contour>
    <contour>
      <point x="2479" y="1400" type="line"/>
      <point x="1079" y="0" type="line"/>
      <point x="1122" y="0" type="line"/>
      <point x="2522" y="1400" type="line"/>
    </contour>
    <contour>
      <point x="1860" y="216" type="line"/>
      <point x="2775" y="216" type="line"/>
      <point x="2775" y="0" type="line"/>
      <point x="3069" y="0" type="line"/>
      <point x="3069" y="216" type="line"/>
      <point x="3315" y="216" type="line"/>
      <point x="3315" y="246" type="line"/>
      <point x="3069" y="246" type="line"/>
      <point x="3069" y="784" type="line"/>
      <point x="2896" y="784" type="line"/>
      <point x="1860" y="246" type="line"/>
    </contour>
    <contour>
      <point x="1925" y="246" type="line"/>
      <point x="2775" y="687" type="line"/>
      <point x="2775" y="246" type="line"/>
    </contour>
  </outline>
</glyph>
<glyph name="questiondown" format="2">
  <advance width="2325"/>
  <unicode hex="00BF"/>
  <outline>
    <contour>
      <point x="1160" y="556" type="line"/>
      <point x="1120" y="556" type="line"/>
      <point x="1120" y="458" type="line" smooth="yes"/>
      <point x="1120" y="396.877"/>
      <point x="1048.67" y="330.509"/>
      <point x="980" y="329" type="qcurve" smooth="yes"/>
      <point x="474" y="320" type="line" smooth="yes"/>
      <point x="324.589" y="316.982"/>
      <point x="200" y="141.472"/>
      <point x="200" y="23" type="qcurve" smooth="yes"/>
      <point x="200" y="-87" type="line" smooth="yes"/>
      <point x="200" y="-246.975"/>
      <point x="373.503" y="-382"/>
      <point x="578" y="-382" type="qcurve" smooth="yes"/>
      <point x="1624" y="-382" type="line" smooth="yes"/>
      <point x="1828.5" y="-382"/>
      <point x="2005" y="-244.221"/>
      <point x="2005" y="-85" type="qcurve" smooth="yes"/>
      <point x="2005" y="30" type="line"/>
      <point x="1470" y="104" type="line"/>
      <point x="1470" y="-346" type="line"/>
      <point x="1470" y="-346"/>
      <point x="1470" y="-346"/>
      <point x="1470" y="-346" type="qcurve"/>
      <point x="725" y="-346" type="line"/>
      <point x="725" y="-346"/>
      <point x="725" y="-346"/>
      <point x="725" y="-346" type="qcurve"/>
      <point x="725" y="289" type="line"/>
      <point x="725" y="289"/>
      <point x="725" y="289"/>
      <point x="725" y="289" type="qcurve"/>
      <point x="980" y="293" type="line" smooth="yes"/>
      <point x="1075.83" y="294.509"/>
      <point x="1160" y="388.558"/>
      <point x="1160" y="461" type="qcurve" smooth="yes"/>
    </contour>
    <contour>
      <point x="1425" y="883" type="line" smooth="yes"/>
      <point x="1425" y="973.552"/>
      <point x="1374.55" y="1024"/>
      <point x="1284" y="1024" type="qcurve" smooth="yes"/>
      <point x="996" y="1024" type="line" smooth="yes"/>
      <point x="906" y="1024"/>
      <point x="855" y="973"/>
      <point x="855" y="883" type="qcurve" smooth="yes"/>
      <point x="855" y="794" type="line" smooth="yes"/>
      <point x="855" y="704.203"/>
      <point x="906.448" y="654"/>
      <point x="997" y="654" type="qcurve" smooth="yes"/>
      <point x="1284" y="654" type="line" smooth="yes"/>
      <point x="1374" y="654"/>
      <point x="1425" y="704.25"/>
      <point x="1425" y="792" type="qcurve" smooth="yes"/>
    </contour>
  </outline>
</glyph>
<glyph name="Agrave" format="2">
  <advance width="2910"/>
  <unicode hex="00C0"/>
  <anchor x="1448" y="1550" name="top"/>
  <anchor x="1380" y="-150" name="bottom"/>
  <anchor x="2116" y="0" name="ogonek_in"/>
  <anchor x="1680" y="1500" name="topright"/>
  <outline>
    <contour>
      <point x="6" y="0" type="line"/>
      <point x="56" y="0" type="line"/>
      <point x="372" y="338" type="line"/>
      <point x="1808" y="338" type="line"/>
      <point x="2116" y="0" type="line"/>
      <point x="2904" y="0" type="line"/>
      <point x="1598" y="1400" type="line"/>
      <point x="1312" y="1400" type="line"/>
    </contour>
    <contour>
      <point x="405" y="374" type="line"/>
      <point x="1098" y="1116" type="line"/>
      <point x="1775" y="374" type="line"/>
    </contour>
    <contour>
      <point x="1658" y="1500" type="line"/>
      <point x="1730" y="1500" type="line"/>
      <point x="1451" y="1800" type="line"/>
      <point x="650" y="1800" type="line"/>
    </contour>
  </outline>
</glyph>
<glyph name="Aacute" format="2">
  <advance width="2910"/>
  <unicode hex="00C1"/>
  <anchor x="1448" y="1550" name="top"/>
  <anchor x="1380" y="-150" name="bottom"/>
  <anchor x="2116" y="0" name="ogonek_in"/>
  <anchor x="1216" y="1550" name="topright"/>
  <outline>
    <contour>
      <point x="6" y="0" type="line"/>
      <point x="56" y="0" type="line"/>
      <point x="372" y="338" type="line"/>
      <point x="1808" y="338" type="line"/>
      <point x="2116" y="0" type="line"/>
      <point x="2904" y="0" type="line"/>
      <point x="1598" y="1400" type="line"/>
      <point x="1312" y="1400" type="line"/>
    </contour>
    <contour>
      <point x="405" y="374" type="line"/>
      <point x="1098" y="1116" type="line"/>
      <point x="1775" y="374" type="line"/>
    </contour>
    <contour>
      <point x="1166" y="1550" type="line"/>
      <point x="1238" y="1550" type="line"/>
      <point x="2246" y="1850" type="line"/>
      <point x="1445" y="1850" type="line"/>
    </contour>
  </outline>
</glyph>
<glyph name="Atilde" format="2">
  <advance width="2910"/>
  <unicode hex="00C3"/>
  <anchor x="1448" y="1992" name="top"/>
  <anchor x="1380" y="-150" name="bottom"/>
  <anchor x="2116" y="0" name="ogonek_in"/>
  <outline>
    <contour>
      <point x="6" y="0" type="line"/>
      <point x="56" y="0" type="line"/>
      <point x="372" y="338" type="line"/>
      <point x="1808" y="338" type="line"/>
      <point x="2116" y="0" type="line"/>
      <point x="2904" y="0" type="line"/>
      <point x="1598" y="1400" type="line"/>
      <point x="1312" y="1400" type="line"/>
    </contour>
    <contour>
      <point x="405" y="374" type="line"/>
      <point x="1098" y="1116" type="line"/>
      <point x="1775" y="374" type="line"/>
    </contour>
    <contour>
      <point x="898" y="1520" type="qcurve"/>
      <point x="928" y="1515" type="line"/>
      <point x="933" y="1542"/>
      <point x="979" y="1619"/>
      <point x="1048" y="1619" type="qcurve" smooth="yes"/>
      <point x="1092" y="1619"/>
      <point x="1231" y="1575"/>
      <point x="1391" y="1521"/>
      <point x="1559" y="1477"/>
      <point x="1631" y="1477" type="qcurve" smooth="yes"/>
      <point x="1709" y="1477"/>
      <point x="1833" y="1542"/>
      <point x="1925" y="1647"/>
      <point x="1985" y="1780"/>
      <point x="1998" y="1849" type="qcurve"/>
      <point x="1968" y="1854" type="line"/>
      <point x="1963" y="1827"/>
      <point x="1917" y="1750"/>
      <point x="1848" y="1750" type="qcurve" smooth="yes"/>
      <point x="1804" y="1750"/>
      <point x="1665" y="1794"/>
      <point x="1505" y="1848"/>
      <point x="1337" y="1892"/>
      <point x="1265" y="1892" type="qcurve" smooth="yes"/>
      <point x="1187" y="1892"/>
      <point x="1063" y="1832"/>
      <point x="971" y="1730"/>
      <point x="912" y="1595"/>
    </contour>
  </outline>
  <guideline angle="90" x="898" y="0"/>
  <guideline angle="90" x="1998" y="0"/>
  <guideline angle="90" x="928" y="0"/>
  <guideline angle="90" x="1968" y="0"/>
</glyph>
<glyph name="Aring" format="2">
  <advance width="2910"/>
  <unicode hex="00C5"/>
  <anchor x="1448" y="1994" name="top"/>
  <anchor x="1380" y="-150" name="bottom"/>
  <anchor x="2116" y="0" name="ogonek_in"/>
  <outline>
    <contour>
      <point x="6" y="0" type="line"/>
      <point x="56" y="0" type="line"/>
      <point x="372" y="338" type="line"/>
      <point x="1808" y="338" type="line"/>
      <point x="2116" y="0" type="line"/>
      <point x="2904" y="0" type="line"/>
      <point x="1598" y="1400" type="line"/>
      <point x="1312" y="1400" type="line"/>
    </contour>
    <contour>
      <point x="405" y="374" type="line"/>
      <point x="1098" y="1116" type="line"/>
      <point x="1775" y="374" type="line"/>
    </contour>
    <contour>
      <point x="1448" y="1498" type="qcurve" smooth="yes"/>
      <point x="1560.88" y="1498"/>
      <point x="1695.03" y="1509.12"/>
      <point x="1765.72" y="1550.38"/>
      <point x="1787" y="1631.25"/>
      <point x="1787" y="1701" type="qcurve" smooth="yes"/>
      <point x="1787" y="1770.75"/>
      <point x="1765.72" y="1851.62"/>
      <point x="1695.03" y="1892.88"/>
      <point x="1560.88" y="1904"/>
      <point x="1448" y="1904" type="qcurve" smooth="yes"/>
      <point x="1335.12" y="1904"/>
      <point x="1200.97" y="1892.88"/>
      <point x="1130.28" y="1851.62"/>
      <point x="1109" y="1770.75"/>
      <point x="1109" y="1701" type="qcurve" smooth="yes"/>
      <point x="1109" y="1631.25"/>
      <point x="1130.28" y="1550.38"/>
      <point x="1200.97" y="1509.12"/>
      <point x="1335.12" y="1498"/>
    </contour>
    <contour>
      <point x="1448" y="1526" type="qcurve" smooth="yes"/>
      <point x="1375.56" y="1526"/>
      <point x="1348" y="1582.53"/>
      <point x="1348" y="1701" type="qcurve" smooth="yes"/>
      <point x="1348" y="1820.25"/>
      <point x="1376" y="1876"/>
      <point x="1448" y="1876" type="qcurve" smooth="yes"/>
      <point x="1520.44" y="1876"/>
      <point x="1548" y="1820.98"/>
      <point x="1548" y="1701" type="qcurve" smooth="yes"/>
      <point x="1548" y="1582.53"/>
      <point x="1512.9" y="1526"/>
    </contour>
  </outline>
</glyph>
<glyph name="Ccedilla" format="2">
  <advance width="3102"/>
  <unicode hex="00C7"/>
  <anchor x="1572" y="1550" name="top"/>
  <anchor x="1572" y="-150" name="bottom"/>
  <outline>
    <contour>
      <point x="370" y="1066" type="qcurve" smooth="yes"/>
      <point x="370" y="346" type="line" smooth="yes"/>
      <point x="370" y="139"/>
      <point x="583" y="0"/>
      <point x="782" y="0" type="qcurve" smooth="yes"/>
      <point x="2358" y="0" type="line" smooth="yes"/>
      <point x="2557" y="0"/>
      <point x="2772" y="138"/>
      <point x="2772" y="346" type="qcurve" smooth="yes"/>
      <point x="2772" y="528" type="line"/>
      <point x="2200" y="640" type="line"/>
      <point x="2200" y="36" type="line"/>
      <point x="2200" y="36"/>
      <point x="2200" y="36"/>
      <point x="2200" y="36" type="qcurve"/>
      <point x="942" y="36" type="line"/>
      <point x="942" y="36"/>
      <point x="942" y="36"/>
      <point x="942" y="36" type="qcurve"/>
      <point x="942" y="1364" type="line"/>
      <point x="942" y="1364"/>
      <point x="942" y="1364"/>
      <point x="942" y="1364" type="qcurve"/>
      <point x="2194" y="1364" type="line"/>
      <point x="2194" y="1364"/>
      <point x="2194" y="1364"/>
      <point x="2194" y="1364" type="qcurve"/>
      <point x="2194" y="786" type="line"/>
      <point x="2766" y="892" type="line"/>
      <point x="2766" y="1066" type="line" smooth="yes"/>
      <point x="2766" y="1267"/>
      <point x="2541" y="1400"/>
      <point x="2352" y="1400" type="qcurve" smooth="yes"/>
      <point x="782" y="1400" type="line" smooth="yes"/>
      <point x="593" y="1400"/>
      <point x="370" y="1267"/>
    </contour>
    <contour>
      <point x="1568" y="-438" type="qcurve" smooth="yes"/>
      <point x="1604" y="-438"/>
      <point x="1712" y="-426"/>
      <point x="1814" y="-386"/>
      <point x="1886" y="-312"/>
      <point x="1886" y="-250" type="qcurve" smooth="yes"/>
      <point x="1886" y="-197"/>
      <point x="1834" y="-131"/>
      <point x="1751" y="-95"/>
      <point x="1645" y="-80"/>
      <point x="1591" y="-78" type="qcurve"/>
      <point x="1626" y="0" type="line"/>
      <point x="1492" y="0" type="line"/>
      <point x="1441" y="-113" type="line"/>
      <point x="1454" y="-108"/>
      <point x="1487" y="-102"/>
      <point x="1506" y="-102" type="qcurve" smooth="yes"/>
      <point x="1548" y="-102"/>
      <point x="1626" y="-166"/>
      <point x="1626" y="-253" type="qcurve" smooth="yes"/>
      <point x="1626" y="-339"/>
      <point x="1554" y="-405"/>
      <point x="1503" y="-405" type="qcurve" smooth="yes"/>
      <point x="1469" y="-405"/>
      <point x="1409" y="-380"/>
      <point x="1389" y="-360" type="qcurve"/>
      <point x="1363" y="-385" type="line"/>
      <point x="1398" y="-409"/>
      <point x="1488" y="-438"/>
    </contour>
  </outline>
</glyph>
<glyph name="Eacute" format="2">
  <advance width="2750"/>
  <unicode hex="00C9"/>
  <anchor x="1570" y="1550" name="top"/>
  <anchor x="1570" y="-150" name="bottom"/>
  <anchor x="2211" y="0" name="ogonek"/>
  <anchor x="2740" y="0" name="ogonek_out"/>
  <anchor x="1338" y="1550" name="topright"/>
  <outline>
    <contour>
      <point x="400" y="0" type="line"/>
      <point x="2740" y="0" type="line"/>
      <point x="2740" y="36" type="line"/>
      <point x="972" y="36" type="line"/>
      <point x="972" y="700" type="line"/>
      <point x="2054" y="700" type="line"/>
      <point x="2054" y="736" type="line"/>
      <point x="972" y="736" type="line"/>
      <point x="972" y="1364" type="line"/>
      <point x="2706" y="1364" type="line"/>
      <point x="2706" y="1400" type="line"/>
      <point x="400" y="1400" type="line"/>
    </contour>
    <contour>
      <point x="1288" y="1550" type="line"/>
      <point x="1360" y="1550" type="line"/>
      <point x="2368" y="1850" type="line"/>
      <point x="1567" y="1850" type="line"/>
    </contour>
  </outline>
  <guideline angle="90" x="-10" y="0"/>
</glyph>
<glyph name="Ecircumflex" format="2">
  <advance width="2750"/>
  <unicode hex="00CA"/>
  <anchor x="1570" y="1880" name="top"/>
  <anchor x="1570" y="-150" name="bottom"/>
  <anchor x="2211" y="0" name="ogonek"/>
  <anchor x="2740" y="0" name="ogonek_out"/>
  <anchor x="2483" y="1600" name="topright"/>
  <outline>
    <contour>
      <point x="400" y="0" type="line"/>
      <point x="2740" y="0" type="line"/>
      <point x="2740" y="36" type="line"/>
      <point x="972" y="36" type="line"/>
      <point x="972" y="700" type="line"/>
      <point x="2054" y="700" type="line"/>
      <point x="2054" y="736" type="line"/>
      <point x="972" y="736" type="line"/>
      <point x="972" y="1364" type="line"/>
      <point x="2706" y="1364" type="line"/>
      <point x="2706" y="1400" type="line"/>
      <point x="400" y="1400" type="line"/>
    </contour>
    <contour>
      <point x="968" y="1500" type="line"/>
      <point x="1020" y="1500" type="line"/>
      <point x="1415" y="1766" type="line"/>
      <point x="1786" y="1500" type="line"/>
      <point x="2483" y="1500" type="line"/>
      <point x="1997" y="1800" type="line"/>
      <point x="1412" y="1800" type="line"/>
    </contour>
  </outline>
  <guideline angle="90" x="-10" y="0"/>
</glyph>
<glyph name="Edieresis" format="2">
  <advance width="2750"/>
  <unicode hex="00CB"/>
  <anchor x="1570" y="1938" name="top"/>
  <anchor x="1570" y="-150" name="bottom"/>
  <anchor x="2211" y="0" name="ogonek"/>
  <outline>
    <contour>
      <point x="400" y="0" type="line"/>
      <point x="2740" y="0" type="line"/>
      <point x="2740" y="36" type="line"/>
      <point x="972" y="36" type="line"/>
      <point x="972" y="700" type="line"/>
      <point x="2054" y="700" type="line"/>
      <point x="2054" y="736" type="line"/>
      <point x="972" y="736" type="line"/>
      <point x="972" y="1364" type="line"/>
      <point x="2706" y="1364" type="line"/>
      <point x="2706" y="1400" type="line"/>
      <point x="400" y="1400" type="line"/>
    </contour>
    <contour>
      <point x="1164" y="1488" type="qcurve" smooth="yes"/>
      <point x="1346" y="1488" type="line" smooth="yes"/>
      <point x="1427.5" y="1488"/>
      <point x="1456" y="1516.5"/>
      <point x="1456" y="1598" type="qcurve" smooth="yes"/>
      <point x="1456" y="1740" type="line" smooth="yes"/>
      <point x="1456" y="1819.99"/>
      <point x="1427.5" y="1848"/>
      <point x="1346" y="1848" type="qcurve" smooth="yes"/>
      <point x="1164" y="1848" type="line" smooth="yes"/>
      <point x="1082.5" y="1848"/>
      <point x="1054" y="1819.99"/>
      <point x="1054" y="1740" type="qcurve" smooth="yes"/>
      <point x="1054" y="1598" type="line" smooth="yes"/>
      <point x="1054" y="1516.5"/>
      <point x="1082.5" y="1488"/>
    </contour>
    <contour>
      <point x="1794" y="1488" type="qcurve" smooth="yes"/>
      <point x="1976" y="1488" type="line" smooth="yes"/>
      <point x="2057.5" y="1488"/>
      <point x="2086" y="1516.5"/>
      <point x="2086" y="1598" type="qcurve" smooth="yes"/>
      <point x="2086" y="1740" type="line" smooth="yes"/>
      <point x="2086" y="1819.99"/>
      <point x="2057.5" y="1848"/>
      <point x="1976" y="1848" type="qcurve" smooth="yes"/>
      <point x="1794" y="1848" type="line" smooth="yes"/>
      <point x="1712.5" y="1848"/>
      <point x="1684" y="1819.99"/>
      <point x="1684" y="1740" type="qcurve" smooth="yes"/>
      <point x="1684" y="1598" type="line" smooth="yes"/>
      <point x="1684" y="1516.5"/>
      <point x="1712.5" y="1488"/>
    </contour>
  </outline>
  <guideline angle="90" x="-10" y="0"/>
</glyph>
<glyph name="Igrave" format="2">
  <advance width="1372"/>
  <unicode hex="00CC"/>
  <anchor x="686" y="1550" name="top"/>
  <anchor x="686" y="-150" name="bottom"/>
  <anchor x="440" y="0" name="ogonek"/>
  <anchor x="918" y="1550" name="topright"/>
  <outline>
    <contour>
      <point x="400" y="0" type="line"/>
      <point x="972" y="0" type="line"/>
      <point x="972" y="1400" type="line"/>
      <point x="400" y="1400" type="line"/>
    </contour>
    <contour>
      <point x="968" y="1550" type="line"/>
      <point x="689" y="1850" type="line"/>
      <point x="-112" y="1850" type="line"/>
      <point x="896" y="1550" type="line"/>
    </contour>
  </outline>
</glyph>
<glyph name="Iacute" format="2">
  <advance width="1372"/>
  <unicode hex="00CD"/>
  <anchor x="686" y="1550" name="top"/>
  <anchor x="686" y="-150" name="bottom"/>
  <anchor x="400" y="0" name="ogonek"/>
  <anchor x="454" y="1550" name="topright"/>
  <outline>
    <contour>
      <point x="400" y="0" type="line"/>
      <point x="972" y="0" type="line"/>
      <point x="972" y="1400" type="line"/>
      <point x="400" y="1400" type="line"/>
    </contour>
    <contour>
      <point x="404" y="1550" type="line"/>
      <point x="476" y="1550" type="line"/>
      <point x="1484" y="1850" type="line"/>
      <point x="683" y="1850" type="line"/>
    </contour>
  </outline>
</glyph>
<glyph name="Eth" format="2">
  <advance width="3214"/>
  <unicode hex="00D0"/>
  <anchor x="1446" y="1550" name="top"/>
  <anchor x="1446" y="-150" name="bottom"/>
  <outline>
    <contour>
      <point x="400" y="0" type="line"/>
      <point x="1996" y="0" type="line" smooth="yes"/>
      <point x="2224" y="0"/>
      <point x="2574" y="78"/>
      <point x="2812" y="246"/>
      <point x="2934" y="512"/>
      <point x="2934" y="700" type="qcurve" smooth="yes"/>
      <point x="2934" y="877"/>
      <point x="2827" y="1140"/>
      <point x="2599" y="1314"/>
      <point x="2244" y="1400"/>
      <point x="1996" y="1400" type="qcurve" smooth="yes"/>
      <point x="400" y="1400" type="line"/>
      <point x="400" y="716" type="line"/>
      <point x="241" y="716" type="line"/>
      <point x="241" y="684" type="line"/>
      <point x="400" y="684" type="line"/>
    </contour>
    <contour>
      <point x="972" y="36" type="line"/>
      <point x="972" y="684" type="line"/>
      <point x="1510" y="684" type="line"/>
      <point x="1510" y="716" type="line"/>
      <point x="972" y="716" type="line"/>
      <point x="972" y="1364" type="line"/>
      <point x="1763" y="1364" type="line" smooth="yes"/>
      <point x="1920" y="1364"/>
      <point x="2145" y="1296"/>
      <point x="2290" y="1142"/>
      <point x="2358" y="895"/>
      <point x="2358" y="716" type="qcurve" smooth="yes"/>
      <point x="2358" y="534"/>
      <point x="2291" y="276"/>
      <point x="2148" y="112"/>
      <point x="1922" y="36"/>
      <point x="1763" y="36" type="qcurve" smooth="yes"/>
    </contour>
  </outline>
</glyph>
<glyph name="Ntilde" format="2">
  <advance width="3148"/>
  <unicode hex="00D1"/>
  <anchor x="1574" y="1992" name="top"/>
  <anchor x="1574" y="-150" name="bottom"/>
  <outline>
    <contour>
      <point x="400" y="0" type="line"/>
      <point x="436" y="0" type="line"/>
      <point x="436" y="843" type="line"/>
      <point x="2572" y="0" type="line"/>
      <point x="2748" y="0" type="line"/>
      <point x="2748" y="1400" type="line"/>
      <point x="2712" y="1400" type="line"/>
      <point x="2712" y="557" type="line"/>
      <point x="576" y="1400" type="line"/>
      <point x="400" y="1400" type="line"/>
    </contour>
    <contour>
      <point x="1024" y="1520" type="qcurve"/>
      <point x="1054" y="1515" type="line"/>
      <point x="1059" y="1542"/>
      <point x="1105" y="1619"/>
      <point x="1174" y="1619" type="qcurve" smooth="yes"/>
      <point x="1218" y="1619"/>
      <point x="1357" y="1575"/>
      <point x="1517" y="1521"/>
      <point x="1685" y="1477"/>
      <point x="1757" y="1477" type="qcurve" smooth="yes"/>
      <point x="1835" y="1477"/>
      <point x="1959" y="1542"/>
      <point x="2051" y="1647"/>
      <point x="2111" y="1780"/>
      <point x="2124" y="1849" type="qcurve"/>
      <point x="2094" y="1854" type="line"/>
      <point x="2089" y="1827"/>
      <point x="2043" y="1750"/>
      <point x="1974" y="1750" type="qcurve" smooth="yes"/>
      <point x="1930" y="1750"/>
      <point x="1791" y="1794"/>
      <point x="1631" y="1848"/>
      <point x="1463" y="1892"/>
      <point x="1391" y="1892" type="qcurve" smooth="yes"/>
      <point x="1313" y="1892"/>
      <point x="1189" y="1832"/>
      <point x="1097" y="1730"/>
      <point x="1038" y="1595"/>
    </contour>
  </outline>
  <guideline angle="90" x="1024" y="0"/>
  <guideline angle="90" x="2124" y="0"/>
  <guideline angle="90" x="1054" y="0"/>
  <guideline angle="90" x="2094" y="0"/>
</glyph>
<glyph name="Ocircumflex" format="2">
  <advance width="3404"/>
  <unicode hex="00D4"/>
  <anchor x="1712" y="1880" name="top"/>
  <anchor x="1712" y="-150" name="bottom"/>
  <anchor x="3044" y="1066" name="horn"/>
  <anchor x="1731" y="0" name="ogonek"/>
  <anchor x="2625" y="1600" name="topright"/>
  <outline>
    <contour>
      <point x="370" y="1066" type="qcurve" smooth="yes"/>
      <point x="370" y="346" type="line" smooth="yes"/>
      <point x="370" y="139.24"/>
      <point x="582.786" y="0"/>
      <point x="782" y="0" type="qcurve" smooth="yes"/>
      <point x="2620" y="0" type="line" smooth="yes"/>
      <point x="2819.21" y="0"/>
      <point x="3034" y="137.73"/>
      <point x="3034" y="346" type="qcurve" smooth="yes"/>
      <point x="3034" y="1066" type="line" smooth="yes"/>
      <point x="3034" y="1267"/>
      <point x="2809" y="1400"/>
      <point x="2620" y="1400" type="qcurve" smooth="yes"/>
      <point x="782" y="1400" type="line" smooth="yes"/>
      <point x="593" y="1400"/>
      <point x="370" y="1267"/>
    </contour>
    <contour>
      <point x="942" y="1364" type="line"/>
      <point x="942" y="1364"/>
      <point x="942" y="1364"/>
      <point x="942" y="1364" type="qcurve"/>
      <point x="2462" y="1364" type="line"/>
      <point x="2462" y="1364"/>
      <point x="2462" y="1364"/>
      <point x="2462" y="1364" type="qcurve"/>
      <point x="2462" y="36" type="line"/>
      <point x="2462" y="36"/>
      <point x="2462" y="36"/>
      <point x="2462" y="36" type="qcurve"/>
      <point x="942" y="36" type="line"/>
      <point x="942" y="36"/>
      <point x="942" y="36"/>
      <point x="942" y="36" type="qcurve"/>
    </contour>
    <contour>
      <point x="1110" y="1500" type="line"/>
      <point x="1162" y="1500" type="line"/>
      <point x="1557" y="1766" type="line"/>
      <point x="1928" y="1500" type="line"/>
      <point x="2625" y="1500" type="line"/>
      <point x="2139" y="1800" type="line"/>
      <point x="1554" y="1800" type="line"/>
    </contour>
  </outline>
</glyph>
<glyph name="Otilde" format="2">
  <advance width="3404"/>
  <unicode hex="00D5"/>
  <anchor x="1712" y="1992" name="top"/>
  <anchor x="1712" y="-150" name="bottom"/>
  <anchor x="3044" y="1066" name="horn"/>
  <anchor x="1731" y="0" name="ogonek"/>
  <outline>
    <contour>
      <point x="370" y="1066" type="qcurve" smooth="yes"/>
      <point x="370" y="346" type="line" smooth="yes"/>
      <point x="370" y="139"/>
      <point x="583" y="0"/>
      <point x="782" y="0" type="qcurve" smooth="yes"/>
      <point x="2620" y="0" type="line" smooth="yes"/>
      <point x="2819" y="0"/>
      <point x="3034" y="138"/>
      <point x="3034" y="346" type="qcurve" smooth="yes"/>
      <point x="3034" y="1066" type="line" smooth="yes"/>
      <point x="3034" y="1267"/>
      <point x="2809" y="1400"/>
      <point x="2620" y="1400" type="qcurve" smooth="yes"/>
      <point x="782" y="1400" type="line" smooth="yes"/>
      <point x="593" y="1400"/>
      <point x="370" y="1267"/>
    </contour>
    <contour>
      <point x="942" y="1364" type="line"/>
      <point x="942" y="1364"/>
      <point x="942" y="1364"/>
      <point x="942" y="1364" type="qcurve"/>
      <point x="2462" y="1364" type="line"/>
      <point x="2462" y="1364"/>
      <point x="2462" y="1364"/>
      <point x="2462" y="1364" type="qcurve"/>
      <point x="2462" y="36" type="line"/>
      <point x="2462" y="36"/>
      <point x="2462" y="36"/>
      <point x="2462" y="36" type="qcurve"/>
      <point x="942" y="36" type="line"/>
      <point x="942" y="36"/>
      <point x="942" y="36"/>
      <point x="942" y="36" type="qcurve"/>
    </contour>
    <contour>
      <point x="1162" y="1520" type="qcurve"/>
      <point x="1192" y="1515" type="line"/>
      <point x="1197" y="1542"/>
      <point x="1243" y="1619"/>
      <point x="1312" y="1619" type="qcurve" smooth="yes"/>
      <point x="1356" y="1619"/>
      <point x="1495" y="1575"/>
      <point x="1655" y="1521"/>
      <point x="1823" y="1477"/>
      <point x="1895" y="1477" type="qcurve" smooth="yes"/>
      <point x="1973" y="1477"/>
      <point x="2097" y="1542"/>
      <point x="2189" y="1647"/>
      <point x="2249" y="1780"/>
      <point x="2262" y="1849" type="qcurve"/>
      <point x="2232" y="1854" type="line"/>
      <point x="2227" y="1827"/>
      <point x="2181" y="1750"/>
      <point x="2112" y="1750" type="qcurve" smooth="yes"/>
      <point x="2068" y="1750"/>
      <point x="1929" y="1794"/>
      <point x="1769" y="1848"/>
      <point x="1601" y="1892"/>
      <point x="1529" y="1892" type="qcurve" smooth="yes"/>
      <point x="1451" y="1892"/>
      <point x="1327" y="1832"/>
      <point x="1235" y="1730"/>
      <point x="1176" y="1595"/>
    </contour>
  </outline>
  <guideline angle="90" x="1162" y="0"/>
  <guideline angle="90" x="2262" y="0"/>
  <guideline angle="90" x="1192" y="0"/>
  <guideline angle="90" x="2232" y="0"/>
</glyph>
<glyph name="Odieresis" format="2">
  <advance width="3404"/>
  <unicode hex="00D6"/>
  <anchor x="1712" y="1938" name="top"/>
  <anchor x="1712" y="-150" name="bottom"/>
  <anchor x="3044" y="1066" name="horn"/>
  <anchor x="1731" y="0" name="ogonek"/>
  <outline>
    <contour>
      <point x="370" y="1066" type="qcurve" smooth="yes"/>
      <point x="370" y="346" type="line" smooth="yes"/>
      <point x="370" y="139"/>
      <point x="583" y="0"/>
      <point x="782" y="0" type="qcurve" smooth="yes"/>
      <point x="2620" y="0" type="line" smooth="yes"/>
      <point x="2819" y="0"/>
      <point x="3034" y="138"/>
      <point x="3034" y="346" type="qcurve" smooth="yes"/>
      <point x="3034" y="1066" type="line" smooth="yes"/>
      <point x="3034" y="1267"/>
      <point x="2809" y="1400"/>
      <point x="2620" y="1400" type="qcurve" smooth="yes"/>
      <point x="782" y="1400" type="line" smooth="yes"/>
      <point x="593" y="1400"/>
      <point x="370" y="1267"/>
    </contour>
    <contour>
      <point x="942" y="1364" type="line"/>
      <point x="942" y="1364"/>
      <point x="942" y="1364"/>
      <point x="942" y="1364" type="qcurve"/>
      <point x="2462" y="1364" type="line"/>
      <point x="2462" y="1364"/>
      <point x="2462" y="1364"/>
      <point x="2462" y="1364" type="qcurve"/>
      <point x="2462" y="36" type="line"/>
      <point x="2462" y="36"/>
      <point x="2462" y="36"/>
      <point x="2462" y="36" type="qcurve"/>
      <point x="942" y="36" type="line"/>
      <point x="942" y="36"/>
      <point x="942" y="36"/>
      <point x="942" y="36" type="qcurve"/>
    </contour>
    <contour>
      <point x="1306" y="1488" type="qcurve" smooth="yes"/>
      <point x="1488" y="1488" type="line" smooth="yes"/>
      <point x="1569" y="1488"/>
      <point x="1598" y="1517"/>
      <point x="1598" y="1598" type="qcurve" smooth="yes"/>
      <point x="1598" y="1740" type="line" smooth="yes"/>
      <point x="1598" y="1820"/>
      <point x="1569" y="1848"/>
      <point x="1488" y="1848" type="qcurve" smooth="yes"/>
      <point x="1306" y="1848" type="line" smooth="yes"/>
      <point x="1225" y="1848"/>
      <point x="1196" y="1820"/>
      <point x="1196" y="1740" type="qcurve" smooth="yes"/>
      <point x="1196" y="1598" type="line" smooth="yes"/>
      <point x="1196" y="1517"/>
      <point x="1225" y="1488"/>
    </contour>
    <contour>
      <point x="1936" y="1488" type="qcurve" smooth="yes"/>
      <point x="2118" y="1488" type="line" smooth="yes"/>
      <point x="2199" y="1488"/>
      <point x="2228" y="1517"/>
      <point x="2228" y="1598" type="qcurve" smooth="yes"/>
      <point x="2228" y="1740" type="line" smooth="yes"/>
      <point x="2228" y="1820"/>
      <point x="2199" y="1848"/>
      <point x="2118" y="1848" type="qcurve" smooth="yes"/>
      <point x="1936" y="1848" type="line" smooth="yes"/>
      <point x="1855" y="1848"/>
      <point x="1826" y="1820"/>
      <point x="1826" y="1740" type="qcurve" smooth="yes"/>
      <point x="1826" y="1598" type="line" smooth="yes"/>
      <point x="1826" y="1517"/>
      <point x="1855" y="1488"/>
    </contour>
  </outline>
</glyph>
<glyph name="multiply" format="2">
  <advance width="2086"/>
  <unicode hex="00D7"/>
  <outline>
    <contour>
      <point x="423" y="140" type="line"/>
      <point x="1043" y="565" type="line"/>
      <point x="1663" y="141" type="line"/>
      <point x="1684" y="172" type="line"/>
      <point x="1077" y="587" type="line"/>
      <point x="1684" y="1003" type="line"/>
      <point x="1663" y="1033" type="line"/>
      <point x="1044" y="610" type="line"/>
      <point x="423" y="1034" type="line"/>
      <point x="402" y="1003" type="line"/>
      <point x="1011" y="587" type="line"/>
      <point x="402" y="171" type="line"/>
    </contour>
  </outline>
  <guideline angle="34.3869" color="1,0,0,1" x="455" y="140"/>
  <guideline angle="325.644" color="1,0,0,1" x="434" y="1003"/>
</glyph>
<glyph name="Oslash" format="2">
  <advance width="3512"/>
  <unicode hex="00D8"/>
  <anchor x="1756" y="1576" name="top"/>
  <outline>
    <contour>
      <point x="424" y="1066" type="line"/>
      <point x="424" y="346" type="line" smooth="yes"/>
      <point x="424" y="243"/>
      <point x="479" y="109"/>
      <point x="584" y="31"/>
      <point x="737" y="0"/>
      <point x="836" y="0" type="qcurve" smooth="yes"/>
      <point x="2674" y="0" type="line" smooth="yes"/>
      <point x="2773" y="0"/>
      <point x="2927" y="31"/>
      <point x="3033" y="109"/>
      <point x="3088" y="243"/>
      <point x="3088" y="346" type="qcurve" smooth="yes"/>
      <point x="3088" y="1066" type="line" smooth="yes"/>
      <point x="3088" y="1167"/>
      <point x="3030" y="1296"/>
      <point x="2922" y="1371"/>
      <point x="2769" y="1400"/>
      <point x="2674" y="1400" type="qcurve" smooth="yes"/>
      <point x="836" y="1400" type="line" smooth="yes"/>
      <point x="742" y="1400"/>
      <point x="589" y="1371"/>
      <point x="482" y="1296"/>
      <point x="424" y="1167"/>
      <point x="424" y="1066" type="qcurve"/>
    </contour>
    <contour>
      <point x="996" y="1364" type="line"/>
      <point x="996" y="1364"/>
      <point x="996" y="1364"/>
      <point x="996" y="1364"/>
      <point x="996" y="1364"/>
      <point x="996" y="1364" type="qcurve"/>
      <point x="2516" y="1364" type="line"/>
      <point x="2516" y="1364"/>
      <point x="2516" y="1364"/>
      <point x="2516" y="1364"/>
      <point x="2516" y="1364"/>
      <point x="2516" y="1364" type="qcurve"/>
      <point x="2516" y="36" type="line"/>
      <point x="2516" y="36"/>
      <point x="2516" y="36"/>
      <point x="2516" y="36"/>
      <point x="2516" y="36"/>
      <point x="2516" y="36" type="qcurve"/>
      <point x="996" y="36" type="line"/>
      <point x="996" y="36"/>
      <point x="996" y="36"/>
      <point x="996" y="36"/>
      <point x="996" y="36"/>
      <point x="996" y="36" type="qcurve"/>
    </contour>
    <contour>
      <point x="386" y="-24" type="line"/>
      <point x="698" y="137" type="line"/>
      <point x="962" y="273" type="line"/>
      <point x="2579" y="1105" type="line"/>
      <point x="2783" y="1210" type="line"/>
      <point x="3142" y="1395" type="line"/>
      <point x="3124" y="1426" type="line"/>
      <point x="2772" y="1244" type="line"/>
      <point x="2567" y="1139" type="line"/>
      <point x="953" y="309" type="line"/>
      <point x="692" y="175" type="line"/>
      <point x="370" y="8" type="line"/>
    </contour>
  </outline>
  <guideline angle="0" x="0" y="-26"/>
  <guideline angle="0" x="0" y="-26"/>
</glyph>
<glyph name="Ugrave" format="2">
  <advance width="3355"/>
  <unicode hex="00D9"/>
  <anchor x="1678" y="1550" name="top"/>
  <anchor x="1678" y="-150" name="bottom"/>
  <anchor x="1698" y="0" name="ogonek"/>
  <anchor x="2970" y="1400" name="horn"/>
  <anchor x="1910" y="1550" name="topright"/>
  <outline>
    <contour>
      <point x="385" y="1400" type="line"/>
      <point x="385" y="343" type="line" smooth="yes"/>
      <point x="385" y="237"/>
      <point x="442" y="103"/>
      <point x="548" y="28"/>
      <point x="700" y="0"/>
      <point x="795" y="0" type="qcurve" smooth="yes"/>
      <point x="2558" y="0" type="line" smooth="yes"/>
      <point x="2751" y="0"/>
      <point x="2970" y="131"/>
      <point x="2970" y="343" type="qcurve" smooth="yes"/>
      <point x="2970" y="1400" type="line"/>
      <point x="2398" y="1400" type="line"/>
      <point x="2398" y="36" type="line"/>
      <point x="2398" y="36"/>
      <point x="2398" y="36"/>
      <point x="2398" y="36" type="qcurve"/>
      <point x="957" y="36" type="line"/>
      <point x="957" y="36"/>
      <point x="957" y="36"/>
      <point x="957" y="36" type="qcurve"/>
      <point x="957" y="1400" type="line"/>
    </contour>
    <contour>
      <point x="1888" y="1550" type="line"/>
      <point x="1960" y="1550" type="line"/>
      <point x="1681" y="1850" type="line"/>
      <point x="880" y="1850" type="line"/>
    </contour>
  </outline>
</glyph>
<glyph name="Uacute" format="2">
  <advance width="3355"/>
  <unicode hex="00DA"/>
  <anchor x="1678" y="1550" name="top"/>
  <anchor x="1677" y="-150" name="bottom"/>
  <anchor x="1677" y="0" name="ogonek"/>
  <anchor x="2684" y="1400" name="horn"/>
  <anchor x="1446" y="1500" name="topright"/>
  <outline>
    <contour>
      <point x="385" y="1400" type="line"/>
      <point x="385" y="343" type="line" smooth="yes"/>
      <point x="385" y="237"/>
      <point x="442" y="103"/>
      <point x="548" y="28"/>
      <point x="700" y="0"/>
      <point x="795" y="0" type="qcurve" smooth="yes"/>
      <point x="2558" y="0" type="line" smooth="yes"/>
      <point x="2751" y="0"/>
      <point x="2970" y="131"/>
      <point x="2970" y="343" type="qcurve" smooth="yes"/>
      <point x="2970" y="1400" type="line"/>
      <point x="2398" y="1400" type="line"/>
      <point x="2398" y="36" type="line"/>
      <point x="2398" y="36"/>
      <point x="2398" y="36"/>
      <point x="2398" y="36" type="qcurve"/>
      <point x="957" y="36" type="line"/>
      <point x="957" y="36"/>
      <point x="957" y="36"/>
      <point x="957" y="36" type="qcurve"/>
      <point x="957" y="1400" type="line"/>
    </contour>
    <contour>
      <point x="1396" y="1500" type="line"/>
      <point x="1468" y="1500" type="line"/>
      <point x="2476" y="1800" type="line"/>
      <point x="1675" y="1800" type="line"/>
    </contour>
  </outline>
</glyph>
<glyph name="Ucircumflex" format="2">
  <advance width="3355"/>
  <unicode hex="00DB"/>
  <anchor x="1678" y="1880" name="top"/>
  <anchor x="1677" y="-150" name="bottom"/>
  <anchor x="1677" y="-0" name="ogonek"/>
  <anchor x="2970" y="1400" name="horn"/>
  <anchor x="2591" y="1600" name="topright"/>
  <outline>
    <contour>
      <point x="385" y="1400" type="line"/>
      <point x="385" y="343" type="line" smooth="yes"/>
      <point x="385" y="236.875"/>
      <point x="441.688" y="103.156"/>
      <point x="547.812" y="27.5938"/>
      <point x="699.75" y="0"/>
      <point x="795" y="0" type="qcurve" smooth="yes"/>
      <point x="2558" y="0" type="line" smooth="yes"/>
      <point x="2750.75" y="0"/>
      <point x="2970" y="130.75"/>
      <point x="2970" y="343" type="qcurve" smooth="yes"/>
      <point x="2970" y="1400" type="line"/>
      <point x="2398" y="1400" type="line"/>
      <point x="2398" y="36" type="line"/>
      <point x="2398" y="36"/>
      <point x="2398" y="36"/>
      <point x="2398" y="36" type="qcurve"/>
      <point x="957" y="36" type="line"/>
      <point x="957" y="36"/>
      <point x="957" y="36"/>
      <point x="957" y="36" type="qcurve"/>
      <point x="957" y="1400" type="line"/>
    </contour>
    <contour>
      <point x="1076" y="1500" type="line"/>
      <point x="1128" y="1500" type="line"/>
      <point x="1523" y="1766" type="line"/>
      <point x="1894" y="1500" type="line"/>
      <point x="2591" y="1500" type="line"/>
      <point x="2105" y="1800" type="line"/>
      <point x="1520" y="1800" type="line"/>
    </contour>
  </outline>
</glyph>
<glyph name="Udieresis" format="2">
  <advance width="3355"/>
  <unicode hex="00DC"/>
  <anchor x="1678" y="1938" name="top"/>
  <anchor x="1677" y="-150" name="bottom"/>
  <anchor x="1677" y="0" name="ogonek"/>
  <anchor x="2684" y="1400" name="horn"/>
  <outline>
    <contour>
      <point x="385" y="1400" type="line"/>
      <point x="385" y="343" type="line" smooth="yes"/>
      <point x="385" y="237"/>
      <point x="442" y="103"/>
      <point x="548" y="28"/>
      <point x="700" y="0"/>
      <point x="795" y="0" type="qcurve" smooth="yes"/>
      <point x="2558" y="0" type="line" smooth="yes"/>
      <point x="2751" y="0"/>
      <point x="2970" y="131"/>
      <point x="2970" y="343" type="qcurve" smooth="yes"/>
      <point x="2970" y="1400" type="line"/>
      <point x="2398" y="1400" type="line"/>
      <point x="2398" y="36" type="line"/>
      <point x="2398" y="36"/>
      <point x="2398" y="36"/>
      <point x="2398" y="36" type="qcurve"/>
      <point x="957" y="36" type="line"/>
      <point x="957" y="36"/>
      <point x="957" y="36"/>
      <point x="957" y="36" type="qcurve"/>
      <point x="957" y="1400" type="line"/>
    </contour>
    <contour>
      <point x="1272" y="1488" type="qcurve" smooth="yes"/>
      <point x="1454" y="1488" type="line" smooth="yes"/>
      <point x="1535" y="1488"/>
      <point x="1564" y="1517"/>
      <point x="1564" y="1598" type="qcurve" smooth="yes"/>
      <point x="1564" y="1740" type="line" smooth="yes"/>
      <point x="1564" y="1820"/>
      <point x="1535" y="1848"/>
      <point x="1454" y="1848" type="qcurve" smooth="yes"/>
      <point x="1272" y="1848" type="line" smooth="yes"/>
      <point x="1191" y="1848"/>
      <point x="1162" y="1820"/>
      <point x="1162" y="1740" type="qcurve" smooth="yes"/>
      <point x="1162" y="1598" type="line" smooth="yes"/>
      <point x="1162" y="1517"/>
      <point x="1191" y="1488"/>
    </contour>
    <contour>
      <point x="1902" y="1488" type="qcurve" smooth="yes"/>
      <point x="2084" y="1488" type="line" smooth="yes"/>
      <point x="2165" y="1488"/>
      <point x="2194" y="1517"/>
      <point x="2194" y="1598" type="qcurve" smooth="yes"/>
      <point x="2194" y="1740" type="line" smooth="yes"/>
      <point x="2194" y="1820"/>
      <point x="2165" y="1848"/>
      <point x="2084" y="1848" type="qcurve" smooth="yes"/>
      <point x="1902" y="1848" type="line" smooth="yes"/>
      <point x="1821" y="1848"/>
      <point x="1792" y="1820"/>
      <point x="1792" y="1740" type="qcurve" smooth="yes"/>
      <point x="1792" y="1598" type="line" smooth="yes"/>
      <point x="1792" y="1517"/>
      <point x="1821" y="1488"/>
    </contour>
  </outline>
</glyph>
<glyph name="Yacute" format="2">
  <advance width="2706"/>
  <unicode hex="00DD"/>
  <anchor x="1473" y="1550" name="top"/>
  <anchor x="1460" y="-150" name="bottom"/>
  <anchor x="1241" y="1550" name="topright"/>
  <outline>
    <contour>
      <point x="1174" y="0" type="line"/>
      <point x="1746" y="0" type="line"/>
      <point x="1746" y="641" type="line"/>
      <point x="2700" y="1400" type="line"/>
      <point x="2642" y="1400" type="line"/>
      <point x="1730" y="674" type="line"/>
      <point x="835" y="1400" type="line"/>
      <point x="6" y="1400" type="line"/>
      <point x="1174" y="472" type="line"/>
    </contour>
    <contour>
      <point x="1191" y="1550" type="line"/>
      <point x="1263" y="1550" type="line"/>
      <point x="2271" y="1850" type="line"/>
      <point x="1470" y="1850" type="line"/>
    </contour>
  </outline>
  <guideline angle="90" color="1,0,0,1" x="1356" y="0"/>
</glyph>
<glyph name="Thorn" format="2">
  <advance width="3318"/>
  <unicode hex="00DE"/>
  <outline>
    <contour>
      <point x="320" y="0" type="line"/>
      <point x="892" y="0" type="line"/>
      <point x="892" y="281" type="line"/>
      <point x="2608" y="281" type="line" smooth="yes"/>
      <point x="2797" y="281"/>
      <point x="3022" y="414"/>
      <point x="3022" y="615" type="qcurve" smooth="yes"/>
      <point x="3022" y="827" type="line" smooth="yes"/>
      <point x="3022" y="1028"/>
      <point x="2797" y="1161"/>
      <point x="2608" y="1161" type="qcurve" smooth="yes"/>
      <point x="892" y="1161" type="line"/>
      <point x="892" y="1400" type="line"/>
      <point x="320" y="1400" type="line"/>
    </contour>
    <contour>
      <point x="892" y="317" type="line"/>
      <point x="892" y="1125" type="line"/>
      <point x="2234" y="1125" type="line" smooth="yes"/>
      <point x="2348.7" y="1125"/>
      <point x="2466" y="1015.55"/>
      <point x="2466" y="925" type="qcurve" smooth="yes"/>
      <point x="2466" y="517" type="line" smooth="yes"/>
      <point x="2466" y="426.448"/>
      <point x="2348.7" y="317"/>
      <point x="2234" y="317" type="qcurve" smooth="yes"/>
    </contour>
  </outline>
  <guideline angle="90" color="0.4,0.4,0.4,1" name="halfwidth" x="1659" y="0"/>
</glyph>
<glyph name="germandbls" format="2">
  <advance width="2462"/>
  <unicode hex="00DF"/>
  <outline>
    <contour>
      <point x="308" y="0" type="line"/>
      <point x="832" y="0" type="line"/>
      <point x="832" y="1440" type="line"/>
      <point x="832" y="1440"/>
      <point x="832" y="1440"/>
      <point x="832" y="1440" type="qcurve"/>
      <point x="1652" y="1440" type="line"/>
      <point x="1652" y="1440"/>
      <point x="1652" y="1440"/>
      <point x="1652" y="1440" type="qcurve"/>
      <point x="1652" y="974" type="line"/>
      <point x="1652" y="974"/>
      <point x="1652" y="974"/>
      <point x="1652" y="974" type="qcurve"/>
      <point x="1156" y="974" type="line"/>
      <point x="1156" y="942" type="line"/>
      <point x="1652" y="942" type="line"/>
      <point x="1652" y="942"/>
      <point x="1652" y="942"/>
      <point x="1652" y="942" type="qcurve"/>
      <point x="1652" y="22" type="line"/>
      <point x="1652" y="22"/>
      <point x="1652" y="22"/>
      <point x="1652" y="22" type="qcurve"/>
      <point x="1066" y="22" type="line"/>
      <point x="1066" y="-10" type="line"/>
      <point x="1896" y="-10" type="line" smooth="yes"/>
      <point x="2026" y="-10"/>
      <point x="2176" y="77"/>
      <point x="2176" y="222" type="qcurve" smooth="yes"/>
      <point x="2176" y="752" type="line" smooth="yes"/>
      <point x="2176" y="853"/>
      <point x="2096" y="947"/>
      <point x="2027" y="963" type="qcurve"/>
      <point x="2105" y="989"/>
      <point x="2176" y="1107"/>
      <point x="2176" y="1206" type="qcurve" smooth="yes"/>
      <point x="2176" y="1218" type="line" smooth="yes"/>
      <point x="2176" y="1349"/>
      <point x="2030" y="1472"/>
      <point x="1870" y="1472" type="qcurve" smooth="yes"/>
      <point x="614" y="1472" type="line" smooth="yes"/>
      <point x="454" y="1472"/>
      <point x="308" y="1349"/>
      <point x="308" y="1218" type="qcurve" smooth="yes"/>
    </contour>
  </outline>
</glyph>
<glyph name="atilde" format="2">
  <advance width="2494"/>
  <unicode hex="00E3"/>
  <anchor x="1243" y="1571" name="top"/>
  <anchor x="1236" y="-150" name="bottom"/>
  <anchor x="1700" y="0" name="ogonek"/>
  <outline>
    <contour>
      <point x="582" y="0" type="qcurve" smooth="yes"/>
      <point x="1586" y="0" type="line" smooth="yes"/>
      <point x="1613" y="0"/>
      <point x="1651" y="14"/>
      <point x="1662" y="28" type="qcurve"/>
      <point x="1662" y="0" type="line"/>
      <point x="2186" y="0" type="line"/>
      <point x="2186" y="754" type="line" smooth="yes"/>
      <point x="2186" y="923"/>
      <point x="2023" y="1030"/>
      <point x="1890" y="1030" type="qcurve" smooth="yes"/>
      <point x="616" y="1030" type="line" smooth="yes"/>
      <point x="483" y="1030"/>
      <point x="320" y="923"/>
      <point x="320" y="758" type="qcurve" smooth="yes"/>
      <point x="320" y="756" type="line"/>
      <point x="844" y="661" type="line"/>
      <point x="844" y="998" type="line"/>
      <point x="844" y="998"/>
      <point x="844" y="998"/>
      <point x="844" y="998" type="qcurve"/>
      <point x="1662" y="998" type="line"/>
      <point x="1662" y="998"/>
      <point x="1662" y="998"/>
      <point x="1662" y="998" type="qcurve"/>
      <point x="1662" y="566" type="line"/>
      <point x="582" y="566" type="line" smooth="yes"/>
      <point x="459" y="566"/>
      <point x="286" y="468"/>
      <point x="286" y="322" type="qcurve" smooth="yes"/>
      <point x="286" y="254" type="line" smooth="yes"/>
      <point x="286" y="105"/>
      <point x="458" y="0"/>
    </contour>
    <contour>
      <point x="820" y="32" type="qcurve"/>
      <point x="820" y="534" type="line"/>
      <point x="820" y="534"/>
      <point x="820" y="534"/>
      <point x="820" y="534" type="qcurve"/>
      <point x="1662" y="534" type="line"/>
      <point x="1662" y="32" type="line"/>
      <point x="820" y="32" type="line"/>
      <point x="820" y="32"/>
      <point x="820" y="32"/>
    </contour>
    <contour>
      <point x="693" y="1149" type="qcurve"/>
      <point x="723" y="1144" type="line"/>
      <point x="728" y="1171"/>
      <point x="774" y="1248"/>
      <point x="843" y="1248" type="qcurve" smooth="yes"/>
      <point x="894" y="1248"/>
      <point x="1038" y="1202"/>
      <point x="1197" y="1147"/>
      <point x="1357" y="1101"/>
      <point x="1426" y="1101" type="qcurve" smooth="yes"/>
      <point x="1582" y="1101"/>
      <point x="1766" y="1281"/>
      <point x="1793" y="1418" type="qcurve"/>
      <point x="1763" y="1423" type="line"/>
      <point x="1758" y="1396"/>
      <point x="1712" y="1319"/>
      <point x="1643" y="1319" type="qcurve" smooth="yes"/>
      <point x="1592" y="1319"/>
      <point x="1448" y="1365"/>
      <point x="1289" y="1420"/>
      <point x="1129" y="1466"/>
      <point x="1060" y="1466" type="qcurve" smooth="yes"/>
      <point x="904" y="1466"/>
      <point x="720" y="1298"/>
    </contour>
  </outline>
  <guideline angle="90" color="1,0,0,1" x="1682" y="0"/>
  <guideline angle="90" x="823" y="0"/>
  <guideline angle="90" x="1793" y="0"/>
  <guideline angle="90" x="853" y="0"/>
  <guideline angle="90" x="1763" y="0"/>
</glyph>
<glyph name="aring" format="2">
  <advance width="2494"/>
  <unicode hex="00E5"/>
  <anchor x="1243" y="1618" name="top"/>
  <anchor x="1236" y="-150" name="bottom"/>
  <anchor x="1662" y="0" name="ogonek"/>
  <outline>
    <contour>
      <point x="582" y="0" type="qcurve" smooth="yes"/>
      <point x="1586" y="0" type="line" smooth="yes"/>
      <point x="1613" y="0"/>
      <point x="1651" y="14"/>
      <point x="1662" y="28" type="qcurve"/>
      <point x="1662" y="0" type="line"/>
      <point x="2186" y="0" type="line"/>
      <point x="2186" y="754" type="line" smooth="yes"/>
      <point x="2186" y="923"/>
      <point x="2023" y="1030"/>
      <point x="1890" y="1030" type="qcurve" smooth="yes"/>
      <point x="616" y="1030" type="line" smooth="yes"/>
      <point x="483" y="1030"/>
      <point x="320" y="923"/>
      <point x="320" y="758" type="qcurve" smooth="yes"/>
      <point x="320" y="756" type="line"/>
      <point x="844" y="661" type="line"/>
      <point x="844" y="998" type="line"/>
      <point x="844" y="998"/>
      <point x="844" y="998"/>
      <point x="844" y="998" type="qcurve"/>
      <point x="1662" y="998" type="line"/>
      <point x="1662" y="998"/>
      <point x="1662" y="998"/>
      <point x="1662" y="998" type="qcurve"/>
      <point x="1662" y="566" type="line"/>
      <point x="582" y="566" type="line" smooth="yes"/>
      <point x="459" y="566"/>
      <point x="286" y="468"/>
      <point x="286" y="322" type="qcurve" smooth="yes"/>
      <point x="286" y="254" type="line" smooth="yes"/>
      <point x="286" y="105"/>
      <point x="458" y="0"/>
    </contour>
    <contour>
      <point x="820" y="32" type="qcurve"/>
      <point x="820" y="534" type="line"/>
      <point x="820" y="534"/>
      <point x="820" y="534"/>
      <point x="820" y="534" type="qcurve"/>
      <point x="1662" y="534" type="line"/>
      <point x="1662" y="32" type="line"/>
      <point x="820" y="32" type="line"/>
      <point x="820" y="32"/>
      <point x="820" y="32"/>
    </contour>
    <contour>
      <point x="1243" y="1122" type="qcurve" smooth="yes"/>
      <point x="1343" y="1122"/>
      <point x="1463" y="1132"/>
      <point x="1527" y="1171"/>
      <point x="1547" y="1248"/>
      <point x="1547" y="1315" type="qcurve" smooth="yes"/>
      <point x="1547" y="1382"/>
      <point x="1527" y="1459"/>
      <point x="1463" y="1498"/>
      <point x="1343" y="1508"/>
      <point x="1243" y="1508" type="qcurve" smooth="yes"/>
      <point x="1143" y="1508"/>
      <point x="1023" y="1498"/>
      <point x="959" y="1459"/>
      <point x="939" y="1382"/>
      <point x="939" y="1315" type="qcurve" smooth="yes"/>
      <point x="939" y="1248"/>
      <point x="959" y="1171"/>
      <point x="1023" y="1132"/>
      <point x="1143" y="1122"/>
    </contour>
    <contour>
      <point x="1243" y="1150" type="qcurve" smooth="yes"/>
      <point x="1178" y="1150"/>
      <point x="1153" y="1203"/>
      <point x="1153" y="1315" type="qcurve" smooth="yes"/>
      <point x="1153" y="1429"/>
      <point x="1178" y="1480"/>
      <point x="1243" y="1480" type="qcurve" smooth="yes"/>
      <point x="1308" y="1480"/>
      <point x="1333" y="1429"/>
      <point x="1333" y="1315" type="qcurve" smooth="yes"/>
      <point x="1333" y="1203"/>
      <point x="1308" y="1150"/>
    </contour>
  </outline>
  <guideline angle="90" color="1,0,0,1" x="1682" y="0"/>
</glyph>
<glyph name="ae" format="2">
  <advance width="3670"/>
  <unicode hex="00E6"/>
  <anchor x="1941" y="1174" name="top"/>
  <anchor x="1921" y="-150" name="bottom"/>
  <outline>
    <contour>
      <point x="624" y="0" type="qcurve" smooth="yes"/>
      <point x="1586" y="0" type="line" smooth="yes"/>
      <point x="1662.21" y="0"/>
      <point x="1800.74" y="56.9326"/>
      <point x="1843" y="109" type="qcurve"/>
      <point x="1887.52" y="56.9326"/>
      <point x="2031.52" y="0"/>
      <point x="2110" y="0" type="qcurve" smooth="yes"/>
      <point x="3033" y="0" type="line" smooth="yes"/>
      <point x="3097.5" y="0"/>
      <point x="3218.62" y="21.625"/>
      <point x="3312.38" y="76.375"/>
      <point x="3369" y="170"/>
      <point x="3369" y="242" type="qcurve" smooth="yes"/>
      <point x="3369" y="274" type="line"/>
      <point x="2845" y="346" type="line"/>
      <point x="2845" y="32" type="line"/>
      <point x="2845" y="32"/>
      <point x="2845" y="32"/>
      <point x="2845" y="32" type="qcurve"/>
      <point x="2110" y="32" type="line"/>
      <point x="2110" y="32"/>
      <point x="2110" y="32"/>
      <point x="2110" y="32" type="qcurve"/>
      <point x="2110" y="499" type="line"/>
      <point x="3374" y="499" type="line"/>
      <point x="3374" y="724" type="line" smooth="yes"/>
      <point x="3374" y="793.75"/>
      <point x="3304.75" y="904.938"/>
      <point x="3183.25" y="982.562"/>
      <point x="3018" y="1024"/>
      <point x="2922" y="1024" type="qcurve" smooth="yes"/>
      <point x="2110" y="1024" type="line" smooth="yes"/>
      <point x="2031.52" y="1024"/>
      <point x="1887.52" y="970.313"/>
      <point x="1843" y="919" type="qcurve"/>
      <point x="1800.74" y="969.558"/>
      <point x="1661.46" y="1024"/>
      <point x="1586" y="1024" type="qcurve" smooth="yes"/>
      <point x="660" y="1024" type="line" smooth="yes"/>
      <point x="597.75" y="1024"/>
      <point x="476.562" y="1003.25"/>
      <point x="380.938" y="950.75"/>
      <point x="322" y="861"/>
      <point x="322" y="792" type="qcurve" smooth="yes"/>
      <point x="322" y="756" type="line"/>
      <point x="846" y="684" type="line"/>
      <point x="846" y="992" type="line"/>
      <point x="846" y="992"/>
      <point x="846" y="992"/>
      <point x="846" y="992" type="qcurve"/>
      <point x="1586" y="992" type="line"/>
      <point x="1586" y="992"/>
      <point x="1586" y="992"/>
      <point x="1586" y="992" type="qcurve"/>
      <point x="1586" y="531" type="line"/>
      <point x="624" y="531" type="line" smooth="yes"/>
      <point x="561.75" y="531"/>
      <point x="440.562" y="514.5"/>
      <point x="344.938" y="466.5"/>
      <point x="286" y="379.5"/>
      <point x="286" y="309" type="qcurve" smooth="yes"/>
      <point x="286" y="233" type="line" smooth="yes"/>
      <point x="286" y="161"/>
      <point x="342.688" y="70.1875"/>
      <point x="436.812" y="18.8125"/>
      <point x="558.75" y="0"/>
    </contour>
    <contour>
      <point x="810" y="32" type="line"/>
      <point x="810" y="32"/>
      <point x="810" y="32"/>
      <point x="810" y="32" type="qcurve"/>
      <point x="810" y="499" type="line"/>
      <point x="810" y="499"/>
      <point x="810" y="499"/>
      <point x="810" y="499" type="qcurve"/>
      <point x="1586" y="499" type="line"/>
      <point x="1586" y="32" type="line"/>
      <point x="1586" y="32"/>
      <point x="1586" y="32"/>
      <point x="1586" y="32" type="qcurve"/>
    </contour>
    <contour>
      <point x="2110" y="531" type="line"/>
      <point x="2110" y="992" type="line"/>
      <point x="2110" y="992"/>
      <point x="2110" y="992"/>
      <point x="2110" y="992" type="qcurve"/>
      <point x="2850" y="992" type="line"/>
      <point x="2850" y="992"/>
      <point x="2850" y="992"/>
      <point x="2850" y="992" type="qcurve"/>
      <point x="2850" y="531" type="line"/>
    </contour>
  </outline>
</glyph>
<glyph name="ccedilla" format="2">
  <advance width="2428"/>
  <unicode hex="00E7"/>
  <anchor x="1251" y="1174" name="top"/>
  <anchor x="1251" y="-150" name="bottom"/>
  <anchor x="1251" y="0" name="ogrev"/>
  <outline>
    <contour>
      <point x="296" y="270" type="line" smooth="yes"/>
      <point x="296" y="123.608"/>
      <point x="441.914" y="0"/>
      <point x="620" y="0" type="qcurve" smooth="yes"/>
      <point x="1882" y="0" type="line" smooth="yes"/>
      <point x="2060.09" y="0"/>
      <point x="2206" y="123.608"/>
      <point x="2206" y="270" type="qcurve" smooth="yes"/>
      <point x="2206" y="366" type="line"/>
      <point x="1682" y="474" type="line"/>
      <point x="1682" y="32" type="line"/>
      <point x="1682" y="32"/>
      <point x="1682" y="32"/>
      <point x="1682" y="32" type="qcurve"/>
      <point x="820" y="32" type="line"/>
      <point x="820" y="32"/>
      <point x="820" y="32"/>
      <point x="820" y="32" type="qcurve"/>
      <point x="820" y="992" type="line"/>
      <point x="820" y="992"/>
      <point x="820" y="992"/>
      <point x="820" y="992" type="qcurve"/>
      <point x="1678" y="992" type="line"/>
      <point x="1678" y="992"/>
      <point x="1678" y="992"/>
      <point x="1678" y="992" type="qcurve"/>
      <point x="1678" y="552" type="line"/>
      <point x="2202" y="650" type="line"/>
      <point x="2202" y="768" type="line" smooth="yes"/>
      <point x="2202" y="906.846"/>
      <point x="2055.07" y="1024"/>
      <point x="1880" y="1024" type="qcurve" smooth="yes"/>
      <point x="622" y="1024" type="line" smooth="yes"/>
      <point x="446.933" y="1024"/>
      <point x="296" y="904.356"/>
      <point x="296" y="764" type="qcurve" smooth="yes"/>
    </contour>
    <contour>
      <point x="1252.17" y="-438" type="qcurve" smooth="yes"/>
      <point x="1385.95" y="-438"/>
      <point x="1519" y="-353.536"/>
      <point x="1519" y="-268.613" type="qcurve" smooth="yes"/>
      <point x="1519" y="-166.164"/>
      <point x="1346.07" y="-65.5335"/>
      <point x="1190.43" y="-81.4206" type="qcurve"/>
      <point x="1267.96" y="15" type="line"/>
      <point x="1249.96" y="15" type="line"/>
      <point x="1231.96" y="15" type="line"/>
      <point x="1128" y="-112" type="line"/>
      <point x="1139.8" y="-110.108"/>
      <point x="1156.15" y="-108"/>
      <point x="1167.09" y="-108" type="qcurve" smooth="yes"/>
      <point x="1230.92" y="-108"/>
      <point x="1297" y="-182.091"/>
      <point x="1297" y="-253.652" type="qcurve" smooth="yes"/>
      <point x="1297" y="-325.195"/>
      <point x="1232.37" y="-403"/>
      <point x="1172.94" y="-403" type="qcurve" smooth="yes"/>
      <point x="1149.51" y="-403"/>
      <point x="1103.85" y="-389.483"/>
      <point x="1075" y="-374" type="qcurve"/>
      <point x="1063.35" y="-398.708" type="line"/>
      <point x="1107.33" y="-420.085"/>
      <point x="1193.43" y="-438"/>
    </contour>
  </outline>
  <guideline angle="0" x="0" y="25"/>
</glyph>
<glyph name="edieresis" format="2">
  <advance width="2520"/>
  <unicode hex="00EB"/>
  <anchor x="1260" y="1572" name="top"/>
  <anchor x="1260" y="-150" name="bottom"/>
  <anchor x="1740" y="0" name="ogonek"/>
  <outline>
    <contour>
      <point x="296" y="310" type="line" smooth="yes"/>
      <point x="296" y="147.006"/>
      <point x="476.675" y="0"/>
      <point x="694" y="0" type="qcurve" smooth="yes"/>
      <point x="1806" y="0" type="line" smooth="yes"/>
      <point x="2023.32" y="0"/>
      <point x="2224" y="125.08"/>
      <point x="2224" y="276" type="qcurve" smooth="yes"/>
      <point x="2224" y="280" type="line"/>
      <point x="1700" y="368" type="line"/>
      <point x="1700" y="32" type="line"/>
      <point x="1700" y="32"/>
      <point x="1700" y="32"/>
      <point x="1700" y="32" type="qcurve"/>
      <point x="820" y="32" type="line"/>
      <point x="820" y="32"/>
      <point x="820" y="32"/>
      <point x="820" y="32" type="qcurve"/>
      <point x="820" y="516" type="line"/>
      <point x="2224" y="516" type="line"/>
      <point x="2224" y="724" type="line" smooth="yes"/>
      <point x="2224" y="882.466"/>
      <point x="2023.32" y="1024"/>
      <point x="1806" y="1024" type="qcurve" smooth="yes"/>
      <point x="694" y="1024" type="line" smooth="yes"/>
      <point x="478.184" y="1024"/>
      <point x="296" y="880.957"/>
      <point x="296" y="724" type="qcurve" smooth="yes"/>
    </contour>
    <contour>
      <point x="820" y="548" type="line"/>
      <point x="820" y="992" type="line"/>
      <point x="820" y="992"/>
      <point x="820" y="992"/>
      <point x="820" y="992" type="qcurve"/>
      <point x="1700" y="992" type="line"/>
      <point x="1700" y="992"/>
      <point x="1700" y="992"/>
      <point x="1700" y="992" type="qcurve"/>
      <point x="1700" y="548" type="line"/>
    </contour>
    <contour>
      <point x="784" y="1222" type="line" smooth="yes"/>
      <point x="784" y="1140.5"/>
      <point x="812.503" y="1112"/>
      <point x="894" y="1112" type="qcurve" smooth="yes"/>
      <point x="1046" y="1112" type="line" smooth="yes"/>
      <point x="1127.5" y="1112"/>
      <point x="1156" y="1140.5"/>
      <point x="1156" y="1222" type="qcurve" smooth="yes"/>
      <point x="1156" y="1344" type="line" smooth="yes"/>
      <point x="1156" y="1423.99"/>
      <point x="1127.5" y="1452"/>
      <point x="1046" y="1452" type="qcurve" smooth="yes"/>
      <point x="894" y="1452" type="line" smooth="yes"/>
      <point x="812.503" y="1452"/>
      <point x="784" y="1423.99"/>
      <point x="784" y="1344" type="qcurve" smooth="yes"/>
    </contour>
    <contour>
      <point x="1364" y="1222" type="line" smooth="yes"/>
      <point x="1364" y="1140.5"/>
      <point x="1392.5" y="1112"/>
      <point x="1474" y="1112" type="qcurve" smooth="yes"/>
      <point x="1626" y="1112" type="line" smooth="yes"/>
      <point x="1707.5" y="1112"/>
      <point x="1736" y="1140.5"/>
      <point x="1736" y="1222" type="qcurve" smooth="yes"/>
      <point x="1736" y="1344" type="line" smooth="yes"/>
      <point x="1736" y="1423.99"/>
      <point x="1707.5" y="1452"/>
      <point x="1626" y="1452" type="qcurve" smooth="yes"/>
      <point x="1474" y="1452" type="line" smooth="yes"/>
      <point x="1392.5" y="1452"/>
      <point x="1364" y="1423.99"/>
      <point x="1364" y="1344" type="qcurve" smooth="yes"/>
    </contour>
  </outline>
  <guideline angle="0" color="1,0,0,1" x="0" y="-1024"/>
</glyph>
<glyph name="igrave" format="2">
  <advance width="1164"/>
  <unicode hex="00EC"/>
  <anchor x="582" y="-150" name="bottom"/>
  <anchor x="582" y="1174" name="top"/>
  <anchor x="358" y="0" name="ogonek"/>
  <outline>
    <contour>
      <point x="320" y="0" type="line"/>
      <point x="844" y="0" type="line"/>
      <point x="844" y="1024" type="line"/>
      <point x="320" y="1024" type="line"/>
    </contour>
    <contour>
      <point x="837" y="1124" type="line"/>
      <point x="506" y="1472" type="line"/>
      <point x="-255" y="1472" type="line"/>
      <point x="788" y="1124" type="line"/>
    </contour>
  </outline>
</glyph>
<glyph name="iacute" format="2">
  <advance width="1164"/>
  <unicode hex="00ED"/>
  <anchor x="582" y="-150" name="bottom"/>
  <anchor x="582" y="1174" name="top"/>
  <anchor x="358" y="0" name="ogonek"/>
  <outline>
    <contour>
      <point x="320" y="0" type="line"/>
      <point x="844" y="0" type="line"/>
      <point x="844" y="1024" type="line"/>
      <point x="320" y="1024" type="line"/>
    </contour>
    <contour>
      <point x="327" y="1124" type="line"/>
      <point x="376" y="1124" type="line"/>
      <point x="1419" y="1472" type="line"/>
      <point x="658" y="1472" type="line"/>
    </contour>
  </outline>
</glyph>
<glyph name="icircumflex" format="2">
  <advance width="1164"/>
  <unicode hex="00EE"/>
  <anchor x="582" y="-150" name="bottom"/>
  <anchor x="582" y="1622" name="top"/>
  <anchor x="320" y="0" name="ogonek"/>
  <anchor x="1378" y="1348" name="topright"/>
  <outline>
    <contour>
      <point x="320" y="0" type="line"/>
      <point x="844" y="0" type="line"/>
      <point x="844" y="1024" type="line"/>
      <point x="320" y="1024" type="line"/>
    </contour>
    <contour>
      <point x="-107" y="1174" type="line"/>
      <point x="-55" y="1174" type="line"/>
      <point x="363" y="1502" type="line"/>
      <point x="781" y="1174" type="line"/>
      <point x="1378" y="1174" type="line"/>
      <point x="882" y="1522" type="line"/>
      <point x="337" y="1522" type="line"/>
    </contour>
  </outline>
</glyph>
<glyph name="idieresis" format="2">
  <advance width="1164"/>
  <unicode hex="00EF"/>
  <anchor x="582" y="-150" name="bottom"/>
  <anchor x="582" y="1572" name="top"/>
  <anchor x="358" y="0" name="ogonek"/>
  <outline>
    <contour>
      <point x="320" y="0" type="line"/>
      <point x="844" y="0" type="line"/>
      <point x="844" y="1024" type="line"/>
      <point x="320" y="1024" type="line"/>
    </contour>
    <contour>
      <point x="216" y="1112" type="qcurve" smooth="yes"/>
      <point x="368" y="1112" type="line" smooth="yes"/>
      <point x="449" y="1112"/>
      <point x="478" y="1141"/>
      <point x="478" y="1222" type="qcurve" smooth="yes"/>
      <point x="478" y="1344" type="line" smooth="yes"/>
      <point x="478" y="1424"/>
      <point x="449" y="1452"/>
      <point x="368" y="1452" type="qcurve" smooth="yes"/>
      <point x="216" y="1452" type="line" smooth="yes"/>
      <point x="135" y="1452"/>
      <point x="106" y="1424"/>
      <point x="106" y="1344" type="qcurve" smooth="yes"/>
      <point x="106" y="1222" type="line" smooth="yes"/>
      <point x="106" y="1141"/>
      <point x="135" y="1112"/>
    </contour>
    <contour>
      <point x="796" y="1112" type="qcurve" smooth="yes"/>
      <point x="948" y="1112" type="line" smooth="yes"/>
      <point x="1029" y="1112"/>
      <point x="1058" y="1141"/>
      <point x="1058" y="1222" type="qcurve" smooth="yes"/>
      <point x="1058" y="1344" type="line" smooth="yes"/>
      <point x="1058" y="1424"/>
      <point x="1029" y="1452"/>
      <point x="948" y="1452" type="qcurve" smooth="yes"/>
      <point x="796" y="1452" type="line" smooth="yes"/>
      <point x="715" y="1452"/>
      <point x="686" y="1424"/>
      <point x="686" y="1344" type="qcurve" smooth="yes"/>
      <point x="686" y="1222" type="line" smooth="yes"/>
      <point x="686" y="1141"/>
      <point x="715" y="1112"/>
    </contour>
  </outline>
</glyph>
<glyph name="eth" format="2">
  <advance width="2584"/>
  <unicode hex="00F0"/>
  <outline>
    <contour>
      <point x="602" y="0" type="qcurve" smooth="yes"/>
      <point x="1926" y="0" type="line" smooth="yes"/>
      <point x="2089" y="0"/>
      <point x="2232" y="125"/>
      <point x="2232" y="264" type="qcurve" smooth="yes"/>
      <point x="2232" y="526" type="line" smooth="yes"/>
      <point x="2232" y="806"/>
      <point x="2030" y="1176"/>
      <point x="1842" y="1286" type="qcurve"/>
      <point x="2288" y="1351" type="line"/>
      <point x="2283" y="1381" type="line"/>
      <point x="1798" y="1311" type="line"/>
      <point x="1676" y="1374"/>
      <point x="1376" y="1445"/>
      <point x="1198" y="1458" type="qcurve"/>
      <point x="791" y="1310" type="line"/>
      <point x="891" y="1290"/>
      <point x="1070" y="1245"/>
      <point x="1151" y="1217" type="qcurve"/>
      <point x="670" y="1147" type="line"/>
      <point x="675" y="1117" type="line"/>
      <point x="1211" y="1195" type="line"/>
      <point x="1302" y="1160"/>
      <point x="1450" y="1075"/>
      <point x="1509" y="1024" type="qcurve"/>
      <point x="602" y="1024" type="line" smooth="yes"/>
      <point x="442" y="1024"/>
      <point x="296" y="901"/>
      <point x="296" y="770" type="qcurve" smooth="yes"/>
      <point x="296" y="264" type="line" smooth="yes"/>
      <point x="296" y="125"/>
      <point x="441" y="0"/>
    </contour>
    <contour>
      <point x="1543" y="992" type="line"/>
      <point x="1624" y="911"/>
      <point x="1708" y="704"/>
      <point x="1708" y="571" type="qcurve" smooth="yes"/>
      <point x="1708" y="32" type="line"/>
      <point x="1708" y="32"/>
      <point x="1708" y="32"/>
      <point x="1708" y="32" type="qcurve"/>
      <point x="820" y="32" type="line"/>
      <point x="820" y="32"/>
      <point x="820" y="32"/>
      <point x="820" y="32" type="qcurve"/>
      <point x="820" y="992" type="line"/>
      <point x="820" y="992"/>
      <point x="820" y="992"/>
      <point x="820" y="992" type="qcurve"/>
    </contour>
  </outline>
</glyph>
<glyph name="ntilde" format="2">
  <advance width="2520"/>
  <unicode hex="00F1"/>
  <anchor x="1266" y="1571" name="top"/>
  <anchor x="1266" y="-150" name="bottom"/>
  <outline>
    <contour>
      <point x="320" y="0" type="line"/>
      <point x="844" y="0" type="line"/>
      <point x="844" y="992" type="line"/>
      <point x="1688" y="992" type="line"/>
      <point x="1688" y="992"/>
      <point x="1688" y="992"/>
      <point x="1688" y="992" type="qcurve"/>
      <point x="1688" y="0" type="line"/>
      <point x="2212" y="0" type="line"/>
      <point x="2212" y="724" type="line" smooth="yes"/>
      <point x="2212" y="878.5"/>
      <point x="2041" y="1024"/>
      <point x="1846" y="1024" type="qcurve" smooth="yes"/>
      <point x="920" y="1024" type="line" smooth="yes"/>
      <point x="892.834" y="1024"/>
      <point x="854.564" y="1009.58"/>
      <point x="844" y="996" type="qcurve"/>
      <point x="844" y="1024" type="line"/>
      <point x="320" y="1024" type="line"/>
    </contour>
    <contour>
      <point x="716" y="1149" type="qcurve"/>
      <point x="746" y="1144" type="line"/>
      <point x="751.282" y="1171.17"/>
      <point x="797.331" y="1248"/>
      <point x="866" y="1248" type="qcurve" smooth="yes"/>
      <point x="917.375" y="1248"/>
      <point x="1060.94" y="1202.06"/>
      <point x="1219.56" y="1146.94"/>
      <point x="1380.38" y="1101"/>
      <point x="1449" y="1101" type="qcurve" smooth="yes"/>
      <point x="1605" y="1101"/>
      <point x="1789" y="1280.75"/>
      <point x="1816" y="1418" type="qcurve"/>
      <point x="1786" y="1423" type="line"/>
      <point x="1780.72" y="1395.83"/>
      <point x="1734.67" y="1319"/>
      <point x="1666" y="1319" type="qcurve" smooth="yes"/>
      <point x="1614.62" y="1319"/>
      <point x="1471.06" y="1364.94"/>
      <point x="1312.44" y="1420.06"/>
      <point x="1151.62" y="1466"/>
      <point x="1083" y="1466" type="qcurve" smooth="yes"/>
      <point x="927" y="1466"/>
      <point x="743" y="1298.25"/>
    </contour>
  </outline>
  <guideline angle="0" x="0" y="988"/>
  <guideline angle="0" x="0" y="870"/>
  <guideline angle="90" x="846" y="0"/>
  <guideline angle="90" x="1816" y="0"/>
  <guideline angle="90" x="876" y="0"/>
  <guideline angle="90" x="1786" y="0"/>
</glyph>
<glyph name="divide" format="2">
  <advance width="2086"/>
  <unicode hex="00F7"/>
  <outline>
    <contour>
      <point x="1000" y="163" type="qcurve" smooth="yes"/>
      <point x="1085" y="163" type="line" smooth="yes"/>
      <point x="1095" y="163"/>
      <point x="1100" y="174"/>
      <point x="1100" y="194" type="qcurve" smooth="yes"/>
      <point x="1100" y="228" type="line" smooth="yes"/>
      <point x="1100" y="247"/>
      <point x="1095" y="257"/>
      <point x="1085" y="257" type="qcurve" smooth="yes"/>
      <point x="1001" y="257" type="line" smooth="yes"/>
      <point x="991" y="257"/>
      <point x="986" y="247"/>
      <point x="986" y="228" type="qcurve" smooth="yes"/>
      <point x="986" y="194" type="line" smooth="yes"/>
      <point x="986" y="174"/>
      <point x="991" y="163"/>
    </contour>
    <contour>
      <point x="260" y="569" type="line"/>
      <point x="1826" y="569" type="line"/>
      <point x="1826" y="605" type="line"/>
      <point x="260" y="605" type="line"/>
    </contour>
    <contour>
      <point x="1000" y="915" type="qcurve" smooth="yes"/>
      <point x="1085" y="915" type="line" smooth="yes"/>
      <point x="1095" y="915"/>
      <point x="1100" y="926"/>
      <point x="1100" y="946" type="qcurve" smooth="yes"/>
      <point x="1100" y="980" type="line" smooth="yes"/>
      <point x="1100" y="999"/>
      <point x="1095" y="1009"/>
      <point x="1085" y="1009" type="qcurve" smooth="yes"/>
      <point x="1001" y="1009" type="line" smooth="yes"/>
      <point x="991" y="1009"/>
      <point x="986" y="999"/>
      <point x="986" y="980" type="qcurve" smooth="yes"/>
      <point x="986" y="946" type="line" smooth="yes"/>
      <point x="986" y="926"/>
      <point x="991" y="915"/>
    </contour>
  </outline>
</glyph>
<glyph name="ucircumflex" format="2">
  <advance width="2459"/>
  <unicode hex="00FB"/>
  <anchor x="1230" y="1622" name="top"/>
  <anchor x="1230" y="-150" name="bottom"/>
  <anchor x="1249" y="0" name="ogonek"/>
  <anchor x="2151" y="1024" name="horn"/>
  <anchor x="2026" y="1348" name="topright"/>
  <outline>
    <contour>
      <point x="308" y="204" type="line" smooth="yes"/>
      <point x="308" y="77"/>
      <point x="437" y="0"/>
      <point x="552" y="0" type="qcurve" smooth="yes"/>
      <point x="1905" y="0" type="line" smooth="yes"/>
      <point x="2020" y="0"/>
      <point x="2151" y="77"/>
      <point x="2151" y="204" type="qcurve" smooth="yes"/>
      <point x="2151" y="1024" type="line"/>
      <point x="1627" y="1024" type="line"/>
      <point x="1627" y="32" type="line"/>
      <point x="1627" y="32"/>
      <point x="1627" y="32"/>
      <point x="1627" y="32" type="qcurve"/>
      <point x="832" y="32" type="line"/>
      <point x="832" y="32"/>
      <point x="832" y="32"/>
      <point x="832" y="32" type="qcurve"/>
      <point x="832" y="1024" type="line"/>
      <point x="308" y="1024" type="line"/>
    </contour>
    <contour>
      <point x="541" y="1174" type="line"/>
      <point x="593" y="1174" type="line"/>
      <point x="1011" y="1502" type="line"/>
      <point x="1429" y="1174" type="line"/>
      <point x="2026" y="1174" type="line"/>
      <point x="1530" y="1522" type="line"/>
      <point x="985" y="1522" type="line"/>
    </contour>
  </outline>
</glyph>
<glyph name="udieresis" format="2">
  <advance width="2459"/>
  <unicode hex="00FC"/>
  <anchor x="1230" y="1572" name="top"/>
  <anchor x="1230" y="-150" name="bottom"/>
  <anchor x="1249" y="0" name="ogonek"/>
  <anchor x="2151" y="1024" name="horn"/>
  <outline>
    <contour>
      <point x="308" y="204" type="line" smooth="yes"/>
      <point x="308" y="77.2272"/>
      <point x="437.301" y="0"/>
      <point x="552" y="0" type="qcurve" smooth="yes"/>
      <point x="1905" y="0" type="line" smooth="yes"/>
      <point x="2019.7" y="0"/>
      <point x="2151" y="77.2272"/>
      <point x="2151" y="204" type="qcurve" smooth="yes"/>
      <point x="2151" y="1024" type="line"/>
      <point x="1627" y="1024" type="line"/>
      <point x="1627" y="32" type="line"/>
      <point x="1627" y="32"/>
      <point x="1627" y="32"/>
      <point x="1627" y="32" type="qcurve"/>
      <point x="832" y="32" type="line"/>
      <point x="832" y="32"/>
      <point x="832" y="32"/>
      <point x="832" y="32" type="qcurve"/>
      <point x="832" y="1024" type="line"/>
      <point x="308" y="1024" type="line"/>
    </contour>
    <contour>
      <point x="754" y="1222" type="line" smooth="yes"/>
      <point x="754" y="1140.5"/>
      <point x="782.503" y="1112"/>
      <point x="864" y="1112" type="qcurve" smooth="yes"/>
      <point x="1016" y="1112" type="line" smooth="yes"/>
      <point x="1097.5" y="1112"/>
      <point x="1126" y="1140.5"/>
      <point x="1126" y="1222" type="qcurve" smooth="yes"/>
      <point x="1126" y="1344" type="line" smooth="yes"/>
      <point x="1126" y="1423.99"/>
      <point x="1097.5" y="1452"/>
      <point x="1016" y="1452" type="qcurve" smooth="yes"/>
      <point x="864" y="1452" type="line" smooth="yes"/>
      <point x="782.503" y="1452"/>
      <point x="754" y="1423.99"/>
      <point x="754" y="1344" type="qcurve" smooth="yes"/>
    </contour>
    <contour>
      <point x="1334" y="1222" type="line" smooth="yes"/>
      <point x="1334" y="1140.5"/>
      <point x="1362.5" y="1112"/>
      <point x="1444" y="1112" type="qcurve" smooth="yes"/>
      <point x="1596" y="1112" type="line" smooth="yes"/>
      <point x="1677.5" y="1112"/>
      <point x="1706" y="1140.5"/>
      <point x="1706" y="1222" type="qcurve" smooth="yes"/>
      <point x="1706" y="1344" type="line" smooth="yes"/>
      <point x="1706" y="1423.99"/>
      <point x="1677.5" y="1452"/>
      <point x="1596" y="1452" type="qcurve" smooth="yes"/>
      <point x="1444" y="1452" type="line" smooth="yes"/>
      <point x="1362.5" y="1452"/>
      <point x="1334" y="1423.99"/>
      <point x="1334" y="1344" type="qcurve" smooth="yes"/>
    </contour>
  </outline>
</glyph>
<glyph name="thorn" format="2">
  <advance width="2628"/>
  <unicode hex="00FE"/>
  <outline>
    <contour>
      <point x="320" y="-428" type="line"/>
      <point x="844" y="-428" type="line"/>
      <point x="844" y="24" type="line"/>
      <point x="850" y="12"/>
      <point x="888" y="0"/>
      <point x="920" y="0" type="qcurve" smooth="yes"/>
      <point x="2034" y="0" type="line" smooth="yes"/>
      <point x="2194" y="0"/>
      <point x="2340" y="123"/>
      <point x="2340" y="254" type="qcurve" smooth="yes"/>
      <point x="2340" y="760" type="line" smooth="yes"/>
      <point x="2340" y="899"/>
      <point x="2195" y="1024"/>
      <point x="2034" y="1024" type="qcurve" smooth="yes"/>
      <point x="920" y="1024" type="line" smooth="yes"/>
      <point x="893" y="1024"/>
      <point x="855" y="1010"/>
      <point x="844" y="996" type="qcurve"/>
      <point x="844" y="1472" type="line"/>
      <point x="320" y="1472" type="line"/>
    </contour>
    <contour>
      <point x="844" y="32" type="line"/>
      <point x="844" y="992" type="line"/>
      <point x="1816" y="992" type="line"/>
      <point x="1816" y="992"/>
      <point x="1816" y="992"/>
      <point x="1816" y="992" type="qcurve"/>
      <point x="1816" y="32" type="line"/>
      <point x="1816" y="32"/>
      <point x="1816" y="32"/>
      <point x="1816" y="32" type="qcurve"/>
    </contour>
  </outline>
</glyph>
<glyph name="Abreve" format="2">
  <advance width="2910"/>
  <unicode hex="0102"/>
  <anchor x="1448" y="1926" name="top"/>
  <anchor x="1380" y="-150" name="bottom"/>
  <anchor x="2116" y="0" name="ogonek_in"/>
  <outline>
    <contour>
      <point x="6" y="0" type="line"/>
      <point x="56" y="0" type="line"/>
      <point x="372" y="338" type="line"/>
      <point x="1808" y="338" type="line"/>
      <point x="2116" y="0" type="line"/>
      <point x="2904" y="0" type="line"/>
      <point x="1598" y="1400" type="line"/>
      <point x="1312" y="1400" type="line"/>
    </contour>
    <contour>
      <point x="405" y="374" type="line"/>
      <point x="1098" y="1116" type="line"/>
      <point x="1775" y="374" type="line"/>
    </contour>
    <contour>
      <point x="1448" y="1465" type="qcurve" smooth="yes"/>
      <point x="1616" y="1465"/>
      <point x="1829" y="1502"/>
      <point x="1949" y="1587"/>
      <point x="1993" y="1725"/>
      <point x="1993" y="1826" type="qcurve"/>
      <point x="1667" y="1826" type="line"/>
      <point x="1667" y="1729"/>
      <point x="1638" y="1604"/>
      <point x="1583" y="1530"/>
      <point x="1501" y="1501"/>
      <point x="1448" y="1501" type="qcurve" smooth="yes"/>
      <point x="1394" y="1501"/>
      <point x="1311" y="1530"/>
      <point x="1255" y="1604"/>
      <point x="1226" y="1729"/>
      <point x="1226" y="1826" type="qcurve"/>
      <point x="900" y="1826" type="line"/>
      <point x="900" y="1725"/>
      <point x="945" y="1587"/>
      <point x="1066" y="1502"/>
      <point x="1279" y="1465"/>
    </contour>
  </outline>
</glyph>
<glyph name="abreve" format="2">
  <advance width="2494"/>
  <unicode hex="0103"/>
  <anchor x="1243" y="1561" name="top"/>
  <anchor x="1236" y="-150" name="bottom"/>
  <anchor x="1700" y="0" name="ogonek"/>
  <outline>
    <contour>
      <point x="582" y="0" type="qcurve" smooth="yes"/>
      <point x="1586" y="0" type="line" smooth="yes"/>
      <point x="1613.17" y="0"/>
      <point x="1651.44" y="14.4172"/>
      <point x="1662" y="28" type="qcurve"/>
      <point x="1662" y="0" type="line"/>
      <point x="2186" y="0" type="line"/>
      <point x="2186" y="754" type="line" smooth="yes"/>
      <point x="2186" y="923.03"/>
      <point x="2022.81" y="1030"/>
      <point x="1890" y="1030" type="qcurve" smooth="yes"/>
      <point x="616" y="1030" type="line" smooth="yes"/>
      <point x="483.19" y="1030"/>
      <point x="320" y="922.503"/>
      <point x="320" y="758" type="qcurve" smooth="yes"/>
      <point x="320" y="756" type="line"/>
      <point x="844" y="661" type="line"/>
      <point x="844" y="998" type="line"/>
      <point x="844" y="998"/>
      <point x="844" y="998"/>
      <point x="844" y="998" type="qcurve"/>
      <point x="1662" y="998" type="line"/>
      <point x="1662" y="998"/>
      <point x="1662" y="998"/>
      <point x="1662" y="998" type="qcurve"/>
      <point x="1662" y="566" type="line"/>
      <point x="582" y="566" type="line" smooth="yes"/>
      <point x="459" y="566"/>
      <point x="286" y="467.5"/>
      <point x="286" y="322" type="qcurve" smooth="yes"/>
      <point x="286" y="254" type="line" smooth="yes"/>
      <point x="286" y="104.589"/>
      <point x="458.246" y="0"/>
    </contour>
    <contour>
      <point x="820" y="32" type="qcurve"/>
      <point x="820" y="534" type="line"/>
      <point x="820" y="534"/>
      <point x="820" y="534"/>
      <point x="820" y="534" type="qcurve"/>
      <point x="1662" y="534" type="line"/>
      <point x="1662" y="32" type="line"/>
      <point x="820" y="32" type="line"/>
      <point x="820" y="32"/>
      <point x="820" y="32"/>
    </contour>
    <contour>
      <point x="1244" y="1099" type="qcurve" smooth="yes"/>
      <point x="1389.12" y="1099"/>
      <point x="1574.78" y="1137.59"/>
      <point x="1681.47" y="1223.66"/>
      <point x="1722" y="1361.62"/>
      <point x="1722" y="1461" type="qcurve"/>
      <point x="1457" y="1461" type="line"/>
      <point x="1457" y="1350.75"/>
      <point x="1425.31" y="1220.06"/>
      <point x="1368.69" y="1151.44"/>
      <point x="1290.5" y="1131"/>
      <point x="1244" y="1131" type="qcurve" smooth="yes"/>
      <point x="1196.38" y="1131"/>
      <point x="1117.28" y="1151.44"/>
      <point x="1060.47" y="1220.06"/>
      <point x="1029" y="1350.75"/>
      <point x="1029" y="1461" type="qcurve"/>
      <point x="764" y="1461" type="line"/>
      <point x="764" y="1361.62"/>
      <point x="805.156" y="1223.66"/>
      <point x="912.594" y="1137.59"/>
      <point x="1098.88" y="1099"/>
    </contour>
  </outline>
  <guideline angle="90" color="1,0,0,1" x="1682" y="0"/>
</glyph>
<glyph name="Aogonek" format="2">
  <advance width="2910"/>
  <unicode hex="0104"/>
  <anchor x="1448" y="1550" name="top"/>
  <anchor x="1380" y="-150" name="bottom"/>
  <anchor x="2116" y="0" name="ogonek_in"/>
  <outline>
    <contour>
      <point x="6" y="0" type="line"/>
      <point x="56" y="0" type="line"/>
      <point x="372" y="338" type="line"/>
      <point x="1808" y="338" type="line"/>
      <point x="2116" y="0" type="line"/>
      <point x="2904" y="0" type="line"/>
      <point x="1598" y="1400" type="line"/>
      <point x="1312" y="1400" type="line"/>
    </contour>
    <contour>
      <point x="405" y="374" type="line"/>
      <point x="1098" y="1116" type="line"/>
      <point x="1775" y="374" type="line"/>
    </contour>
    <contour>
      <point x="2248.2" y="-428" type="qcurve" smooth="yes"/>
      <point x="2302.98" y="-428"/>
      <point x="2390.61" y="-415.092"/>
      <point x="2442.9" y="-400" type="qcurve"/>
      <point x="2566.1" y="-154" type="line"/>
      <point x="2507.17" y="-172.11"/>
      <point x="2397.64" y="-190"/>
      <point x="2332.9" y="-190" type="qcurve" smooth="yes"/>
      <point x="2253.21" y="-190"/>
      <point x="2120.6" y="-149.669"/>
      <point x="2120.6" y="-81" type="qcurve" smooth="yes"/>
      <point x="2120.6" y="-57.6074"/>
      <point x="2138.91" y="-19.6196"/>
      <point x="2158" y="0" type="qcurve"/>
      <point x="2116.2" y="0" type="line"/>
      <point x="2073.04" y="-53.5766"/>
      <point x="1970.16" y="-182.178"/>
      <point x="1927" y="-235" type="qcurve"/>
      <point x="1927" y="-345.926"/>
      <point x="2117.88" y="-428"/>
    </contour>
  </outline>
</glyph>
<glyph name="aogonek" format="2">
  <advance width="2494"/>
  <unicode hex="0105"/>
  <anchor x="1243" y="1174" name="top"/>
  <anchor x="1236" y="-150" name="bottom"/>
  <anchor x="1662" y="0" name="ogonek"/>
  <outline>
    <contour>
      <point x="582" y="0" type="qcurve" smooth="yes"/>
      <point x="1586" y="0" type="line" smooth="yes"/>
      <point x="1613" y="0"/>
      <point x="1651" y="14"/>
      <point x="1662" y="28" type="qcurve"/>
      <point x="1662" y="0" type="line"/>
      <point x="2186" y="0" type="line"/>
      <point x="2186" y="754" type="line" smooth="yes"/>
      <point x="2186" y="923"/>
      <point x="2023" y="1030"/>
      <point x="1890" y="1030" type="qcurve" smooth="yes"/>
      <point x="616" y="1030" type="line" smooth="yes"/>
      <point x="483" y="1030"/>
      <point x="320" y="923"/>
      <point x="320" y="758" type="qcurve" smooth="yes"/>
      <point x="320" y="756" type="line"/>
      <point x="844" y="661" type="line"/>
      <point x="844" y="998" type="line"/>
      <point x="844" y="998"/>
      <point x="844" y="998"/>
      <point x="844" y="998" type="qcurve"/>
      <point x="1662" y="998" type="line"/>
      <point x="1662" y="998"/>
      <point x="1662" y="998"/>
      <point x="1662" y="998" type="qcurve"/>
      <point x="1662" y="566" type="line"/>
      <point x="582" y="566" type="line" smooth="yes"/>
      <point x="459" y="566"/>
      <point x="286" y="468"/>
      <point x="286" y="322" type="qcurve" smooth="yes"/>
      <point x="286" y="254" type="line" smooth="yes"/>
      <point x="286" y="105"/>
      <point x="458" y="0"/>
    </contour>
    <contour>
      <point x="820" y="32" type="qcurve"/>
      <point x="820" y="534" type="line"/>
      <point x="820" y="534"/>
      <point x="820" y="534"/>
      <point x="820" y="534" type="qcurve"/>
      <point x="1662" y="534" type="line"/>
      <point x="1662" y="32" type="line"/>
      <point x="820" y="32" type="line"/>
      <point x="820" y="32"/>
      <point x="820" y="32"/>
    </contour>
    <contour>
      <point x="1782" y="-428" type="qcurve" smooth="yes"/>
      <point x="1832" y="-428"/>
      <point x="1911" y="-415"/>
      <point x="1959" y="-400" type="qcurve"/>
      <point x="2071" y="-154" type="line"/>
      <point x="2017" y="-172"/>
      <point x="1918" y="-190"/>
      <point x="1859" y="-190" type="qcurve" smooth="yes"/>
      <point x="1787" y="-190"/>
      <point x="1666" y="-150"/>
      <point x="1666" y="-81" type="qcurve" smooth="yes"/>
      <point x="1666" y="-58"/>
      <point x="1683" y="-20"/>
      <point x="1700" y="0" type="qcurve"/>
      <point x="1662" y="0" type="line"/>
      <point x="1623" y="-54"/>
      <point x="1529" y="-182"/>
      <point x="1490" y="-235" type="qcurve"/>
      <point x="1490" y="-346"/>
      <point x="1664" y="-428"/>
    </contour>
  </outline>
  <guideline angle="90" color="1,0,0,1" x="1682" y="0"/>
</glyph>
<glyph name="cacute" format="2">
  <advance width="2428"/>
  <unicode hex="0107"/>
  <anchor x="1251" y="1174" name="top"/>
  <anchor x="1251" y="-150" name="bottom"/>
  <anchor x="1251" y="0" name="ogrev"/>
  <outline>
    <contour>
      <point x="296" y="270" type="line" smooth="yes"/>
      <point x="296" y="124"/>
      <point x="442" y="0"/>
      <point x="620" y="0" type="qcurve" smooth="yes"/>
      <point x="1882" y="0" type="line" smooth="yes"/>
      <point x="2060" y="0"/>
      <point x="2206" y="124"/>
      <point x="2206" y="270" type="qcurve" smooth="yes"/>
      <point x="2206" y="366" type="line"/>
      <point x="1682" y="474" type="line"/>
      <point x="1682" y="32" type="line"/>
      <point x="1682" y="32"/>
      <point x="1682" y="32"/>
      <point x="1682" y="32" type="qcurve"/>
      <point x="820" y="32" type="line"/>
      <point x="820" y="32"/>
      <point x="820" y="32"/>
      <point x="820" y="32" type="qcurve"/>
      <point x="820" y="992" type="line"/>
      <point x="820" y="992"/>
      <point x="820" y="992"/>
      <point x="820" y="992" type="qcurve"/>
      <point x="1678" y="992" type="line"/>
      <point x="1678" y="992"/>
      <point x="1678" y="992"/>
      <point x="1678" y="992" type="qcurve"/>
      <point x="1678" y="552" type="line"/>
      <point x="2202" y="650" type="line"/>
      <point x="2202" y="768" type="line" smooth="yes"/>
      <point x="2202" y="907"/>
      <point x="2055" y="1024"/>
      <point x="1880" y="1024" type="qcurve" smooth="yes"/>
      <point x="622" y="1024" type="line" smooth="yes"/>
      <point x="447" y="1024"/>
      <point x="296" y="904"/>
      <point x="296" y="764" type="qcurve" smooth="yes"/>
    </contour>
    <contour>
      <point x="996" y="1124" type="line"/>
      <point x="1045" y="1124" type="line"/>
      <point x="2088" y="1472" type="line"/>
      <point x="1327" y="1472" type="line"/>
    </contour>
  </outline>
</glyph>
<glyph name="Ccircumflex" format="2">
  <advance width="3102"/>
  <unicode hex="0108"/>
  <anchor x="1572" y="1880" name="top"/>
  <anchor x="1572" y="-150" name="bottom"/>
  <anchor x="2485" y="1600" name="topright"/>
  <outline>
    <contour>
      <point x="370" y="1066" type="qcurve" smooth="yes"/>
      <point x="370" y="346" type="line" smooth="yes"/>
      <point x="370" y="139"/>
      <point x="583" y="0"/>
      <point x="782" y="0" type="qcurve" smooth="yes"/>
      <point x="2358" y="0" type="line" smooth="yes"/>
      <point x="2557" y="0"/>
      <point x="2772" y="138"/>
      <point x="2772" y="346" type="qcurve" smooth="yes"/>
      <point x="2772" y="528" type="line"/>
      <point x="2200" y="640" type="line"/>
      <point x="2200" y="36" type="line"/>
      <point x="2200" y="36"/>
      <point x="2200" y="36"/>
      <point x="2200" y="36" type="qcurve"/>
      <point x="942" y="36" type="line"/>
      <point x="942" y="36"/>
      <point x="942" y="36"/>
      <point x="942" y="36" type="qcurve"/>
      <point x="942" y="1364" type="line"/>
      <point x="942" y="1364"/>
      <point x="942" y="1364"/>
      <point x="942" y="1364" type="qcurve"/>
      <point x="2194" y="1364" type="line"/>
      <point x="2194" y="1364"/>
      <point x="2194" y="1364"/>
      <point x="2194" y="1364" type="qcurve"/>
      <point x="2194" y="786" type="line"/>
      <point x="2766" y="892" type="line"/>
      <point x="2766" y="1066" type="line" smooth="yes"/>
      <point x="2766" y="1267"/>
      <point x="2541" y="1400"/>
      <point x="2352" y="1400" type="qcurve" smooth="yes"/>
      <point x="782" y="1400" type="line" smooth="yes"/>
      <point x="593" y="1400"/>
      <point x="370" y="1267"/>
    </contour>
    <contour>
      <point x="970" y="1500" type="line"/>
      <point x="1022" y="1500" type="line"/>
      <point x="1417" y="1766" type="line"/>
      <point x="1788" y="1500" type="line"/>
      <point x="2485" y="1500" type="line"/>
      <point x="1999" y="1800" type="line"/>
      <point x="1414" y="1800" type="line"/>
    </contour>
  </outline>
</glyph>
<glyph name="Cdotaccent" format="2">
  <advance width="3102"/>
  <unicode hex="010A"/>
  <anchor x="1567" y="1906" name="top"/>
  <anchor x="1570" y="-150" name="bottom"/>
  <anchor x="1570" y="0" name="ogrev"/>
  <outline>
    <contour>
      <point x="370" y="1066" type="qcurve" smooth="yes"/>
      <point x="370" y="346" type="line" smooth="yes"/>
      <point x="370" y="139.24"/>
      <point x="582.786" y="0"/>
      <point x="782" y="0" type="qcurve" smooth="yes"/>
      <point x="2358" y="0" type="line" smooth="yes"/>
      <point x="2557.21" y="0"/>
      <point x="2772" y="137.73"/>
      <point x="2772" y="346" type="qcurve" smooth="yes"/>
      <point x="2772" y="528" type="line"/>
      <point x="2200" y="640" type="line"/>
      <point x="2200" y="36" type="line"/>
      <point x="2200" y="36"/>
      <point x="2200" y="36"/>
      <point x="2200" y="36" type="qcurve"/>
      <point x="942" y="36" type="line"/>
      <point x="942" y="36"/>
      <point x="942" y="36"/>
      <point x="942" y="36" type="qcurve"/>
      <point x="942" y="1364" type="line"/>
      <point x="942" y="1364"/>
      <point x="942" y="1364"/>
      <point x="942" y="1364" type="qcurve"/>
      <point x="2194" y="1364" type="line"/>
      <point x="2194" y="1364"/>
      <point x="2194" y="1364"/>
      <point x="2194" y="1364" type="qcurve"/>
      <point x="2194" y="786" type="line"/>
      <point x="2766" y="892" type="line"/>
      <point x="2766" y="1066" type="line" smooth="yes"/>
      <point x="2766" y="1267"/>
      <point x="2541" y="1400"/>
      <point x="2352" y="1400" type="qcurve" smooth="yes"/>
      <point x="782" y="1400" type="line" smooth="yes"/>
      <point x="593" y="1400"/>
      <point x="370" y="1267"/>
    </contour>
    <contour>
      <point x="1481" y="1476" type="qcurve" smooth="yes"/>
      <point x="1653" y="1476" type="line" smooth="yes"/>
      <point x="1734.5" y="1476"/>
      <point x="1763" y="1504.5"/>
      <point x="1763" y="1586" type="qcurve" smooth="yes"/>
      <point x="1763" y="1718" type="line" smooth="yes"/>
      <point x="1763" y="1797.99"/>
      <point x="1734.5" y="1826"/>
      <point x="1653" y="1826" type="qcurve" smooth="yes"/>
      <point x="1481" y="1826" type="line" smooth="yes"/>
      <point x="1399.5" y="1826"/>
      <point x="1371" y="1797.99"/>
      <point x="1371" y="1718" type="qcurve" smooth="yes"/>
      <point x="1371" y="1586" type="line" smooth="yes"/>
      <point x="1371" y="1504.5"/>
      <point x="1399.5" y="1476"/>
    </contour>
  </outline>
</glyph>
